<svg xmlns="http://www.w3.org/2000/svg" viewBox="0 0 667.94 594.31"><defs><style>.a{fill:#f99367;}.b{fill:#171215;}.c{fill:#ada49f;}.d{fill:#876855;}.e{fill:#bc9480;}.f{fill:#517fbe;}.g{fill:#c44c44;}.h{fill:#be9649;}.i{fill:#5e524c;}.j{fill:#74a3d6;}.k{fill:#edc562;}.l{fill:#7fb4dd;}.m{fill:#f9c76e;}</style></defs><title>RustAdornments</title><path class="a" d="M138,73.38c-8.91,3.48-20.87-4-27.37,2.87-2.25,2.4-1.78,4.34-3.44,4.79-5.88,1.59-21-20.21-20.48-42.88.18-8.81,2.72-17.87,5.36-18,3.16-.14,4.12,12.68,8.61,13.21C107.62,34.2,110.88,4.31,124,1.8c9.15-1.75,19.23,10.46,23.54,19C157.61,40.47,150.84,68.38,138,73.38Z"/><path class="b" d="M408.75,41c1.66-3.36,4.78-4.54,8.11-5.42,5.61,1.26,8.86,5.91,13.11,9.13,5.24,9.51,12.48,17.35,20.22,24.84,0-4-2.73-6.36-4.54-9.22-3.72-5.87-10.17-10.18-10.54-18,7.44.67,14.31-.43,19.62-6.34,9-.83,14.24,3.73,19.63,10.85s6.86,11.36.63,18.53c-6.47,7.44-2.13,15.82,7.76,16.73,2.42.22,5.6.62,4.52,3.51-2.77,7.47-4.15,17.39-12.53,19.77-9.39,2.66-9.56,10.63-13.62,16.42-2.42,3.44,2.45,7.26-1,11.29-3.45-5.22-6.26-3.66-8.82.35-1.23,1.92-2.58,3.74-3.88,5.6-8.88,8.37-17.59,16.94-26.7,25.05-10.92,9.71-12.67,13.2-8.84,23.19,4,10.46,8.72,20.61,15.3,29.77q1.21,2.28,2.42,4.56c.42,6.77,6,10.88,8.59,16.55,13.34,28.8,29.54,55.66,54,76.61-.74,2.59-4.39,1.15-5.46,4.31,7.41,2.4,13.9,7.08,22,7.17,15.62,11.88,15.05,30.23,18.37,47.34a28.5,28.5,0,0,0,4.8-7.29c3.83-7.65,6.35-16.4,11.71-22.76,12.45-14.76,22.65-31,33.67-46.73,8.35-11.92,20.28-9.61,27.3-1.11,2.88,3.49,5.08,7.52,7.77,11.17,10.85,14.72,25.15,26.39,36.3,40.81,6.47,8.36,12.69,17.45,6.09,28.43-5.61,9.34-6.24,19.15-5,29.46-1.53,4.64-1.54,9.45-1.72,14.26-.4,10.34-7,15.45-17.2,13.47-12.63-2.44-21.9-15.21-22.32-30.74,2.79-11.35,10-19.38,19.25-25.93,2.88-2,3.36-4.47,1-7.06-8.84-9.76-15.67-21.25-26.49-29.36-4.7-3.53-6.72-1.41-7.31,2.42-3.11,20.27-11.64,38.85-17.52,58.25-2.07,3.46-4.43,6.78-6.17,10.4-7.69,16-18.59,29.06-34.07,37.95-3,1.75-2.75,3-2.25,6.31,1.4,9.32,4.62,17.94,7.78,26.65a56.41,56.41,0,0,1-20.62,10.71c1-6.47-1.18-12.57-3.36-18.29-4.44-11.59-4.83-11.42-14.69-3.92-1.2.91-2.63,1.54-3.06,3.16-1.72-.12-2.55-1.16-3.3-2.65-3.85-7.65-7.81-15.24-11.76-22.85-3.45-6.64-6.7-13.45-14-16.91l.08.07c3-4.28,2.62-8.74-1.52-11.38s-5.26,2.59-7.24,4.66c-5.22,5.49-10.3,11.16-14.95,17.14-2.34,3-9.63,4.41-5.92,9.54s9.36.75,14-.65c1.28-.38,2.07-2.19,3.31-3,4.14-2.69,5.89-7.67,10.14-11.22.66,5.06-2.67,7.85-3.55,11.44-.43,1.73-1,3.79.39,5.09,1.9,1.74,3-.64,4.45-1.44.82-.47,1.71-.81,2.93-1.38,1.58,5.29-2.87,7.6-4.35,11.08-.62,1.44-1.44,2.92-.65,4.34,1,1.77,2.63,1,4,.44,3.41-1.32,6.81-.4,11.47-.77-3.85,5.22-7.32,9.55-3.4,15.16.47.68-.1,2.78-.87,3.49-1.48,1.38-3.84,2.12-1.11,4.43,2.23,1.9,3.56.14,5.23-1.08,3.73-2.73,8.69-4,12-1.47,1.59,1.22,1,7.08-1.41,10.48-1.54,2.17-1.53,4.81-1.26,7.38.2,1.93,1.08,4,3.16,3.45,4.33-1.08,9.06,4.39,13.1-1,.74-1,2-.43,3,.83,4.31,5.21,4.56,5.1,8.2-1.67,6.95-2.07,14.18,2,21.08-1-.67,4.16,2.24,5.82,4.52,3.39,4.77-5.06,10.41-8.12,16.61-10.62.46,4.68-1.56,8.25-4.76,11.5-8,8.15-8,8.21-2,17.73.55.86,1.07,1.73,1.59,2.61,2.68,4.58,1,6.63-3.94,6.59-7.34,0-14.67-.17-22-.26-1.57,0-3.08-.22-4.09-1.58-1.69-2.27-2.53-5.94-6.79-3.55-2.82,1.6-6.78.92-9,3.6-1.25,1.54-1.73,3.72-4,4.2-8,1.66-5.18,5.87-2.34,10,1.74,2.52,3.22,6,5.66,7.05,4.56,1.89,3.4,3.86,1.48,6.57-2-5.24-6.49-8.51-10-12.45-2-2.24-5.51-2.88-6.67,1.75-3-1.34-2.51-3.5-1.35-5.81l1.05-1-2.12-.27c-9.66,1.83-11.25.81-14.54-8.59-1.31-3.74-1.81-7.93-5.13-11-3.62,4-4.81,9.11-6.91,13.65C459,556.8,450,575.58,440,593.82H392.48c2.4-7.77-3.34-12.48-7.65-16.72-3.45-3.4-6.6,2.27-9.21,4.13-5,3.57-6.87,1.82-9.17-2.61-1.2-2.31-1.33-7.06-5.8-5.4-5.6,2.09-13,.71-16.19,7.84-.46,1-1.67,1.85-2.34.9-4-5.73-9.24-2.1-14-2,.22-5.81-5.89-11.91.79-17.43,2.77.34,5.19-1.63,8.18-.86,2.53.66,3.33-1.75,3.79-3.78s.6-4.11-1.39-5.51c-1.75-1.22-3.52-1.78-5.56-.27-2.39,1.76-5,3.28-7.45,4.9l-18.12.08c-2.63-2.93-6.51-2.28-9.78-3.29-11.86-3.65-22.93-9.53-35.1-12.3-7.91-1.8-15.56-3.48-20.85,5.28-1.68,2.77-5,3.42-8,4s-5.92,1.39-7.29,3.68c-4.85,8.13-12.56,11.43-21.12,13.44-3.72.88-5.18,3.11-4.43,6.59,1.84,8.46.23,11.31-8.64,12.67-4.48.68-7.62,2.21-8.92,6.68H172c-1.52-4.84,4.11-5.86,5-9.4a382.28,382.28,0,0,1,38.45-41.31c1.24-1.16,3.38-2.82,1.63-4.4-4.69-4.19-.69-6.43,1.53-9.23,2.85-3.58,5.75-7.14,8.39-10.89,1.54-2.2,1.74-4.05-1.33-5.91a181.74,181.74,0,0,1-18-12.47c-2.67-2.09-8.16-3.57-5.54-8.53,2.39-4.56,7.12-3.46,11.54-2.86a114,114,0,0,0,14.45.56c1.69,0,3.91.11,4-2.33.12-2-1.94-2.07-3.26-2.62-18.21-7.51-32.51-20.71-47.35-33-3.4-2.81-5.34-3.18-7.81.22-1.86,2.57-4.66,4.54-5.08,8.08-.2,1.64-1.3,3.2-3,2.73C160.13,461,155.73,464,151,465.6c-5.63,1.84-9.92.7-12.91-4.71a28.5,28.5,0,0,0-4.49-6c-4.36-4.45-3.73-8.57-.18-13.24,2.67-3.5,9.2-5.55-.64-11.25-9.37-5.43-14.34-17.81-20-27.89-4.41-7.9-9-12-17.5-10.14-7.1,1.59-12.51-1.29-17.86-4.36-15-8.61-21.92-22.62-24.66-39.12.34-3,.64-6.08,1-9.11.27-2.16-.13-5.1-1.68-5.55-6.84-2-9-10-15.78-11.86-2-.56-4-1.42-3.91-4.62a7.49,7.49,0,0,1,4-6.83A4.82,4.82,0,0,1,42.61,312c5.72,6.19,13.12,9.94,20.25,14.13,4.56,2.68,13.47,1.94,16.84-1.82s2.75-15.49-1.19-19a111.18,111.18,0,0,1-13.94-15.15c-6.6-8.45-16.49-13-24.46-20a51.23,51.23,0,0,1-9.45-11.34c-7.86-12-16.39-23.65-20-38a32.08,32.08,0,0,1-.77-6.6c1.55-.14,3-.15,3.88,1.55,5.15,10.18,7.74,10.72,16,2.91,4.89-4.62,9.58-5.13,14.61-.39,1,1,1.9,2.48,4,1.94.64-5.49-2.61-10-3.92-15l.9-.9c10.64,8.6,25.55,11.28,33.25,24,.89,1.48,2.53,2.79,4.49,1.43,1.71-1.18,1.69-3,1-4.78-1.79-5-3.53-10-6.81-14.32-4.13-5.43-8-11-12-16.63-1.34-1.93-2.74-4.21,1.34-4.76l3,1.25c8.67,11.62,21.23,17.79,33.76,24,2.39,1.18,4.48.32,3.88-2.41-1.95-8.84,0-18.3-4.36-26.74-1.28-2.47-2.66-5-1.5-7.92,7.9,6.71,13.74,15.67,22.89,21,.28,1.63-2.14,3.57,0,4.83,2.59,1.5,1.88-2.14,3.47-2.68,5.35-1.82,9.68-8.87,16.53-1.85,3.22,3.31,8.06,2.1,10.05-2.27,1.69-3.71-2.45-5.57-4.85-6.67-4.5-2.06-7.68-4.31-8.12-9.78-.31-3.72-3.86-4.33-6.95-4.55-3.28-.23-6.58-.12-9.87-.16,1.1-7.11,3.14-13.94-1.3-21.15a10.43,10.43,0,0,1,2.34-13.71,6.91,6.91,0,0,0,5.93-.29c8.73-5.45,18.27-6.83,28.29-6.27l2.9.37c1.49.57,3.1.62,4-.76,1-1.65.59-3.3-1.19-4.38l-6-28.71L167,104c3,14.93,5.61,29.9,12.62,43.72,2.24,4.41-3.05,8.27-2.57,12.87-4.22-.48-7.22-3.4-11.07-5.37,2.53-1.41,6.44-.68,6.15-5.21-.26-3.92-1.51-6.75-5.18-8.57-7.66-3.81-28.49-1.52-34.62,4.19-3.08,2.87-4.45,6.77-4.84,10.91-.17,1.79.3,4.43,2.37,4,4.08-.84,6.44.66,9.64,3.08,4.74,3.58,11,3.31,16.91,2.94,2.67-.17,5.39-.41,7.81,1.88,4.7,4.45,8.16,10.11,13.61,13.84,1.26.86,2.25,2.25,1.49,3.93s-2.49,1.57-3.95,1.1c-1.67-.55-4-.94-4.72-2.18-3.12-5.08-8.71-6.79-13-10.26-1.39-1.13-2.86-2.89-4.48-1.06-1.44,1.62.3,3.32,1.2,4.73,6.38,9.95,15.68,14.88,27.31,15.74.13.8.26,1.6.4,2.4a1.62,1.62,0,0,0,.82,2.15c4.54,9.5-.56,18.41-2.09,27.41-1.06,6.15-1.65,7.73,6.1,6.51,9.9-1.55,18.38,4.43,26.23,10.25,6.77,5,12.22,11.43,18.11,17.37,1.09,3.1,3.38,5.36,5.44,7.79.39,3.2,2.61,5.45,4.31,7.93a68.81,68.81,0,0,1,12.49,36.1c.21,4.33-.22,8.9-4.15,10.16s-6.65-2.74-8.66-6.06A83,83,0,0,0,224,296.86c-4.29-5.07-8-10.89-15.24-12.26l-3-3.2c-.26-.63-.49-1.39-1.24-.38l1.07.55c0,1.69-.37,3.52,1.56,4.55a3.74,3.74,0,0,0-.18,1.15c-4.47,1-6.31-4.24-10.3-4.4-.34-2.88,3.73-2.32,4-5.14-2.33-.14-4.76-3.12-6.61-.24-1.27,2-.14,4.44,2.34,5.63,0,4.53,2.16,8.26,4.49,11.92,4.2,6.62,8.32,12.92,8.75,21.47.3,6,4.18,11.32,12.34,11.22-2.36-4.33-4.47-8.26-6.64-12.15-1.06-1.9-3.5-3.91-.79-5.87,2.46-1.79,4.83-.15,6.73,1.71,3.7,3.62,7.35,7.27,11,10.91a219.11,219.11,0,0,0,40.27,41.36c4.15-5.38,5.89-7,9.89-9,8.56-4.3,8.89-6,2.58-12.88-1.37-1.49-2.69-3-4-4.55a17.69,17.69,0,0,1,12.22-5.24A24.37,24.37,0,0,0,302,345.29c-3.25,6.27,1.38,15.22,9.39,16.54a59.43,59.43,0,0,1,27.08,11.91l-.93,1.42c-1.06,0-1.42.64-1.32,1.62a7.91,7.91,0,0,1-3.77,5.27c-5.54,3.62-11,7.34-16.53,11l-1.88.41-2.25,0c-3-3-5.63-6.91-10.76-5.49-4.26,1.19-8.7,2-12.61,0s-6.48-5.82-7.86-11.35c-3.5,10.24,1.34,17.5,4.42,27.19-.26-4.72.86-7,3.77-6,3.64,1.14,7.11,3,7.15,7.78-2,3.52-9,1.19-8.76,6.92.41,9.07,1.46,18.11,2.25,27.17,0,5.81,4.21,9.73,8.41,11.24,3.33,1.19,2.75-5.08,5-7.35.87-.89,1.33-2.16,2.13-3.14a1.67,1.67,0,0,1,2.61-.34c.46.46.87,1.75.64,2-4.49,4.31-2.39,13.35-10.74,15-1.2.23-3.24,0-3.43,2.58,7.37,1.72,13.93-.65,16.36-7.19,2.14-5.74,5-11,7.41-16.56,2.55-5.9,7.47-9.26,13.85-8.27,5.24.81,7-1.21,7.67-5.73s2.92-7.94,7.57-8.32c4.92-.39,7.58-2,7.38-7.34-.12-3.17,2.05-4.16,4.59-2.6,7.25,4.42,10.74,2.17,10.83-6,4.41.54,4.77,5.33,8.68,6.34,6.26,1.61,12.58,0,18.77,1.28a2.3,2.3,0,0,0,2.84-1.88,2.82,2.82,0,0,0-1.77-3.67c-3.14-1.41-4.58-4.61-6.31-7.18-1.35-2-3-5.12-.23-7.67,2.56-2.34,6.52-4.54,8.91-2.45,6.33,5.53,8.53.69,11.63-3.33,3.72-4.83,6.77-4.32,8.8,1.69.87,2.57,1.83,4.47,4.27,5.89,2,1.16,6.91-.69,5.84,2.63-1.63,5.06-4.78-1.54-7.45-.36-.45.2-.87.47-1.24.67.88,8.14,7.12,15.69,2,24.53-.79,1.37-1.21,7.73,4.09,5,5.85-3,9.82,1.14,14.24,2.58,3.26,1.07,4.2,4.72.49,7.86s-7,6.66-10.41,10.08c-1.66,1.66-2.38,3.62.16,5,1.84,1,3.86,1.2,5.1-1.36,6.15-12.71,14.89-23.42,25.37-32.8.69-.61,1.61-1.88,1.4-2.45-3.14-8.42-.55-18.36-7.33-25.86-5.24-5.81-9.8-12.23-14.88-18.2-4.8-5.64-10.51-9.64-18.51-8.4-10.94-9.43-22.56-8.66-34.56-2.32-11.21,6-22.44,4-33.78-.59a27.53,27.53,0,0,0,7.75,5.36c3.41,1.61,2.57,3.72,1.06,6.07l-4,.85c-1.83-1-3.88-.78-5.83-1.12-6.17-1.1-8.67-7.62-5-12.16-3.56-3.06-8.42.35-12.09-2.45,3.05-9.63-2.16-18.5-2.63-27.85-1-19.88-8-39.22-5.36-59.48a8.55,8.55,0,0,0-1.36-6.55l-1.63-2c-1.13-7.45-1.19-15.11-4.53-22.1-.14-.6-.29-1.2-.43-1.79.35-2.09,1.06-4.24-1.15-5.82-.22-13.31-6.7-25.51-6.84-38.85,0-3-.55-6-.84-9,.15-.14.43-.3.42-.44a5.79,5.79,0,0,0-.24-1.14l-.06-2.84c.11-.13.34-.33.32-.38a7.43,7.43,0,0,0-.6-.76c-2.47-7.1-1.83-14.59-2.72-21.88.69-1.61.8-3.15-.47-4.55q.13-6.91.29-13.85c1.4-7.18.5-14.43.58-21.65,1.78-5,1.5-8.82-5.17-8.94l-7.77-2.68c-9.45-2.87-17.94-7.89-26.8-12.06-1.78-.83-3.31-1.64-2.79-3.76.6-2.39,2.89-1.8,4.46-1.7,12.57.82,25.13,2,37.74.84,8.77,1.38,7.84-6.32,8.15-10.4,1-13.55,12.17-19,20.14-26.87,2.42-2.39,6.76-2.84,9.9-5.13a7.53,7.53,0,0,1,9.85.75c2.95,3.13,6.26,2.74,9.69,3.08-.13,4.47-4.72,5.47-6.89,8.7a18.66,18.66,0,0,0,2.5,1.69c11.92,5.44,24.52,2.81,36.83,2.65,3.44,0,6.92,1.48,10.34.08,1.89-.78,4.25-1.67,3.76-4s-2.87-1.49-4.41-1c-3.75,1.29-5.31.09-4.9-3.8,1.47-.25,3.15-.13,4.38-.81,3-1.66,9.72,1.45,9-3.19C417.65,36.78,412.09,42,408.75,41ZM310,550.84l1.66,1.22c1.91-.36,4.18-1.57,5.66-.94,7.46,3.19,12.88-.64,18.38-4.61,1,1,1.93.45,2.73-.14,16.57-12.12,29.79-27.64,43.34-42.82,1-1.1,2.06-2.77.35-4-1.86-1.29-3.46,0-4.43,1.58A48.66,48.66,0,0,1,365.73,515c-3.24,2.47-8.28.47-11.36,4.55-1.88,2.49-5.16,3.94-8.37,6.27.23-4.48,3.12-5.63,5-7.58,1.18-1.23,3.27-2.34,2.18-4.36-1-1.84-3.22-1.2-4.88-1a14.26,14.26,0,0,0-5.09,1.45c-7.45,3.91-14.66,4.37-21.37-1.39-1.62-1.4-2.72-.08-4.08-.05-9.67.21-17.65,5.28-26.2,8.77-4.07,1.66-9.9,1.46-7,8.7.6,1.51-.72,2.24-2.16,2.29-5.77.2-10.46,6.33-17.2,2.84C275,540,284.41,544.47,294.89,546a2.31,2.31,0,0,0,.95.34A10.33,10.33,0,0,0,304,549.2a2.2,2.2,0,0,0,1,.27,5.26,5.26,0,0,0,4.88,1.32ZM282.88,432.5c.27.9,1,2,1.75,1.43,1.18-.81.45-2-.35-2.88A32,32,0,0,0,280.73,416C283.72,421.28,274.73,427.73,282.88,432.5Zm154-288.85c5.53-4.72,10.28-10,13.42-16.83-4.78-2.46-7.49.23-8.93,3.39-1.93,4.27-4.68,8.39-4.52,13.41l-.69.6c.15,0,.36.05.44,0A2.3,2.3,0,0,0,436.9,143.65ZM226,265.8A40.84,40.84,0,0,0,213.22,252c-3.8-4.63-9.19-7.08-14.16-10-9.67-5.68-13.33-3.67-14.19,7.25a12.81,12.81,0,0,1-.14,1.52c-2,10.22,1.7,15.8,11.9,18.25,3.16.76,6.19,2.09,9.28,3.16,2.88,6.43,9.79,7.26,14.84,10.66l21.91,21.9C243.14,288.65,235.25,276.91,226,265.8ZM333.19,509a8.09,8.09,0,0,0,5.57-.71c10.37-.82,19.52-5.65,29-9.22,6-2.27,5.92-7.61,1.56-12.69-3.52-4.11-9.05-1-11.8-3.78-5.49-5.46-10.92-2.75-15.13,0-6.8,4.44-16.78,2.09-21.53,10.65-1.05,1.91-3.63,1.07-5.67.48a3.06,3.06,0,0,0-2.65.72c-.86,1.13-.37,2.3.83,3.22C319.47,502.32,324.42,509,333.19,509Zm-99-155c-1.18-.45-2.57-.65-3.5-1.41-2.83-2.31-5.42-4.79-9.27-1.67-3.6,2.92-1.35,6.28-.42,9.1,1.86,5.71,4.37,10.89,3.71,17.47-.28,2.74.05,11.66,7.67,8.35,5.32-2.31,5.77,0,7.51,3.59,5.2,10.88,9.59,12.24,20.05,6.85a5.92,5.92,0,0,1-1.19,7c-3,3.17-3.65,6.31.5,8.82s6.53-.68,8.69-3.59c5.72-7.72,7.73-16,5.34-25.67-1.37-5.55-7.67-15.3-13.28-16.73-9.21-2.34-15.62-8.49-21.67-15.22-.74-.82-1.19-2.72-2.64-1-.52.62-.21,1.95-.28,2.95ZM421.5,548.23c1.75-3.43.85-6.8-.47-7.32-8.72-3.44-13.66-10-17.17-18.23-.53-1.25-2.94-2.15-4.78-1.17a2.78,2.78,0,0,0-1.11,4c1.4,2.63,4,5,.5,7.92-3.1,2.63-5.78,1.85-8.87-.22a4.71,4.71,0,0,0-6.27.89c-1.7,2,.71,3.09,1.4,4.54,2.47,5.15,6.71,8.75,11,12.31,7.21,6,11,4.82,13.78-4.27,1.76-5.77,4.87-6.53,9.11-2.17A46.2,46.2,0,0,1,421.5,548.23ZM113.35,259.13c-4.53,1.06-8.28,4-12.2,2.29-9.71-4.3-17.92,0-26.18,4.1-2.07,1-4,2.62-3.23,5.37.67,2.41,2.88,2.52,5,2.64,9.5.57,18.78-.47,27.58-4.25C108.38,267.51,112.19,265.16,113.35,259.13ZM239.21,491.32a8.56,8.56,0,0,0,1.88.86c19.17,3.6,39.14,2.89,57.56,10.75,2.23.95,5,.6,7.53.92,1.25.16,2.72.67,3.1-1a3.5,3.5,0,0,0-.9-2.66c-1.66-1.71-4-2-6.22-2.55a198.37,198.37,0,0,1-21.1-5.63C267.47,487.27,253.36,487.28,239.21,491.32ZM158.55,207.51c-2.56,1-6.62-1.95-7.74,2.22-1,3.7,13.27,13.33,16.84,11.35,5.09-2.81,9.86-6.23,12.12-12.05.55-1.42,1.53-2.92.6-4.31-1.28-1.94-3.16-.62-4.84-.45C169.78,204.87,164.79,209.27,158.55,207.51Zm210.11,358c2.17-2.85,5.22-3.93,8.94-4.24s8.63-9.34,7.06-12.95c-1.34-3.11-5.19-2.56-7.51-4.46a2,2,0,0,0-3,1.29c-.86,6-5.81,10-7.14,15.74C366.58,562.64,365.87,564.4,368.66,565.54ZM91.07,384.32C79.46,372.91,66,365.16,61.17,349.83,61,366.46,74.9,382.92,91.07,384.32ZM168,246.38c-2-.35-4.09-2.17-5.62.29-1.37,2.2.53,3.91,1.57,5.41,2.53,3.65,4.81,8.37,10.47,7,6-1.49,5.46-7.2,6.46-11.69.31-1.33.09-3.39-.76-4.24-1.34-1.35-2.74.23-3.79,1.23C173.8,246.72,170.8,246.56,168,246.38ZM187,333.48c1.1-7.67-1.89-12.72-3.1-18.12-.62-2.8-2.6-5.52-6-4.2s-3.09,4.34-1.73,7.13c2.21,4.55,4.26,9.13,4.78,14.25.3,2.87,1.2,6.56,4.33,6.15C189.09,338.2,186.86,334.09,187,333.48Zm99.12,112.6c-.34-4.7-1.25-10.35-6.26-9.94-5.78.48-7.4,7.37-7.53,11.91-.17,6,6.45,2.36,9.78,3.85C286.59,453.9,284.94,448.18,286.16,446.08Zm80.16-339.86c-11.38-3.82-22.85-5-34.21,0ZM96.06,325.55c-1.45-3.32-2.83-6.49-4.25-9.65A6,6,0,0,0,90.65,314c-1.46-1.39-3.12-3.08-4.25.26C83.69,322.27,86.66,325.9,96.06,325.55Zm20.53-30.1c3.33-3.42,9.39-4.42,9.2-10.75-.05-1.6-.11-3.09-1.66-3.85-1.8-.88-2.82.57-3.69,1.72C117.67,286.26,116.62,290.57,116.59,295.45Zm26.72-84.4c-5.19-2.92-9-4.94-14.36-5.38C131.86,212.51,135.89,214.1,143.31,211.05Zm-16.08,43.19c-2,.21-2.43,1.63-2.2,3.16a6.12,6.12,0,0,0,4.71,5.12c1.44.4,2.32-.78,2.23-2.19C131.77,257.3,130,255.36,127.23,254.24Zm3-39c-2.09-.88-4.22-2.26-6.51-2.59-1.79-.26-2.29,1.76-1.83,3.32.54,1.84,1.08,4.31,3.87,3.35C127.52,218.7,129.79,218.32,130.26,215.22ZM407,397.81c3,.26,4.42-1.35,4.8-3.9.23-1.52-.79-2.39-2.31-2.12-2.32.4-4.6,1.34-5.28,3.77S405.87,397.44,407,397.81ZM275.6,416c-.73,3.84-3.44,7.27-2.77,12.07C277.35,424.33,275.53,420,275.6,416Z"/><path class="c" d="M308.36,557.07l18.13-.08c2.1,1.27,1.41,3.77,2.42,5.52-6.68,5.52-.57,11.62-.79,17.43-1.07,5.43-8.12,7.59-7.61,13.88h-9.18c-2.81-6.75-10.14-7.2-15.26-10.7-2.78-1.9-6.88-3.06-9.7.54-3.09,3.93-.48,7.12,2,10.16H207.2A27.51,27.51,0,0,1,226.75,577c10.42-2.44,14.79-9.16,19-16.93,2.31-4.29,3.77-8.43,9.94-6.35,1.29.44,3,0,4.44-.48,8.15-2.5,11.9.13,12.83,9.13-8,2-2.68,7.19-2.26,10.86.55,4.83,4,3.21,6.94,2.24,1.91-.64,3.84-1.2,5.76-1.8,2.32.06,3.32-1.13,3.17-3.39l1-1.58C293.75,563.49,301.42,560.92,308.36,557.07Zm-69.69,24.17c4.85-.45,8.27-.79,11.7-1.08a4.45,4.45,0,0,0,4.38-3.46c.46-1.74.64-3.61-.85-4.92a5.38,5.38,0,0,0-6.36-.43C244,573.32,241.45,576.33,238.67,581.24Z"/><path class="d" d="M272.94,562.38c-.93-9-4.68-11.63-12.83-9.13-1.41.44-3.15.92-4.44.48-6.17-2.08-7.63,2.06-9.94,6.35-4.19,7.77-8.56,14.49-19,16.93a27.51,27.51,0,0,0-19.55,16.81h-23c1.3-4.47,4.44-6,8.92-6.68,8.87-1.36,10.48-4.21,8.64-12.67-.75-3.48.71-5.71,4.43-6.59,8.56-2,16.27-5.31,21.12-13.44,1.37-2.29,4.42-3.11,7.29-3.68s6.31-1.23,8-4c5.29-8.76,12.94-7.08,20.85-5.28,12.17,2.77,23.24,8.65,35.1,12.3,3.27,1,7.15.36,9.78,3.29-6.94,3.85-14.61,6.42-20.79,11.64.72-3.12-.76-4.24-3.67-5.2C280.24,562.29,276.54,563.17,272.94,562.38Z"/><path class="d" d="M320.51,593.82c-.51-6.29,6.54-8.45,7.61-13.88,4.76-.08,10-3.71,14,2,.67.95,1.88.12,2.34-.9,3.19-7.13,10.59-5.75,16.19-7.84,4.47-1.66,4.6,3.09,5.8,5.4,2.3,4.43,4.16,6.18,9.17,2.61,2.61-1.86,5.76-7.53,9.21-4.13,4.31,4.24,10.05,8.95,7.65,16.72Z"/><path class="d" d="M288.36,593.82c-2.47-3-5.08-6.23-2-10.16,2.82-3.6,6.92-2.44,9.7-.54,5.12,3.5,12.45,4,15.26,10.7Z"/><path class="e" d="M135.12,62.47l0,2.85A22.85,22.85,0,0,0,135.12,62.47Z"/><path class="e" d="M135.22,42.74a.73.73,0,0,1,.09.08v-.19Z"/><path class="e" d="M125.9,46.91c-4.78.07-9.35-.1-13.81,2.54-3.35,2-6.64-.68-9.71-2.24a2.54,2.54,0,0,1-1,.49c0,3.54-3.32,7.18.46,10.62a1.77,1.77,0,0,1-.31,2.68c-1.3,1.07-2.2.31-3.17-.67A6.92,6.92,0,0,0,92.93,58c-.36,7.78,3.46,13.06,10,16.68a18.67,18.67,0,0,0-.17-3c-.48-2.36-2.22-4.87.82-6.75,2.73-1.69,4.69.31,6.89,1.46a29.31,29.31,0,0,0,6.24,2.54c1.31.33,3.79.48,3.75-1.33-.14-7.14,5.66-5.55,9.51-7.08s5-.25,5.13,2l.19-19.65a.73.73,0,0,0-.09-.08C133.19,45.43,130.48,46.85,125.9,46.91Z"/><path class="f" d="M135.32,42.63c.85-7-2.46-14.32,3.7-20.76,8.5-8.9,14.19-7.2,23.77,1.16-6.53,3.55-1.65,10.49-4.4,15.91-2.71-2.49-5.15-5.85-8.6-3.07a10,10,0,0,0-3.25,9c.35,3.11,2.44,5.45,5.38,6.93,3.27,1.65,6.64,3.21,9.39,6.16a10.79,10.79,0,0,1-8.23,2.35c-6.44-.46-8.52,4.92-9.22,9-.74,4.26,4.76,3,7.54,4.07,2.1.82,4.38,1.65,5.49-1.67a2,2,0,0,1,3.18-.75,3,3,0,0,1,.73,2.68c-2.08,4.91-.19,10.11-1.32,15.06-3.93-1.46-7,.07-9.28,3.12-2.48,3.34-1.32,7.31.7,10,2.51,3.31,2.49,6.91,3.49,10.46,2,7.23-1.7,15.93,5.52,21.82-10-.56-19.56.82-28.29,6.27a6.91,6.91,0,0,1-5.93.29c-.84-11.57,2.58-22.45,5.48-33.41,1.38-.36,3.34-.28,3.25-2.21,0-.9-1.47-1.74-2.27-2.61.08-.53.15-1.07.23-1.6,7.86,1.69,10.2.33,8.72-5-1.07-3.84-4.46-3.41-7.21-4.19.77-8.74,2.08-17.44,1.2-26.24"/><path class="g" d="M66.72,189.37c-4.08.54-2.68,2.82-1.34,4.75,3.9,5.6,7.82,11.2,12,16.63,3.28,4.33,5,9.32,6.81,14.32.65,1.82.67,3.6-1,4.78-2,1.36-3.6.05-4.49-1.43-7.7-12.73-22.61-15.41-33.26-24-.36-.22-.9-.73-1.06-.63-.91.54-.41,1.07.17,1.53,1.31,5,4.56,9.52,3.92,15-2.06.54-2.92-1-4-1.94-5-4.74-9.72-4.23-14.61.39-8.28,7.81-10.87,7.27-16-2.91-.86-1.7-2.33-1.69-3.88-1.55-.47-8.28-1.53-16.68,8.55-20.84,1.73-.71,2.58-3.52,3.84-5.37,3.24-.5,7.76-7.28,9,1.85-2.85.54-7.37.46-5,5,2.18,4.22,6.57,8.28,11.65,6.51,5.35-1.86-1.75-4.41-.81-7,.3-.93,1-2,.82-2.78-.64-3.11-1.74-6.67,3-6.88,4-.17,9.79-3,10.51,4.68-1.12.7-3.92.89-2.36,2.77,3,3.55,4.82,8.33,10.62,10.82L55.1,192.68c.83-.49,2.2-.83,2.39-1.5C59.86,183,59.82,183,66.72,189.37Z"/><path class="h" d="M181.66,194.27c-11.63-.86-20.93-5.79-27.31-15.74-.9-1.41-2.64-3.11-1.2-4.73,1.62-1.83,3.09-.07,4.48,1.06,4.27,3.47,9.86,5.18,13,10.26.76,1.24,3,1.63,4.72,2.18,1.46.47,3.14.69,3.95-1.1s-.23-3.07-1.49-3.93c-5.45-3.73-8.91-9.39-13.61-13.84-2.42-2.29-5.14-2.05-7.81-1.88-5.93.37-12.17.64-16.91-2.94-3.2-2.42-5.56-3.92-9.64-3.08-2.07.42-2.54-2.22-2.37-4,.39-4.14,1.76-8,4.84-10.91,6.13-5.71,27-8,34.62-4.19,3.67,1.82,4.92,4.65,5.18,8.57.29,4.53-3.62,3.8-6.15,5.21,3.85,2,6.85,4.89,11.07,5.37,2.05,8.58,4.23,17.12,6.08,25.74A11.26,11.26,0,0,1,181.66,194.27Zm-30.49-40c3.45-.56,8.15,1.7,10.81-2.27,1.4-2.08-.29-5.62-2.29-7.5-5.52-5.2-11.07-1.39-17.35,0,2.68,2.81,5.35,3,8.1,3.58C157.15,149.46,149.13,152,151.17,154.29Zm-7.72,4.05a8.37,8.37,0,0,0-1.18-.73,1,1,0,0,0-.66.06,5.47,5.47,0,0,0,.08,1Zm5.06-.85a5.07,5.07,0,0,0-1-.46c-.09,0-.42.36-.39.46a4.52,4.52,0,0,0,.56.86Z"/><path class="c" d="M31.33,190c-1.27-9.13-5.79-2.35-9-1.85,1.31-6.2,7-9.79,11-12.73,10.4-7.62,21-16.79,36-12.76,5.89,1.58,11.28-3.84,17.84-1.09,5.47,2.3,9.46,4.72,10,10.95-2.13,2.89-7.39,2.44-7.76,7.12-.21,2.73-1.58,4.68-4.12,4.39s-3.34-3-3.24-5.31c.32-7.49-6.17-9.06-10.56-12.41-1.63-1.24-3.5-.3-5,.57-2.29,1.31-.83,3.09-.22,4.63,2,4.9,3.75,9.89,6.09,14.6,1.68,3.38,1.16,4.7-2.62,4.55l-3-1.25c-6.9-6.38-6.86-6.36-9.23,1.82-.19.67-1.56,1-2.39,1.5l-3.69-3.23c-.72-7.67-6.53-4.85-10.51-4.68-4.7.21-3.6,3.77-3,6.88.18.83-.52,1.85-.82,2.78v-.19L35,192.55Q33.17,191.25,31.33,190Z"/><path class="b" d="M159.48,88.65c1.13-5-.76-10.15,1.32-15.06a3,3,0,0,0-.73-2.68,2,2,0,0,0-3.18.75c-1.11,3.32-3.39,2.49-5.49,1.67-2.78-1.08-8.28.19-7.54-4.07.7-4.07,2.78-9.45,9.22-9a10.79,10.79,0,0,0,8.23-2.35c-2.75-3-6.12-4.51-9.39-6.16-2.94-1.48-5-3.82-5.38-6.93a10,10,0,0,1,3.25-9c3.45-2.78,5.89.58,8.6,3.07,2.75-5.42-2.13-12.36,4.4-15.91,2.62-.07,5.35-.88,7.65,1.17-.07,2.38-2.29,8.05,3,4.49s7.33-.92,10.51,1.56c0,4.48-2.53,6.67-6.44,8.28-6.57,2.69-10.11,7.32-10,15,.24,14.69-.17,29.39-.31,44.09-1.76-2.71-2.42-6.57-6.85-6.43Z"/><path class="g" d="M69.68,190.61c3.78.15,4.3-1.17,2.62-4.55-2.34-4.71-4.13-9.7-6.09-14.6-.61-1.54-2.07-3.32.22-4.63,1.51-.87,3.38-1.81,5-.57,4.39,3.35,10.88,4.92,10.56,12.41-.1,2.29.65,5,3.24,5.31s3.91-1.66,4.12-4.39c.37-4.68,5.63-4.23,7.76-7.12l4.34,5.05c-1.16,2.95.22,5.45,1.5,7.92,4.34,8.44,2.41,17.9,4.36,26.74.6,2.73-1.49,3.59-3.88,2.41C90.91,208.4,78.35,202.23,69.68,190.61ZM97,189.51c.26,2.26.78,4.36,3.78,5.56,0-3.11-.73-5.09-3.89-5.44.22-2.73-.6-5-3.76-7.8C94,185.74,93.46,188.66,97,189.51Z"/><path class="h" d="M124.65,175.43c3.29,0,6.59-.07,9.87.16,3.09.22,6.64.83,6.95,4.55.44,5.47,3.62,7.72,8.12,9.78,2.4,1.1,6.54,3,4.85,6.67-2,4.37-6.83,5.58-10.05,2.27-6.85-7-11.18,0-16.53,1.85-1.59.54-.88,4.18-3.47,2.68-2.18-1.26.24-3.2,0-4.83q-.6-3.81-1.19-7.6c4-.91,10.76-.23,11-3.8.27-5.18-6.79-3.23-10.34-5.13-.2-.11-.5,0-.75,0Q123.83,178.72,124.65,175.43Z"/><path class="i" d="M103,74.67a18.67,18.67,0,0,0-.17-3c-.48-2.36-2.22-4.87.82-6.75,2.72-1.69,4.69.31,6.89,1.46a29.31,29.31,0,0,0,6.24,2.54c1.31.33,3.78.48,3.75-1.33-.14-7.14,5.66-5.55,9.51-7.08,5.52-2.2,5.27,1.23,5.1,4.81C124.1,77.86,114.63,80.62,103,74.67Z"/><path class="d" d="M367.76,41.33c3.35-.58,4.4,1.09,4.76,4.21.63,5.51,3.43,6.72,9,5.28,6.33-1.64,13-1.84,18.68-5.68l2.59-.6,2.2,1.13c-.41,3.89,1.15,5.09,4.9,3.8,1.54-.53,3.91-1.49,4.41,1s-1.87,3.24-3.76,4c-3.42,1.4-6.9-.12-10.34-.08-12.31.16-24.91,2.79-36.83-2.65a18.66,18.66,0,0,1-2.5-1.69C363,46.8,367.63,45.8,367.76,41.33Z"/><path class="i" d="M135.32,42.63c-2,2.77-4.77,4.22-9.42,4.28s-9.34-.1-13.81,2.54c-3.35,2-6.64-.68-9.71-2.24,6.38-5.78,13.38-8.71,21.94-5C127.9,43.77,131.58,44.32,135.32,42.63Z"/><path class="i" d="M101.33,47.7c0,3.54-3.32,7.18.46,10.62a1.77,1.77,0,0,1-.31,2.68c-1.3,1.07-2.2.31-3.17-.67A6.92,6.92,0,0,0,92.93,58C91.8,51.35,94.48,47.82,101.33,47.7Z"/><path class="j" d="M133.89,91.56c2.75.78,6.14.35,7.21,4.19,1.48,5.32-.86,6.68-8.72,5C132,97.53,132.06,94.4,133.89,91.56Z"/><path class="b" d="M123,182c.25,0,.55-.08.75,0,3.55,1.9,10.61-.05,10.34,5.13-.19,3.57-7,2.89-11,3.8A13.89,13.89,0,0,1,123,182Z"/><path class="f" d="M160.34,91.19c4.43-.14,5.09,3.72,6.85,6.43-.08,2.12-.15,4.24-.23,6.36l-7.37-3.45Z"/><path class="c" d="M310.36,108.2c-.08,7.22.82,14.47-.58,21.65C308.09,122.58,307.2,115.34,310.36,108.2Z"/><path class="c" d="M405,45.67l-2.2-1.13a7.94,7.94,0,0,1,6-3.56c3.34,1,8.9-4.2,9.64.69.7,4.64-6,1.53-9,3.19C408.14,45.54,406.46,45.42,405,45.67Z"/><path class="c" d="M297.42,96.58l7.77,2.68C301.81,100.65,299.24,99.71,297.42,96.58Z"/><path class="j" d="M132.15,102.34c.8.87,2.23,1.71,2.27,2.61.09,1.93-1.87,1.85-3.25,2.21C130.46,105.35,130.57,103.7,132.15,102.34Z"/><path class="c" d="M309.49,143.7c1.27,1.4,1.16,2.94.47,4.55C308.36,146.88,308.08,145.38,309.49,143.7Z"/><path class="c" d="M320.52,223.53c2.21,1.58,1.5,3.73,1.15,5.82C320.14,227.63,320.25,225.6,320.52,223.53Z"/><path class="d" d="M182.88,198.82a1.62,1.62,0,0,1-.82-2.15A1.52,1.52,0,0,1,182.88,198.82Z"/><path class="c" d="M313,174.11a5.79,5.79,0,0,1,.24,1.14c0,.14-.27.3-.42.44Z"/><path class="c" d="M312.68,170.13a7.43,7.43,0,0,1,.6.76c0,.05-.21.25-.32.38A.87.87,0,0,1,312.68,170.13Z"/><path class="h" d="M424.12,355.47c8-1.24,13.71,2.76,18.51,8.4,5.08,6,9.64,12.39,14.88,18.2,6.78,7.5,4.19,17.44,7.33,25.86.21.57-.71,1.84-1.4,2.45-10.48,9.38-19.22,20.09-25.37,32.8-1.24,2.56-3.26,2.35-5.1,1.36-2.54-1.36-1.82-3.32-.16-5,3.42-3.42,6.73-7,10.41-10.08s2.77-6.79-.49-7.86c-4.42-1.44-8.39-5.55-14.24-2.58-5.3,2.7-4.88-3.66-4.09-5,5.12-8.84-1.12-16.39-2-24.53.37-.2.79-.47,1.24-.67,2.67-1.18,5.82,5.42,7.45.36,1.07-3.32-3.85-1.47-5.84-2.63-2.44-1.42-3.4-3.32-4.27-5.89-2-6-5.08-6.52-8.8-1.69-3.1,4-5.3,8.86-11.63,3.33-2.39-2.09-6.35.11-8.91,2.45-2.79,2.55-1.12,5.69.23,7.67,1.73,2.57,3.17,5.77,6.31,7.18a2.82,2.82,0,0,1,1.77,3.67,2.3,2.3,0,0,1-2.84,1.88c-6.19-1.24-12.51.33-18.77-1.28-3.91-1-4.27-5.8-8.68-6.34-.09,8.16-3.58,10.41-10.83,6-2.54-1.56-4.71-.57-4.59,2.6.2,5.35-2.46,6.95-7.38,7.34-4.65.38-6.93,3.85-7.57,8.32s-2.43,6.54-7.67,5.73c-6.38-1-11.3,2.37-13.85,8.27-2.39,5.54-5.27,10.82-7.41,16.56-2.43,6.54-9,8.91-16.36,7.19.19-2.58,2.23-2.35,3.43-2.58,8.35-1.61,6.25-10.65,10.74-15,.23-.23-.18-1.52-.64-2a1.67,1.67,0,0,0-2.61.34c-.8,1-1.26,2.25-2.13,3.14-2.25,2.27-1.67,8.54-5,7.35-4.2-1.51-8.38-5.43-8.41-11.25,7.56-2.72,12.06-7.16,10-16.07-.52-2.32,1-6.43,3.88-4.8,6.17,3.53,10.62-.37,15.73-1.85,7.56-2.19,14.49-4.83,14.15-14.69,0-1.08,1.36-3.23,1.7-3.16,9.49,2.2,13.47-5.3,19-10.32,1.33-1.2,3.83-1.18,5.83-1.56a3.9,3.9,0,0,0,3.56-3.32c1.19-5.25,4.69-8.11,10-8.89a4,4,0,0,0,3.74-3.29c.45-2.45-1.06-3.9-3.06-4.66-3-1.15-6.2-2-9.31-3,1.51-2.35,2.35-4.46-1.06-6.07a27.53,27.53,0,0,1-7.75-5.36c11.34,4.59,22.57,6.61,33.77.59,7.11,4.56,7,4.46-.2,9.84-2.23,1.65-4.13,4.59-3.71,7.07.54,3.29,4.21,2.13,6.47,1.95,6-.49,12.12-.82,17.36-4.53,3-2.13,6.18-3.25,10-1.63,4.2,1.8,5.55-.4,5.24-4.32C424.52,359.51,424.31,357.49,424.12,355.47Zm4.74,20.62c1.44,2.17-2.38,7.39,3.7,7,3-.2,7.62.82,7.47-5.11s-5.42-6.89-8.71-7.95S429.63,373.68,428.86,376.09Z"/><path class="h" d="M542.81,482.16c2.24,1.52,4.82,1.21,7.33,1.44,6.84.61,12.15,6,13.42,13.61-6.2,2.49-11.84,5.55-16.61,10.61-2.28,2.43-5.19.77-4.52-3.39.07-2.3,3.54-3.6,2.2-6.05-.94-1.72-3.56-1.68-4.78-.68-3.32,2.74-5.93,1.16-9.42.17-9.31-2.62-11.48-.46-9.08,7.52-3.64,6.77-3.89,6.88-8.2,1.67-1-1.26-2.31-1.83-3-.83-4,5.38-8.77-.09-13.1,1-2.08.53-3-1.52-3.16-3.45-.27-2.57-.28-5.21,1.26-7.38,2.41-3.4,3-9.26,1.41-10.48-3.31-2.56-8.27-1.26-12,1.47-1.67,1.22-3,3-5.23,1.08-2.73-2.31-.37-3,1.11-4.43.77-.71,1.34-2.81.87-3.49-3.92-5.61-.45-9.94,3.4-15.16-4.66.37-8.06-.55-11.47.77-1.41.55-3.05,1.33-4-.44-.79-1.42,0-2.9.65-4.34,1.48-3.48,5.93-5.79,4.35-11.08-1.22.57-2.11.91-2.93,1.38-1.42.8-2.55,3.18-4.45,1.44-1.43-1.3-.82-3.36-.39-5.09.88-3.59,4.21-6.38,3.55-11.44-4.25,3.55-6,8.53-10.14,11.22-1.24.8-2,2.61-3.31,3-4.65,1.4-10.26,5.85-14,.65s3.58-6.55,5.92-9.54c4.65-6,9.73-11.65,14.95-17.14,2-2.07,3.1-7.31,7.24-4.66s4.55,7.1,1.52,11.38c-.09.46-.19.92-.29,1.37l.21-1.44c7.3,3.46,10.55,10.27,14,16.91,4,7.61,7.91,15.2,11.76,22.85.75,1.49,1.58,2.53,3.3,2.65.48,9.88,4.77,16.31,15.38,17.29,1.94.18,3.82,1.15,5.73,1.76A56.41,56.41,0,0,0,542.81,482.16Z"/><path class="k" d="M364.59,364c3.11,1,6.26,1.83,9.31,3,2,.76,3.51,2.21,3.06,4.66a4,4,0,0,1-3.74,3.29c-5.29.78-8.79,3.64-10,8.89a3.9,3.9,0,0,1-3.56,3.32c-2,.38-4.5.36-5.83,1.56-5.5,5-9.48,12.52-19,10.32-.34-.07-1.73,2.08-1.7,3.16.34,9.86-6.59,12.5-14.15,14.69-5.11,1.48-9.56,5.38-15.73,1.85-2.85-1.63-4.4,2.48-3.88,4.8,2,8.91-2.48,13.35-10,16.07-.79-9.05-1.84-18.09-2.25-27.16-.27-5.73,6.76-3.4,8.76-6.92,5.9-3.22,13.8-3.8,15.89-12.05l2.25,0c.86.89,1.55,1.09,1.88-.41,5.5-3.68,11-7.4,16.53-11a7.91,7.91,0,0,0,3.77-5.27l1.32-1.62.93-1.42c6.22-5.82,13.78-8.32,22.1-8.9Z"/><path class="d" d="M294.89,546c-10.48-1.51-19.92-6-29.74-10.57,6.74,3.49,11.43-2.64,17.2-2.84,1.44-.05,2.76-.78,2.16-2.29-2.86-7.24,3-7,7-8.7,8.55-3.49,16.53-8.56,26.2-8.77,1.36,0,2.46-1.35,4.08.05,6.71,5.76,13.92,5.3,21.37,1.39a14.26,14.26,0,0,1,5.09-1.45c1.66-.17,3.89-.81,4.88,1,1.09,2-1,3.13-2.18,4.36-1.87,1.95-4.76,3.1-5,7.58,3.21-2.33,6.49-3.78,8.37-6.27,3.08-4.08,8.12-2.08,11.36-4.55a48.66,48.66,0,0,0,11.94-13.78c1-1.6,2.57-2.87,4.43-1.58,1.71,1.19.62,2.86-.35,4-13.55,15.18-26.77,30.7-43.34,42.82-.8.59-1.77,1.09-2.72.14.17-1.79-.31-3.31-2.43-2.53-11.44,4.22-22.05.58-32.49-3.54-3.61-1.42-6.59-1.85-9.74.86Zm20.21-8.76c2.52,0,5.06.08,7.58,0,1.49-.06,3.22-.27,3.47-2.18.21-1.56-1.22-1.83-2.36-2.42-4-2.06-7.35-6.76-12.77-2.15-1.59,1.36-3.5-1.37-5.32-2-1.58-.57-2.87-5-5.07-.95-1.6,2.91-1.62,5.9,1.89,7.74C306.48,537.26,310.77,537.38,315.1,537.22Z"/><path class="h" d="M235.45,352.82c.07-1-.24-2.33.28-2.95,1.45-1.7,1.9.2,2.64,1,6,6.73,12.46,12.88,21.67,15.22,5.61,1.43,11.91,11.18,13.28,16.73,2.39,9.68.38,18-5.34,25.67-2.16,2.91-4.46,6.15-8.69,3.59s-3.49-5.65-.5-8.82a5.92,5.92,0,0,0,1.19-7c-10.46,5.39-14.85,4-20.05-6.85-1.74-3.63-2.19-5.9-7.51-3.59-7.62,3.31-7.95-5.61-7.67-8.35.66-6.58-1.85-11.76-3.71-17.47-.93-2.82-3.18-6.18.42-9.1,3.85-3.12,6.44-.64,9.27,1.67.93.76,2.32,1,3.5,1.41.41.23,1,.78,1.19.66C236.25,354.15,236,353.45,235.45,352.82ZM258.11,375c-7.79,7.38-8.37,8.7-6.3,14.49C254.51,384.9,257.69,381,258.11,375Z"/><path class="d" d="M333.19,509c-8.77,0-13.72-6.65-19.82-11.33-1.2-.92-1.69-2.09-.83-3.22a3.06,3.06,0,0,1,2.65-.72c2,.59,4.62,1.43,5.67-.48,4.75-8.56,14.73-6.21,21.53-10.65,4.21-2.75,9.64-5.46,15.13,0,2.75,2.74,8.28-.33,11.8,3.78,4.36,5.08,4.48,10.42-1.56,12.69-9.48,3.57-18.63,8.4-29,9.22-1-4.86-.18-9.69,1.09-15.41-2.85,1.79-4.58,3.3-6.59,4.06-7.29,2.72-5.55,6.17-1.11,10.08A6.3,6.3,0,0,1,333.19,509Zm18.39-10.46-10.2-2.85C343.4,502.41,346.17,502.64,351.58,498.51Z"/><path class="d" d="M334.07,348.38l3.54.73c3.67,2.8,8.53-.61,12.09,2.45-3.64,4.54-1.14,11.06,5,12.16,1.95.34,4,.11,5.83,1.12-8.32.58-15.88,3.08-22.1,8.9a59.43,59.43,0,0,0-27.08-11.91c-8-1.32-12.64-10.27-9.39-16.54l26.34,3,4.39.15.68.09Z"/><path class="k" d="M424.12,355.47c.19,2,.4,4,.55,6.06.31,3.92-1,6.12-5.24,4.32-3.78-1.62-7-.5-10,1.63-5.24,3.71-11.35,4-17.36,4.53-2.26.18-5.93,1.34-6.47-1.95-.42-2.48,1.48-5.42,3.71-7.07,7.23-5.38,7.31-5.28.2-9.84C401.56,346.81,413.18,346,424.12,355.47Z"/><path class="d" d="M421.5,548.23a46.2,46.2,0,0,0-2.92-3.77c-4.24-4.36-7.35-3.6-9.11,2.17-2.75,9.09-6.57,10.31-13.78,4.27-4.25-3.56-8.49-7.16-11-12.31-.69-1.45-3.1-2.58-1.4-4.54a4.71,4.71,0,0,1,6.27-.89c3.09,2.07,5.77,2.85,8.87.22,3.47-3,.9-5.29-.5-7.92a2.78,2.78,0,0,1,1.11-4c1.84-1,4.25-.08,4.78,1.17,3.51,8.24,8.45,14.79,17.17,18.23C422.35,541.43,423.25,544.8,421.5,548.23Z"/><path class="h" d="M217.26,301.06c4.26,4.56,8.74,8.95,12.69,13.77,1.6,1.95,3.27,4.49,2.28,7.51-3.68-3.65-7.33-7.3-11-10.92-1.9-1.86-4.27-3.5-6.73-1.71-2.71,2-.27,4,.79,5.87,2.17,3.89,4.28,7.82,6.64,12.15-8.16.1-12-5.26-12.34-11.22-.43-8.55-4.55-14.85-8.75-21.47-2.33-3.66-4.47-7.39-4.49-11.92l.31-.25c4,.16,5.83,5.36,10.3,4.4C207.42,294.08,213.28,296.86,217.26,301.06Z"/><path class="g" d="M113.35,259.13c-1.16,6-5,8.38-9.08,10.15-8.8,3.78-18.08,4.82-27.58,4.25-2.07-.12-4.28-.23-5-2.64-.77-2.75,1.16-4.34,3.23-5.37,8.26-4.12,16.47-8.4,26.18-4.1C105.07,263.16,108.82,260.19,113.35,259.13Z"/><path class="d" d="M239.21,491.32c14.15-4,28.26-4.05,41.85.66a198.37,198.37,0,0,0,21.1,5.63c2.26.52,4.56.84,6.22,2.55a3.5,3.5,0,0,1,.9,2.66c-.38,1.7-1.85,1.19-3.1,1-2.52-.32-5.3,0-7.53-.92-18.42-7.86-38.39-7.15-57.56-10.75A8.56,8.56,0,0,1,239.21,491.32Z"/><path class="h" d="M311.78,393.45c-2.09,8.25-10,8.83-15.89,12.05,0-4.74-3.51-6.64-7.15-7.78-2.91-.91-4,1.33-3.77,6-3.08-9.69-7.92-16.95-4.42-27.19,1.38,5.53,3.95,9.31,7.86,11.35s8.35,1.22,12.61,0C306.15,386.54,308.79,390.44,311.78,393.45Z"/><path class="j" d="M160.34,91.19l-.75,9.34q3,14.35,6,28.71a7.19,7.19,0,0,0-2.8,5.14l-2.9-.37c-7.22-5.89-3.48-14.59-5.52-21.82-1-3.55-1-7.15-3.49-10.46-2-2.65-3.18-6.62-.7-10,2.25-3,5.35-4.58,9.28-3.12Z"/><path class="h" d="M158.55,207.51c6.24,1.76,11.23-2.64,17-3.24,1.68-.17,3.56-1.49,4.84.45.93,1.39-.05,2.89-.6,4.31-2.26,5.82-7,9.24-12.12,12.05-3.57,2-17.83-7.65-16.84-11.35C151.93,205.56,156,208.46,158.55,207.51Z"/><path class="c" d="M294.89,546,291,541.3c3.15-2.71,6.13-2.28,9.74-.86,10.44,4.12,21.05,7.76,32.49,3.54,2.12-.78,2.6.74,2.43,2.53-5.51,4-10.93,7.8-18.39,4.61-1.48-.63-3.75.58-5.66.94L310,550.84l-.13-.05c-.87-3.25-2.76-2.69-4.88-1.32a2.27,2.27,0,0,1-1-.27c-2-2.83-5-3.12-8.12-2.88A2.31,2.31,0,0,1,294.89,546Z"/><path class="d" d="M368.66,565.54c-2.79-1.14-2.08-2.9-1.69-4.62,1.33-5.71,6.28-9.76,7.14-15.74a2,2,0,0,1,3-1.29c2.32,1.9,6.17,1.35,7.51,4.46,1.57,3.61-3.19,12.63-7.06,12.95S370.83,562.69,368.66,565.54Z"/><path class="h" d="M168,246.38c2.85.18,5.85.34,8.33-2,1.05-1,2.45-2.58,3.79-1.23.85.85,1.07,2.91.76,4.24-1,4.49-.45,10.2-6.46,11.69-5.66,1.4-7.94-3.32-10.47-7-1-1.5-2.94-3.21-1.57-5.41C163.86,244.21,165.91,246,168,246.38Z"/><path class="h" d="M187,333.48c-.18.61,2.05,4.72-1.7,5.21-3.13.41-4-3.28-4.33-6.15-.52-5.12-2.57-9.7-4.78-14.25-1.36-2.79-1.53-5.85,1.73-7.13s5.36,1.4,6,4.2C185.15,320.76,188.14,325.81,187,333.48Z"/><path class="h" d="M286.16,446.08c-1.22,2.1.43,7.82-4,5.82-3.33-1.49-9.95,2.11-9.78-3.85.13-4.54,1.75-11.43,7.53-11.91C284.91,435.73,285.82,441.38,286.16,446.08Z"/><path class="k" d="M521.35,505.39c-2.4-8-.23-10.14,9.08-7.52,3.49,1,6.1,2.57,9.42-.17,1.22-1,3.84-1,4.78.68,1.34,2.45-2.13,3.75-2.2,6.05C535.53,507.41,528.3,503.32,521.35,505.39Z"/><path class="h" d="M217.26,301.06c-4-4.2-9.84-7-10.33-13.79a3.74,3.74,0,0,1,.18-1.15l1.6-1.52C216,286,219.66,291.79,224,296.86,224.11,302.07,220.57,301.39,217.26,301.06Z"/><path class="d" d="M366.32,106.22H332.11C343.47,101.24,354.94,102.4,366.32,106.22Z"/><path class="d" d="M430,44.69c1.37-1.54,2.85-2.85,5.14-2.39.37,7.83,6.82,12.14,10.54,18,1.81,2.86,4.5,5.19,4.54,9.22C442.45,62,435.21,54.2,430,44.69Z"/><path class="c" d="M333.19,509a6.3,6.3,0,0,0-1-2c-4.44-3.91-6.18-7.36,1.11-10.08,2-.76,3.74-2.27,6.59-4.06-1.27,5.72-2.08,10.55-1.09,15.41A8.12,8.12,0,0,1,333.19,509Z"/><path class="d" d="M492.26,314.74c7.66.74,11.23,7.39,16.57,11.48-8.13-.09-14.62-4.77-22-7.17C487.87,315.89,491.52,317.33,492.26,314.74Z"/><path class="d" d="M436.87,143.62c-.16-5,2.59-9.14,4.52-13.41,1.44-3.16,4.15-5.85,8.93-3.39-3.14,6.8-7.89,12.11-13.42,16.83Z"/><path class="c" d="M96.06,325.55c-9.4.35-12.37-3.28-9.66-11.31,1.13-3.34,2.79-1.65,4.25-.26a6,6,0,0,1,1.16,1.92C93.23,319.06,94.61,322.23,96.06,325.55Z"/><path class="d" d="M280.93,337.3c-.12-5.41,7.07-14,12-13.61,5.66.47,2.19,4.06,1.66,6.56-.87.33-1.77.63-1.6,1.86l.16-.05A17.69,17.69,0,0,0,280.93,337.3Z"/><path class="d" d="M328.91,562.51c-1-1.75-.32-4.25-2.42-5.52,2.48-1.62,5.05-3.14,7.44-4.9,2-1.51,3.81-1,5.56.27,2,1.4,1.84,3.48,1.39,5.51s-1.26,4.44-3.79,3.78C334.1,560.88,331.68,562.85,328.91,562.51Z"/><path class="h" d="M116.59,295.45c0-4.88,1.08-9.19,3.85-12.88.87-1.15,1.89-2.6,3.69-1.72,1.55.76,1.61,2.25,1.66,3.85C126,291,119.92,292,116.59,295.45Z"/><path class="h" d="M143.31,211.05c-7.42,3-11.45,1.46-14.36-5.38C134.31,206.11,138.12,208.13,143.31,211.05Z"/><path class="h" d="M127.23,254.24c2.81,1.12,4.54,3.06,4.74,6.09.09,1.41-.79,2.59-2.23,2.19A6.12,6.12,0,0,1,125,257.4C124.8,255.87,125.25,254.45,127.23,254.24Z"/><path class="h" d="M130.26,215.22c-.47,3.1-2.74,3.48-4.47,4.08-2.79,1-3.33-1.51-3.87-3.35-.46-1.56,0-3.58,1.83-3.32C126,213,128.17,214.34,130.26,215.22Z"/><path class="h" d="M282.87,432.52c-8.14-4.79.85-11.24-2.14-16.55a32,32,0,0,1,3.55,15.08Z"/><path class="d" d="M407,397.81c-1.13-.37-3.46.16-2.79-2.25s3-3.37,5.28-3.77c1.52-.27,2.54.6,2.31,2.12C411.42,396.46,410,398.07,407,397.81Z"/><path class="h" d="M196.32,283.12c-2.48-1.19-3.61-3.67-2.34-5.63,1.85-2.88,4.28.1,6.61.24-.23,2.82-4.3,2.26-4,5.14Z"/><path class="h" d="M275.6,416c-.07,4,1.75,8.35-2.77,12.07C272.16,423.25,274.87,419.82,275.6,416Z"/><path class="f" d="M162.81,134.38a7.19,7.19,0,0,1,2.8-5.14c1.78,1.08,2.24,2.73,1.19,4.38C165.91,135,164.3,135,162.81,134.38Z"/><path class="d" d="M295.84,546.32c3.13-.24,6.08,0,8.12,2.88A10.32,10.32,0,0,1,295.84,546.32Z"/><path class="d" d="M305,549.47c2.12-1.37,4-1.93,4.88,1.32A5.26,5.26,0,0,1,305,549.47Z"/><path class="d" d="M208.71,284.6l-1.6,1.52c-1.93-1-1.54-2.86-1.56-4.55l.17-.17Z"/><path class="d" d="M284.28,431.05c.8.9,1.53,2.07.35,2.88-.79.54-1.48-.53-1.76-1.42Z"/><path class="l" d="M494.33,543.83l2.12.27-1.05,1Z"/><path class="d" d="M337.53,375.16l-1.32,1.62C336.11,375.8,336.47,375.2,337.53,375.16Z"/><path class="d" d="M315.91,393.07c-.33,1.5-1,1.3-1.88.41Z"/><path class="d" d="M310,550.84l1.66,1.22Z"/><path class="d" d="M205.55,281.57l-1.07-.55c.75-1,1-.25,1.24.38Z"/><path class="d" d="M436.9,143.65a2.3,2.3,0,0,1-.28.54c-.08.08-.29,0-.44,0l.69-.6Z"/><path class="b" d="M272.94,562.38c3.6.79,7.3-.09,11,1.13,2.91,1,4.39,2.08,3.67,5.2l-1,1.58c-2,.29-3.11,1.33-3.17,3.39-1.92.6-3.85,1.16-5.76,1.8-2.91,1-6.39,2.59-6.94-2.24C270.26,569.57,264.91,564.41,272.94,562.38Z"/><path class="d" d="M238.67,581.24c2.78-4.91,5.36-7.92,8.87-9.89a5.38,5.38,0,0,1,6.36.43c1.49,1.31,1.31,3.18.85,4.92a4.45,4.45,0,0,1-4.38,3.46C246.94,580.45,243.52,580.79,238.67,581.24Z"/><path class="d" d="M283.38,573.68c.06-2.06,1.21-3.1,3.17-3.39C286.7,572.55,285.7,573.74,283.38,573.68Z"/><path class="b" d="M31.33,190q1.85,1.29,3.67,2.6c-.65,2.24.71,2,2.11,1.69v.19c-.94,2.57,6.16,5.12.81,7-5.08,1.77-9.47-2.29-11.65-6.51C24,190.41,28.48,190.49,31.33,190Z"/><path class="b" d="M51.41,189.45l3.69,3.23L59.67,203c-5.8-2.49-7.65-7.27-10.62-10.82C47.49,190.34,50.29,190.15,51.41,189.45Z"/><path class="b" d="M44.46,205.31c-.58-.46-1.08-1-.17-1.53.16-.1.7.41,1.06.63Z"/><path class="k" d="M151.17,154.29c-2-2.31,6-4.83-.73-6.17-2.75-.54-5.42-.77-8.1-3.58,6.28-1.41,11.83-5.22,17.35,0,2,1.88,3.69,5.42,2.29,7.5C159.32,156,154.62,153.73,151.17,154.29Z"/><path class="b" d="M143.45,158.34l-1.76.31a5.47,5.47,0,0,1-.08-1,1,1,0,0,1,.66-.06A8.37,8.37,0,0,1,143.45,158.34Z"/><path class="b" d="M148.51,157.49l-.81.86a4.52,4.52,0,0,1-.56-.86c0-.1.3-.48.39-.46A5.07,5.07,0,0,1,148.51,157.49Z"/><path class="d" d="M37.11,194.24c-1.4.3-2.76.55-2.11-1.69Z"/><path class="b" d="M97,189.51c-3.55-.85-3-3.77-3.87-7.68,3.16,2.84,4,5.07,3.76,7.8Z"/><path class="b" d="M96.9,189.63c3.16.35,3.87,2.33,3.89,5.44-3-1.2-3.52-3.3-3.78-5.56Z"/><path class="b" d="M293,332.11c-.17-1.23.73-1.53,1.6-1.86A1.74,1.74,0,0,1,293,332.11Z"/><path class="b" d="M428.86,376.09c.77-2.41-.71-7.1,2.46-6.08s8.57,2.07,8.71,7.95-4.46,4.91-7.47,5.11C426.48,383.48,430.3,378.26,428.86,376.09Z"/><path class="b" d="M472,431.41l-.21,1.44c.1-.45.2-.91.29-1.37Z"/><path class="c" d="M315.1,537.22c-4.33.16-8.62,0-12.58-2-3.51-1.84-3.49-4.83-1.89-7.74,2.2-4,3.49.38,5.07.95,1.82.66,3.73,3.39,5.32,2,5.42-4.61,8.74.09,12.77,2.15,1.14.59,2.57.86,2.36,2.42-.25,1.91-2,2.12-3.47,2.18C320.16,537.3,317.62,537.22,315.1,537.22Z"/><path class="l" d="M334.07,348.38l-.67.16-.68-.09Z"/><path class="b" d="M258.11,375c-.42,6-3.6,9.88-6.3,14.49C249.74,383.72,250.32,382.4,258.11,375Z"/><path class="b" d="M235.45,352.82c.57.63.8,1.33,0,1.83-.19.12-.78-.43-1.19-.66Z"/><path class="c" d="M351.58,498.51c-5.41,4.13-8.18,3.9-10.2-2.85Z"/><path class="m" d="M94.37,35.68C87.57,22.4,101.28,2.32,104.9,3.33c3,.84.93,17.13,2.3,17.23s1.69-14.51,6.12-15.32c2.5-.45,5.88,3.55,7.08,7.47C124.18,25,108.54,43.28,99.92,41.23,96.84,40.49,95.2,37.29,94.37,35.68Z"/><path class="m" d="M128.06,28.59c-1.48.36-2.16,5.29-1,5.94.87.46,3.49-.87,3.45-3.06C130.52,29.8,129,28.38,128.06,28.59Z"/><path class="m" d="M126.34,7.35c-1.76-.16-6.34,13.27-3.26,15.12,2.87,1.72,11.72-6.93,10.72-8.8-.43-.81-2.38.18-4.4-1.15C126.85,10.83,127.21,7.43,126.34,7.35Z"/></svg>