<svg xmlns="http://www.w3.org/2000/svg" viewBox="0 0 1920 43.5"><defs><style>.a{fill:#eb743c;}</style></defs><title>LineBar</title><polygon class="a" points="1898.38 16.51 1902.57 15.46 1895.11 17.05 1898.38 16.51"/><path class="a" d="M1879.66,16.69c3.1-.87-4.25-1.47-1-2a90.23,90.23,0,0,0-13.33,1.58A65.19,65.19,0,0,1,1879.66,16.69Z"/><path class="a" d="M1858.79,17.24c2.08-.21,4.23-.58,6.57-1A50.81,50.81,0,0,0,1858.79,17.24Z"/><path class="a" d="M1909.37,18.92c-.57-.27-1.67-1-5.81-1.3l2.9,1.28Z"/><path class="a" d="M1906.56,18.94l-.1,0-6.28-.07Z"/><path class="a" d="M1910.1,18.93h-.73A.67.67,0,0,0,1910.1,18.93Z"/><path class="a" d="M1913.71,20.53l7.85.29c-.15-.34-1.57-.83.58-1.19Z"/><polygon class="a" points="1909.87 20.94 1913.71 20.53 1910.8 20.42 1909.87 20.94"/><path class="a" d="M1872.24,18.44a82.13,82.13,0,0,1-11.29.7c4.49.25,9.13.39,13.54.38C1875.11,19.12,1877.05,18.4,1872.24,18.44Z"/><path class="a" d="M1888.92,18.8l-.76.07C1888.63,19,1889,19,1888.92,18.8Z"/><path class="a" d="M1819.71,19.13c.23.07.43.16.66.23.06-.07.09-.15.16-.22Z"/><path class="a" d="M1875.24,19.76a24.11,24.11,0,0,0,7.31-.46c-2.52.13-5.19.21-8.06.22C1874.21,19.7,1874.16,19.82,1875.24,19.76Z"/><path class="a" d="M1847.29,17.84c1.76.27,3.75.5,5.84.71C1851.41,18.14,1847.91,17.51,1847.29,17.84Z"/><path class="a" d="M1887,18.52c.17,0,.32-.05.5-.06C1886.43,18.19,1886.56,18.32,1887,18.52Z"/><path class="a" d="M1887,18.52a42.91,42.91,0,0,0-4.48.78c2.06-.1,4-.24,5.61-.43A7.6,7.6,0,0,1,1887,18.52Z"/><path class="a" d="M1807.22,27.36c.59-1.19,9.46-2.29,17.12-1,7.54-.89,2.61-4.79-4-7-.23.52-.23,1-8,1.7,2.72.65,17.21,1.52,10.67,2.59-10.27.61-8.42-.42-13.41-1,4.24,1.47-13.07,2.15-10.84,4.33l9-.77C1808,26.51,1804.72,27.05,1807.22,27.36Z"/><path class="a" d="M1835.15,19.48l3.19-.15a74.34,74.34,0,0,1-11-1.61c-5.31.58-6.41,1-6.77,1.42l15.71.16Z"/><path class="a" d="M1852.67,19.33c-2.49,1.29-10.16,1.84-5.46,3.24,9.36-.09,6.56-1.08,12.15-1.64-15.11.32,4.35-.72-6.57-1.45,3-.22,5.64-.29,8.16-.34-2.72-.16-5.35-.35-7.82-.59l.35.08h.07s0,0,0,0c.65.16.86.26.13.17a2.69,2.69,0,0,1-.32,0,1.75,1.75,0,0,1-.68.48c-4.38-.26-.69-.33.68-.48.05-.07.17-.13.19-.2h-.06l-15.14.7C1841.54,19.52,1845.56,19.48,1852.67,19.33Z"/><path class="a" d="M1922.41,25a17.44,17.44,0,0,1,5.6-.56c3.1.39,0,.62.14,1.05,2.16-.35,7.55-.93.79-1.56l-1.07.17c-6.1-.44-13.93-2.05-12.86-2.23A23,23,0,0,0,1922.41,25Z"/><path class="a" d="M1887.1,22.51l-12.6.64,6.42,1.11-.33-.67C1887.76,23.86,1886.21,23,1887.1,22.51Z"/><polygon class="a" points="1818.27 18.48 1819.94 17.12 1812.66 19.05 1818.27 18.48"/><polygon class="a" points="1801.89 18.65 1802.49 17.46 1798.17 18.18 1801.89 18.65"/><path class="a" d="M877.43,33.38l-3.71.34C875.48,33.61,876.6,33.5,877.43,33.38Z"/><path class="a" d="M904.25,33.46l.65-.59C903.66,33.2,903.15,33.43,904.25,33.46Z"/><path class="a" d="M1399.54,18.78c-5.39-1.11-11.42-2.83-10.77-1.49l1.66,1.3A51,51,0,0,1,1399.54,18.78Z"/><path class="a" d="M1124,26.55l1.57.4c1.32-.45,2.55-.86,3.65-1.25C1127.65,26,1125.87,26.25,1124,26.55Z"/><path class="a" d="M1120.19,31.94l-7.11-.84C1114.68,31.39,1117,31.67,1120.19,31.94Z"/><path class="a" d="M731,34.76l-4.33,1.32C733.41,36.08,730.43,35.41,731,34.76Z"/><path class="a" d="M1634.1,19.13c-4.65-.51-8.36-.72-11.62-.79C1628.09,19.09,1632.62,20.21,1634.1,19.13Z"/><path class="a" d="M888,19.57c-2.27.23-3.23.5-3.17.79C887.15,20.14,888.47,19.89,888,19.57Z"/><path class="a" d="M1609,18.35c.82.13,1.62.19,2.46.3,3.4-.22,6.83-.39,11-.31A41.5,41.5,0,0,0,1609,18.35Z"/><path class="a" d="M199.78,33.68c-.38-.06-.85-.09-1.2-.16C198.46,33.7,199,33.71,199.78,33.68Z"/><path class="a" d="M45,20.55c1.53-.08,4-.09,6.36-.1A53.47,53.47,0,0,0,45,20.55Z"/><path class="a" d="M1736,18.08c3.48-.08.55-.14,0,0Z"/><path class="a" d="M1752.87,23.23c-.74.14-1.3.33-1.39.63A2.54,2.54,0,0,1,1752.87,23.23Z"/><path class="a" d="M1574.43,26.45h-.3C1575.16,26.7,1575,26.65,1574.43,26.45Z"/><path class="a" d="M1741.2,18.67c-1.3-.16-2.81-.29-4.44-.38C1737.47,18.39,1738.82,18.51,1741.2,18.67Z"/><path class="a" d="M1740.5,18.06c1.19.06,2.14.09,3,.12C1744,18,1743.58,17.83,1740.5,18.06Z"/><path class="a" d="M1731.13,18.15c2,0,3.84,0,5.63.14-.69-.09-1-.16-.79-.21C1735,18.1,1733.52,18.13,1731.13,18.15Z"/><path class="a" d="M484.39,30.2l-.74-.12C480.14,30.61,481.68,30.53,484.39,30.2Z"/><path class="a" d="M1309.12,32.3c.16,0,.24,0,.39-.06l-.51-.05Z"/><path class="a" d="M1296.64,33.27A28,28,0,0,1,1309,32.19l-4.13-3.75Z"/><path class="a" d="M813.22,33.75,822,34.93c-10.58,1.92-18.23,1.26-10,2.9,1.24-4.08,34.06-.42,35.28-4.49l5.78.86c-1.66,0-1.92.2-3.56.16,11.24,2,8.35-2.95,22.82-2.37,5.05.31,8.57.9,5.13,1.39l11.24-1c3.27.08,2.47.79-.78.71L905,32.76l-.13.11c2.45-.63,8-1.62,10.7-2,4.36.58-2.18.43-1.07.94l9.49-1c3.87,1.06-4,2.08-10.55,1.93,8.86,4.07,7.87-1,27,1.35l-9,.52c5.78,2.31,12.78,1.47,22.91,2.91-2.4-.75-20.29-3.63-10-4.64a47.3,47.3,0,0,0,12.28-.37c.06,1.45,5.48,1.09,12.28,1l-.47,1.92c7.34-.55,6.76-1.53,11.08-2.39,8.19.18,9.88,1.67,11.81,2.92,13.11.31-9-2.38,6.46-2.74,10.9.73,18.56-.05,31.59-1.2,7.63.66-1.33,1.17,1.41,1.72l6.76-1.53c1.65,0,1.12.51.85.75,5.7-.6.47-1.92,9.43-2.44,2.41-2.12,18.38,3.08,29.47.69,2.73.54-1.32,1.17-.48,1.92,15.21-1.58,13-1.15,25.53-3.27l10.64,1.26c-7.82-1.44,2.17-3.15,10.92-4.55-2.78-.69-5.15-1.3-6.74-1.59l14-1c1.68.31.28,1-2,1.77,1-.15,1.85-.31,2.56-.46,5,.71,2.4,1.82-1.18,2.89-1.7-.38-3.38-.78-5-1.18-3.44,1.16-6.67,2.46-6,3.58a30.77,30.77,0,0,1,4.58-.52c-.91.32-1.48.6-1.06.79s1.93-.22,4.21-.71l3.17,2.14.77-.85,18.27,1.34c13.07-2.16,24.44-5.33,45.18-6.21-5.14,1.57-1.1,2.56-1.38,4.42-5.66-2-16.07.84-26.82.44,5.61.21,4.38,1.09,3,1.4L1188.66,31c-.43,1.52,4.07,1.14,9.08,1.77-3.78-3,14.3-2,22.1-2.92.48,1-1.39,2-10.91,1.79,10.5,2.26,13.57-3.53,23.88-1.6-2.32,0-3.58-.14-4.49.38,5.42-.9,18.7-.19,15.57.69l-2.32,0c15.44.36,47,0,49.28-2.53.15.33-2,3.08-3,3.59l27.53-8.58c-2.42,2.19,6.89,7.41-5.91,8.65a77.88,77.88,0,0,0,16-.1c-2.51-.31-6.25-3.17-2.82-3.37,9.4,2.44,6.52,1.31,18.11,3.38-3.76-.46.42-3.9,6.35-3.79-.92.51.5,3.39-1.67,3.75l14.77-3.38c-3.68.61-.65,2.86,2.66,3.82-1.54-.66,12.77.06,16.71-.27l-6.26-.79c16.68.51,16.48-4.74,33-4.56-2,.69-4.95,4.28,3.47,4.71,3.86-1.73,17.08-8.31,31.72-9.64l2.81,1,11.24-1.13c-7,2.6-26.63,8.07-37.35,10.2,6.24.78,1.73,1.17,11.08,1.07,3.31.93-5.09,1.41-7.84,1.46l21.77.6c-1-2,16.64-2,15.81-3.7l-23.64,2.09c-1-2,13.67-5.72,29.09-5.37,3.93.8-2.93,3.59-2.61,4.26,2-.69,14.64-1.32,16.06-.83l-6.55,1.08c8.59.76,14-2.68,24.33-.75,3.57.13,10.64,2.59,11.25,1.4-5.8-2.3-6.94-9.42-3.07-11.15,1.25.16,18.7,2.2,22.77,3.34,5.86,1.81-8.8,4.3-3.81,5.85.21-.55,3.45-1.23,4.8-1.45,3.74.47-1.55,1.71,6.58,1.46,1.36-2,16.53.17,3.84-1.73,8-.58,8.45.42,17.79.33-3-1.32,8.38-4.49,16.34-5.08-.47.52,1.32,1.2,2.19,1.51,16.3.18,25,1.11,40.24,1.13,1.4.49,8.73,1.09,5.61,2a41.6,41.6,0,0,1,8.88-1.1c9.07,1.77-10.45.27-3.54,2.4.59-1.19,12.13-1.64,18.8-2.38-2.05-1.84-15.42-.36-22.11.39,0-2.53,11.61-5.19,27.49-6.36,12.62-.63,5.47,1.64,7.66,1.28,23.71.44,20.2-4.42,39.89-2.59,7.81,1.61.35,3.2,2.09,4.37-10.29.61-15.79-1-22.76-1l8.58.76a63.37,63.37,0,0,1-13.87.48c6.54,1.45,40,.27,58.35,1.61,3.25-.54,8.86-1.1,6.2-1.75l-5.79.23c-5.32-1.3,10.9-1.8,3.57-2.41,7.76-.91,16.47-2.35,27.4-1.61l2.05,1.84c-.23-.54-7.14-1.1-10.22-.54,4.56-.82,16.76,2.49,21.76.08L1767,22c7.8-.93,17.44-2.88,27.12-2.3-4.41-1.82-2.23.21-9.11-1.92,6,2.65-24.78-.11-15.2,2.67-7.06-2.47-12.22-1-21.46-3.15.29.61,3.27,1.16-4.86.86a12.3,12.3,0,0,1-1.78.54l-.55,0,.45.07c-.35.1-.39.12.17,0a16.46,16.46,0,0,1,4.14.92c-4,1.39-17,1.35-21.34,2.07-4.83-.29,2-.7-.62-1.34l-6.53,1.08c-.65-1.35-12.82-2.24-1.45-3l-10.23-.06a96.41,96.41,0,0,0-19.42-.49c-4.83-.29-12.19,1.49-8,.44l-16,.83-.15-.33c-15.83-.18-32.59,2.23-50.69-.21a162.16,162.16,0,0,1-19.76.38L1590,17.86c-6.85.41-20.55-1.17-23.5.05-7.38-3.14-33.21-.69-45.24-1.24l-.46,1.52c-8.28-.08-16.22.35-26.51,1l.63,1.34c-8.86,1.11-22.79-.95-36.81-.82,1-.51,4.51-.38,7-.06-16.76-3.05-35.35,2.2-50.55,0a34.07,34.07,0,0,1-9.18,0,8.23,8.23,0,0,0,.94-.07c-.39,0-1,0-1.56,0-1.67-.23-3.39-.5-5.26-.72a40.88,40.88,0,0,0,4.43.72c-2.92,0-7.35.2-11.69.54l-1.85-1.45-1,0c-4.26-.53-3.43.69-1.16,1.77-2.18.24-4.18.53-5.74.87-3.46-2.33-11.39.79-16.11-1.7-2.93,1.21-21.82.91-24.14,3.47-.15-.34-1.42-.49.92-.52-4.84-.29-9.68-.58-14,.14l-2-1.83-10.57,2.47c-6.42-1.12-9.08-1.78-2.71-3.19-15.39,2.18-12.49.82-25.58,3l.64-1.18c-4.68,0-12.16,1.64-15,.65-10.47-2.25-51.79-.31-78.66-2.41,5.21,3.5-12.49-1.56-13.55,1.15-1.57-.83-5.31-1.3-1-2-13.71.81-20.6-1.31-30.07,1-1.57-.83,2.94-1.21,1.54-1.71-1.1.18-4.36.72-5.78.23s2-.69,4.17-1.06c-14,.14-15.42,2.69-16.44,5.08-7.1-1.13-10.64-1-15.76.6-2.48-.78-6.6-1.6,2.11-1.88-4.9-.12-29.91-1.15-30.41.77-1.54-.49-6.85-.14-8.14.08-11-.12-12-.29-22.74-.11l3,.31c-4.26,2.32-9,.52-17.66.8l.25-.24c-20-1.67-8.61.8-28.29-1.1l1.07,1.44c-1.83,3.09-17.43-1.83-28.85-.65l4.12.83c-6.23,1.06-17.43-4.21-23.69-4.6-1.37-.27,2.15-.43,4.06-.63-16.4-1.83-2.12,1.89-14.34,2.32-2.26-1,2.9-2.58-5.32-2.77-4.1-.82-23.86,3.3-35.08,1.35,2.48.78,4.93,1.56-.74,2.15-8.7.28-23.52-3-31.38-.49-1.1-.21-1.52-.42-1.57-.61-6.65.64-21.61,1.06-25.61,2.4-6.15-5-41.34,2.41-41.19-2.17l-20.46.24.54-.46c-13.08-.31-17.7.79-22.3,1.89-3-.31-.81-.74-.56-1-19.1-.92-21-.73-37,1.56l-1.67-1.49c-4.34.86-27.61-2.33-46.35-.6.18-.17.57-.45,2.06-.67-21.08,1.75-50.47-4.12-58.19,1.3l-13.91,1.33c18,.42-2.68,2.35,4.72,3.25-7.08.32-18.3-1.63-9.6-1.91l1.36.27c3.2-2.82-22.36-1-21.88-2.92-35.41.14-69.93-1.43-103.1-1.55l3.82,2.2-11.57-.13c-3-.51-4.08-1.72,4.18-1.62-4.34-1.25-13.85,1-14.08,1.51-16.17-.88,6.31-2.55,1.35-2.61l-6.73.17,1.52.25c-5.46.9-5.94,1.85-15.86,1.74-6.28-.44-3.22-1.35-5.69-1.43,0-.16-.82-.24-3.79-.07l-14.58-.19,5.83,1.74c-6.46.85-13.71-.1-7,1.87-9.88-3-54.38-1.09-60.45-2-9.05,1.27-18,1.24-29.05,1.09,2.75.36,4.4,2.31-5.14,2.07,3.49-4-17.48-1.74-25.19-4.64,6.89,1.92-27.14.48-16.32,3.2-8-.33-.49-1.5-6.53-2.45-18.95,1.56-41.77-1-65.2-.49-.37.53,3.56,1.34-1.47,2.12l-12.37-2.63c-4.63.25-4.26,3-12.71,1.21,1.19.44,3,1.11-.13,1.28-45.9-2.57-93.79,2.11-140.41-2.72,6.32,1,2.11,1.12-2.71,1.16,3.13.24-.07,1.3.54,2l-19.51-2c-3.56,2-20.93.13-23,2l6.18-.34c-8.22,2.24,11.5,5,10.29,7.85,9.21-2.54,24.27,3.77,39.37.13,3.33.59-2.85.92-1.06,1.59,3.82-1.23,8.45-1.49,17-.94l-1,.31c24.07-.3,34.38.91,61.41,1.72l-2-1.42a64.3,64.3,0,0,1,9.75,1c6.67-2.15-16.31-.12-10.24-2.5,7.71,2.9,41,.05,46.17,3.33,8.94,0-2.62-1.64,6.32-1.62l2.37.89,2.25-1.15c5.86.19,8.82,1.3,9,2.06-1.42-.09-4,.21-5.57.27,7.6,1,21.43-.36,24,0l-8.58-.54c24.39-.83,54.16.33,77.72-1.48L291.17,31c18-1.24,14.41.74,34.16.17l-.72.16a85.14,85.14,0,0,1,14.64-.93c-5,.78,9.39,1.52,2.85,2.39,19.51-1.33,9.65-1,22.53-3.54l3,1.12c4.4-1,4.76-1.54,14.63-1.83-8.09,1,6.3,1.7-2.77,3,20.7,2.43,30.74-2.46,40.24,1.1,9.51-3.08-17.92-1.71-12.59-2.37-4.46-1,7.85-2.3,14.34-2,6.62.07,11.25,3.94,27.89,3.88-1.66,0-1.77.22-3.42.21,6.22.78,12.2-1.07,19.83.21,4.28-1.87,9.92.1,11.15-2.27l-15.26.55c8.65-.62,16.77-3.4,31-2.05a51.88,51.88,0,0,1-8.27,1.46c4.17.7,8-.47,12.35.25-1.23,2.38-18.55.52-27.82,2.33,4.48,1,17.54-1.72,12.88.85,6.69-3.27,16.39.42,27.66-2.08L508.71,33a64.55,64.55,0,0,1,8.76-.86L511.53,34c9.12-1.58,17.59,1.38,26.34.52-18.32,0-4.12-1.72-11.86-2.76,22.59-1.9,13,3.73,38.29,3-3.43.21-12.86-.85-7.5-1.51,4.81.29,11.17.84,14.13,1.59,16.75-.3-2.58-1.47,4.56-2.34,5.7,1.73,8.22-.71,15.57-1.26l.05,1.44c19.1.93,5.07-3,22.26-1.89l-7.27,2,9-.52-1.85,1.64C623,32.7,626,33,635.56,33.48c-2.22-1,1.25-2.62,9.71-2.67C651,31.67,642,32.18,654,32c-2.71.9-5.67,2-10.89.71-.54.47-2.67.9-3.22,1.37,6.21,1,15.61.23,20,.21a37.38,37.38,0,0,1-4.69-.33l17.38-2c2.74.54.56,1-1.58,1.41,3.52-.16,5.95-.83,11.13-1-1.34,1.18-1,2.39-8.35,3L690.32,34c1.11.51,8.5,1.41,6.35,1.84,9.18.69,22.52-2.29,34.7-1.37a18.84,18.84,0,0,1,4.49-.62c11.43.27,21.57,1.71,35.13.1l7.69,2.11c10.62-.48-10.41-2.66,7.27-3.45,12.52-.68,4.67,1.8,9.06,2.38,6.23-1.06,17-3.22,28.55-1.51C819.76,33.91,816.77,33.6,813.22,33.75Zm131-.93c-2.54.3-7.6,1.24-9.46.39C937.62,31.55,939.86,32.34,944.19,32.82Zm199.09-3.48c-1.89.47-4.81.24-8.1-.31A45.92,45.92,0,0,1,1143.28,29.34Zm554.61-10.08-.27.07C1692,18.77,1694,19,1697.89,19.26Zm11.75.63c1.18-.2,1.1-.41.6-.61-.82.37-3.46.39-6.46.29C1704.61,20,1706.13,20.21,1709.64,19.89Zm-1262.36.57,2.29.37C444.4,21.25,445.85,20.87,447.28,20.46Z"/><path class="a" d="M1120.7,31.32a1.75,1.75,0,0,1-1.08-.79C1118.62,30.77,1118.6,31.05,1120.7,31.32Z"/><path class="a" d="M731.76,34.52c-.13,0-.26,0-.39,0a.78.78,0,0,0-.4.26Z"/><path class="a" d="M1527.55,32.16a22.63,22.63,0,0,1-4.66-.75C1522.76,31.76,1523.86,32.06,1527.55,32.16Z"/><path class="a" d="M1771.94,17.43l-7.54.37a34.87,34.87,0,0,1,6.79.48C1771,17.94,1769.58,17.45,1771.94,17.43Z"/><path class="a" d="M1837.29,26.38c1.1-.17,2.33,0,3.42-.2l-.3-.67C1835.72,25.56,1832.44,26.1,1837.29,26.38Z"/><path class="a" d="M1778.91,22.24c.59,1.21,5.32.8,10.59.57-.32,0-.62,0-.93,0C1790.12,21.11,1784.5,21.67,1778.91,22.24Z"/><path class="a" d="M1790.72,22.77c1.63-.05,3.29-.08,4.88,0C1796.22,22.06,1793.62,22.6,1790.72,22.77Z"/><path class="a" d="M1724.55,19.08c2.5.31,1.57-1.56,3-1.06C1730.33,16.47,1710.86,19.89,1724.55,19.08Z"/><polygon class="a" points="1783.18 26.25 1781.29 24.74 1778.33 25.96 1783.18 26.25"/><path class="a" d="M1741.53,25.14l8.43.42c-.13-.25.94-.4,2.26-.51C1747,25,1741.33,24.7,1741.53,25.14Z"/><path class="a" d="M1752.22,25.05a48.15,48.15,0,0,0,6.78-.25C1757.54,24.81,1754.39,24.86,1752.22,25.05Z"/><polygon class="a" points="1771.65 26.7 1769.16 26.39 1763.21 26.27 1771.65 26.7"/><path class="a" d="M1650.93,24.86l-9.2.42c-.93.52,1.57.83,5,.63C1648.93,25.55,1652.34,25.35,1650.93,24.86Z"/><path class="a" d="M1678.75,29a12.36,12.36,0,0,1-4.06-1.14l-.28,1.86Z"/><path class="a" d="M1651.93,29.41c-.92.51-13.35,1.48-1.69,1.36C1651.17,30.26,1660.38,29.83,1651.93,29.41Z"/><polygon class="a" points="1513.33 27.05 1515.67 27.02 1515.34 23.97 1513.33 27.05"/><path class="a" d="M1391.18,34.36c10.9.73,2.59-1.89,12.44-1,2.56-.73-8-.75-5.43-1.37C1391.61,32.78,1388.16,32.35,1391.18,34.36Z"/><path class="a" d="M1398.19,32c1-.12,2.17-.27,3.36-.47A27.44,27.44,0,0,0,1398.19,32Z"/><polygon class="a" points="19.36 18.91 12.35 18.27 16.87 19.3 19.36 18.91"/><path class="a" d="M5.9,21.17,4.25,19.23,0,21C1.62,20.9,4.7,20.73,5.9,21.17Z"/><path class="a" d="M963.66,36.74l.53-.47c-1.08-.5-2.73-.54-6-.62Z"/><polygon class="a" points="868.6 35.28 870.24 35.33 867.18 33.56 868.6 35.28"/><path class="a" d="M788.82,37.53c3.25.08,7.08-.32,10.35-.24C792.07,37.61,787.94,35.34,788.82,37.53Z"/></svg>