<svg xmlns="http://www.w3.org/2000/svg" xmlns:xlink="http://www.w3.org/1999/xlink" viewBox="0 0 392.06 689.07"><defs><style>.a{fill:none;}.b{fill:#8b4ad0;}.c{fill:#2a212c;}.d{fill:#c44c44;}.e{fill:#edc562;}.f{fill:#886b4a;}.g{fill:#74a3d6;}.h{fill:#d1bba0;}.i{fill:#abc7db;}.j{fill:#f2835c;}.k{fill:#a37e54;}.l{fill:#be9649;}.m{fill:#db5116;}.n{fill:#517fbe;}.o{fill:#ddd7cf;}.p{fill:#29374f;}.q{clip-path:url(#a);}.r{fill:#514735;}.s{fill:#c5b8a1;}.t{fill:#987a2f;}.u{fill:#53c465;}.v{fill:#7e785d;}</style><clipPath id="a"><path class="a" d="M489,59.94,491.57,73l19.76,2.55L534,136.77l-1.59,1.91h-8.29a15.92,15.92,0,0,0-.32,8.93c1.28,4.78,2.55,5.73,6.7,6a57,57,0,0,1,9.56,1.92s15.62,46.86,19.13,48.13a33.42,33.42,0,0,1,0,5.74H549.9l.64,18.49,15,5.42,5.1,50.05L535.88,292l-.32-6.69H533s1.59-25.18-8-25.5-19.77,1.59-19.13,8.92,2.23,20.41,2.23,20.41l-2.87.63.64,2.23s-5.42-1.27-9.88,8.29c-.32,0-21,0-23.27,29.33,0,8.93,4.78,81.29,12.43,130.38,1.59,8.61,6.7,55.15,5.74,55.79-.32-.32-5.1,0-5.1,0l-1.28,6.38h3.19s-1.59,8,7,9.56c.32.64.64,9.56.64,9.56s-7.65,0-7,9.88c.32,1.28,1.91,18.81,1.91,18.81l-4.78,2.23s.32,7.34,1,10.84c0,.32-3.51,0-3.51,0l-.32,8.29s2.23,3.51,5.74,2.87c0,.32,2.87,15,9.24,23.27-.95.32-3.5,1.6-1.59,7s2.87,11.48,9.88,6.38c-.32-.32,8,8,29.33-4.78.32.32,6.06,7.14,6.06,7.14s4.46.51,10.2-3c0,.32,1-13.07,1-13.07a19.53,19.53,0,0,0,6.06-.95c.32.95,5.42,49.41,5.42,49.41s3.19,5.74,13.07,1.91,97.23-55.47,97.23-55.47l-5.1-148.87,20.08,14,7.33,149.83,12.75,11.47s2.24,1,6.38,0c1.28-1,15.94-11.47,15.94-11.47l-2.23-147.6L995.24,356.09l-8,96.91,13.39,6.38s4.46.95,6.7.31,7.33-6.69,7.33-6.69l12.11-126.24-3.5-1.91s5.1-.27,5.41-5.4,10.21-119.56,10.21-119.56l13.07-2.55s1,.63,2.55-4.15c1.91-1.59,0-11.47,0-11.47l-9.25.63s-4.46-2.23-2.87-8,9.88-18.49,14.67-40.8c.32-.32,10.83-1.59,10.83-1.59s4.15.63,4.15-5.1,0-8.61-6.7-8.61c-6.69-.32-3.18-1-3.18-1L1080.68,67l10.52-1.59,1.59-10.84h-23.27l-176.29-5.1Z"/></clipPath></defs><title>RustAdornments</title><path class="b" d="M248.75,113.46l45.83-7.13,16.63,21.06-11.49,9.41s11.85,16.58-3.83,19.35c-4.43,3.47-33.84,4.45-33.84,4.45l-33.92-15.47h-32l10.05-31.66Z"/><path class="c" d="M207.4,285.48c1.89,11.5-5.86,16.63-13.47,23.13-9.19,7.85-16.43.11-23.5-1.78-4.9-1.3-2.57-10.2-1.36-15.64,2-9.07-.55-15.35-8.79-19-5.87,9.27-.67,19.82-5.62,30-1.21-9.37-8.07-9.16-14-10.44-4-.87-8-1.89-12-2.73-2.65-.55-6.42-.63-5.78-4.18.6-3.34,4-1.28,6.13-1,5.09.57,10.16,1.37,15.24,2,2,.27,4.32,1.2,5.87-.5,2.11-2.32-.41-4.38-1.07-6.49-1.91-6.17-10-8-11.06-14.33-1.87-11.68-11.91-13.6-19.92-18-4.72-2.6-8.31-1.51-10.92,3.56-4.39,8.51-9.26,16.76-13.74,25.23C91,280,90.51,285.71,94.7,288.54c6.56,4.42,5.44,9.49,3.64,15.14a41.11,41.11,0,0,0-1.69,12.11c-.18,12.86,1.84,14.49,14.2,10.64,8.47-2.65,16.65-5.68,26-4.79,7.08.67,7.51,3.47,4.34,8.31-2,3.11-5.39,5.37-7.34,8.52-3.42,5.5-11.74,3.38-14.25,9-4.14,9.21-14.08,14.61-20.61,15.08-13,.93-8.49,8.05-8.61,14.15,0,2.55-.79,6.05,2.78,6.91s5.74-1.56,7.54-4.24c2.08-3.08,3.56-6.82,8-7.2l-.12-.1A100.12,100.12,0,0,1,95.71,395.3c-2.44,3.28-3.77,6.69-.1,10,7.4,6.68,14.63,12.52,26,12.12,16.69-.59,31.71-7.52,47.74-10.52,11.16-2.09,20.84-8.38,28.32-17.28,2.33-2.78,4.83-4.89,8.52-5,6.44-.25,7.93-4.31,7.67-9.74-.36-7.77-.78-15.54-1.2-23.75,4.64,2.15,2.5,8,6.51,9.07,6.56,1.78,16.72,6.72,19.3,11a26.94,26.94,0,0,0,11.22,10.08c18.52,9.46,18.29,11,2.61,23.74-4.13,3.35-14.76,6.82-8.23,16.76-2.24,2.18-8.07,1.76-6.64,6.38,4.26,13.75,9.29,27.27,14,40.87l3-.86c1.88-6.09,1.82-12.15-2.63-17.57-6-7.29-8.2-15.53-7.24-24.78,6,13,22.45,20.8,36,14.56,19.5-8.95,38.4-4.36,57.74-1-16.61,1.83-33.14,3.93-49.51,7.15-11.39,2.23-16.79,7.55-18.58,18.86-.37,2.33-.1,4.83-.83,7-2.91,8.65.18,14.71,9.14,16.95,4,1,8.16,1.28,12.08,2.44,3.13.94,9.1-1.94,8.94,3.05s-6,4.32-10,4.1c-1.7-.09-3.38-.54-5.08-.73-5.09-.59-11.16-2.18-14,3.33-3,5.93-5.72,12.55-1.32,19.49,3.09,4.86,5.44,9.82,12.56,5.13,3.91-2.57,7.75.15,9.93,3,4.48,5.89,10.63,8.63,17.38,10.47-6.09,5.74-11.61,11-18.76,14.77-4.7,2.44-5.7,7.26-2.33,13.2,5,8.81,13.47,4.64,20.9,7.1-1.85,2.42-3.66,4.45-3.95,7.21a66,66,0,0,1-1.27,9.1c-3.23,13-2.94,13.57,10.44,16.36,1.58.33,3.43-.66,4.8,1.16.56,4.13-6.93,7.29-3.24,10.7,6.19,5.73,4.27,11.53,2.93,17.88-.49,2.32-.93,5.48,1.91,6.19,3.25.81,4.28-2.58,5.64-4.84,1.11-1.86-.5-7.08,1.56-5.66,5.42,3.72,15.28-2.75,17.3,8.2,1.85,10,7.93,9.63,16.62,7.09,9.19-2.69,11.16-12.6,19.22-15.63l.47.56,1.08,2.56c6.3,8.32,4.24,17.67,2.63,26.62-1,5.64-13.89,10.74-21.23,10.14-16.53-1.35-32.45-3.93-48.07-10.61-9.89-4.23-18.52-9-23.35-18.09-5.6-10.53-19-11.82-24.12-22.29-2.13-6-2.95-13.51-12.42-11.23-12.22,2.93-24.76,5-36.49,9.29a195,195,0,0,0-49.23,26.78q-17.28,10.21-34.55,20.44c-11.2,2-19.88,16.25-33.21,7.28,8.74-7.25,18.88-12.52,27.72-19.78C114.62,654.06,103,664,89.3,667.79c-3.55,1.12-6.27-.87-9.36-2.14-19.23-10-33.8-23.88-42.06-42.92-3.33-9.4-3.28-19-12.93-26.07C19,592.28,15,583.08,13.52,575.39c-1.63-8.48,8.19-12.26,13-17.91,23.58-27.75,55.18-26.14,86.66-21.27,17.19,2.66,34,1,51,.67,4.24-.09,7.07-1.18,3.49-6-22.88-30.81-37.25-66.54-57.3-99-4.7-7.61-10.14-14.33-17.48-19.76-5.5-4.08-6.84-12.95-16-13.35-2.48-.11-3.86-3.63-3.1-6.75,2.25,1.92,4.64,3.23,6.92.24,2.46-3.22,1.42-6.48-.79-9.29-1.35-1.73-2.85-6.05-5.42-.78,2.22-15.8,3.34-31.95,12.46-45.8,10.2-15.48,3.13-31.51,1.7-47.28-.48-5.3-3.48-2-5.44-.29l0,.06-6.44,8.39c-2.75-2.11-6-2.83-9.34-3.15l2.26-4h0c1-1.15,2-2.3,3-3.45l.13,0,1.46-2.24v-.11l1.6-2.45.06,0c9.26-7.16,5.7-16.17,3.54-24.94a9,9,0,0,0-1.29-2.48c-9.42,4.44-17.69-7.12-27.9-1.18-12.07,7-25.35,12-38.07,17.94-2.21,1-4.26,2.27-7.92.59L43.89,252.2c-2.9-5.78-10.76-4.8-12.13-10.89,1.36-6.68,5.05-7.19,11.42-6.06,14.35,2.53,16.1.79,15.65-11.19,1.38-6.58-.37-14.21,6.34-19-.72,2.51-3.05,6.14,0,7.29,3.75,1.43,8,.09,10.19-4.29L100,203.78c-8-3.24-16.22-2.87-24.51-2.27-4.29-.89-8.7-2.13-10.52,3.8-5.08-4.15.32-7.9.47-11.85,3.74-.26,7.89.43,11.16-1,10.26-4.33,26,5.06,31-12.67.14,3.79-1.43,8,0,10.31,6.33,9.73,3.94,20.52,4.91,30.87.42,4.42-.26,10.25,5,11s12.35-.41,13.73-6.45c2.29-10,5.52-20.5.91-30.93,8.24-3.79,3.88-10.15,3.31-16-2.22,7.52-8.51,10.69-14.13,14.53-2-3.29-2.72-6.07-.3-10s5.08-8.81,4-14.21c4.37-10.44-3-18-8.47-23.9-10.2-10.95-14.71-22.23-10.81-36.69a11.61,11.61,0,0,1,8.61,2.33c1.41,2.76,2.7,5.58,2.16,8.78C114.29,132.76,123,141.89,129,152a6.87,6.87,0,0,0,3.85,2.91c1.44.37,2.29-1.25,2.18-2.71-.94-12.18,4.23-24.3.34-36.51-1.39-5.74,4.71-7.36,6.3-11.46,8.54.2,12,7.53,15.71,12.9a107.22,107.22,0,0,0,33.8,31.32c-4.66,5.52-9.42,10.56-16.87,3.86-.9-3.95,1.74-9.21-4.07-11.33-1.87-.68-4.11-1.35-5.32,1.07-1.75,3.51-.62,6.55,2,9.17l-4.5,1.29-14.46-18.16-2.27,1.25c2.23,8-4.1,17.14,4.38,24.26C146.4,171,153.1,172.06,160.89,170c16.33-4.36,32.37-9.85,49.06-12.85,6.37.81,11.16-.58,11.4-8.25,4.13-1,8.5,5.15,12.47-.42l6.41,9.36c-4.26,1.41-7.42,5.64-12.52,4.89-5.18-.51-10.07.34-14,3.91-1.15,1-.19,2.69,1.3,3.06,5.53,1.37,8.46-3.06,12.18-5.7l11.12.53c-1.64,3.75-3.59,7.39-3.71,11.64-.41,14,.48,28-2.89,41.81-.89,3.64,1.58,4.31,3.9,6,9.8,7,12.34,25.28,4.55,34.08-3.54-7.29-7.43-14.89-17.25-11.2-7.75,2.92-11.58,17.7-7.78,26.47,2.3,5.32,4.31,10.78,6.17,16.27.67,2,.28,4.28-2.15,5.05-2.09.67-3-1-3.57-2.67-1.24-4.11-4-6.2-8.25-6.38m-113.16-35c-9.66.25-11.89,5.15-8.61,14.41,5.75-3.63,7.1-9.09,8.52-14.51ZM129.58,615.9c-15.51-8.3-30.67-14-46.1-19.2-5.46-1.82-5.43.84-5.29,5,.36,10.68,5.81,19.39,10.16,28.6,2.4,5.07,4.77,6.41,10.07,3.1C107.92,627.48,117.93,622.38,129.58,615.9Zm39.33-370c7.22,4.21,14.33,2.74,18.18-1.28,4.77-5,.17-13.71,3.91-20.25.69-1.22-2.24-1.94-3.89-2.34-10.55-2.55-17.63,4.81-25.58,9.31-1.28.72-1.37,4.43-1.18,6.68.25,2.88,3.05,2.14,4.88,2.19,4.13.1,8.21.29,12,2.24.35.18.41.93.76,1.81Zm10.69-67.82c-7.56-4.79-15.91-4.11-23.94-3.77-4.52.2-5.64,4.38-5.51,8.51.08,2.67-.83,6.13,2.44,7.17s6.19-1.42,7.93-3.71C165.38,179.89,172.86,180.41,179.6,178.05Zm42.17,10.33c-2,0-10.61,4.93-13,7.69-1.42,1.66-4.85,2.77-3.24,5.59s4.81,4,7.95,3.92c4.44-.1,12.12-10,11.49-14.38C224.72,189.3,224.1,187.89,221.77,188.38ZM90.4,352.1c5.09-.66,9.16-1,13.13-1.8,2-.41,4-1.94,3.36-4.33-.76-2.72-2.92-2.47-4.81-1C98.67,347.64,93.14,346.52,90.4,352.1Zm14.19-132.3c-1.93-3.54-5.41-4.21-8.63-3.69s-8.61.15-8.33,4c.38,5.2,5.4,2.09,8.36,1.93S102.22,223,104.59,219.8ZM262.26,511.86c-1.88,9.62,1.92,18.73,2,28.18C266.41,530.39,261.66,521.37,262.26,511.86Z"/><path class="c" d="M220,123c-.36,6.84,4.6,5.45,8.38,5.1,7.82-.73,14.79-4,21.67-7.66s6.81,0,4.89,5.08a1.2,1.2,0,0,0-.23,1c-3.83.81-6,4.09-7.94,6.72-2.78,3.84-5.35,6.7-10.41,6-5.06-7-11-.15-16.52-1.1-8.12-6.31-7.75,2.3-10.27,5.84-4.51.06-9.12-1.18-13.44,1.11-.65-.78-1.3-2.24-2-2.24-18-.2-15.23-18.53-22.66-27.59-9-11,4.78-48.84,18.13-58.28a56.22,56.22,0,0,0,19.47-23.9h6l42.58,9.53c3,4.33,3.83,9.15,3.52,14.36-.78,13.52-1.26,27-2.09,40.56-.31,5-1.58,9.68-8.4,8.66-2.21-2.21-5-2.1-7.83-2.07C228.87,99.1,218.25,107.86,220,123Zm-13.82-9.54c-8.3,2.19-7.91,7.77-5.52,14.13.25,2,1.27,3.42,3.27,2.45,2.2-1.06,1.88-3.26,1.23-5.28q1.11-5.05,2.21-10.12l1.51-1.13Zm14.44-67.3c-1-2.42-2.28-5.1-6.11-5.16-3.12,0-4.07,1.58-4,4.49,0,3.83,2,5.81,5.58,5.7C218.52,51.13,220.65,49.81,220.65,46.17ZM204.6,77.84c-7.18,1.51-13.69,3.88-17.78,9.36L189,90Z"/><path class="d" d="M257.67,42.66l-42.58-9.53c1-3,6.3-3.35,5.33-6.71-1-3.54-6.73-.94-9.92-1.83-7.76-2.15-.82,1.83-5.36,6.75,4.58,3.13,0,0,4,1.78A56.22,56.22,0,0,1,189.67,57c-13.35,9.44-27.1,47.33-18.13,58.28,7.43,9.06,4.7,27.39,22.66,27.59.66,0,1.31,1.46,2,2.24l-5,3.33a107.22,107.22,0,0,1-33.8-31.32c-3.69-5.37-7.17-12.7-15.71-12.9-8.63-12-9.67-24.82-4.83-39.45,5.27-15.93,8.89-25,14-37.36,6.12-15,19.52-22.22,33.77-21.9,18.57.4,37,2.78,53.56,12.09C247.87,23.12,255.35,31,257.67,42.66Z"/><path class="e" d="M105.75,108.37c-3.9,14.46.61,25.74,10.81,36.69C122,150.93,129.4,158.52,125,169c-14.27,1.32-15-9.85-16.26-21-5.94,8.49-5.93,17-11.49,23.63C89.4,181,79.34,183,68.23,183.86c-3,.24-7.75-1.34-8.67,3.21-.73,3.6,3.85,4.24,5.86,6.39-.15,3.95-5.55,7.7-.48,11.85l.23-.27c-6.71,4.81-5,12.44-6.34,19-3-.4-6.18-.4-9.07-1.27-7.55-2.25-10.71-12-6.42-18.53,1.22-1.86,5.81-1,4.29-4.41s-5.23-2.42-8.28-2.44c-2.27,0-5.82,3.6-6.47-1.25-.58-4.35,2.9-5.5,6.79-5.63,2.14-.08,4.14,2.56,7.31-.43-5-1.16-6.48-5-8.22-8.61q1.68-1.63-.22-3h0c4.65,2.37,4.36-1.9,5.57-4.15,10.69-14.05,17.68-29.83,25-46.91-7.88.6-5.82,8.85-11.91,8.06C60,122.84,69.6,116.23,79.55,109.92c9.55,5.87,10.66,5.75,16-1.66l5.16-.45Z"/><path class="f" d="M135.32,115.7c3.89,12.21-1.28,24.33-.34,36.51.11,1.46-.74,3.08-2.18,2.71A6.87,6.87,0,0,1,129,152c-6-10.12-14.66-19.25-12.43-32.53.54-3.2-.75-6-2.16-8.78C121,114,128.09,115.07,135.32,115.7Z"/><path class="g" d="M290.38,122.81a9.56,9.56,0,0,0-1.78-1c-4.07-1.18-11,3.88-11.66-.47-.83-5.26,3.19-11.78,8.17-15.42s11.08-6.41,17.18-3.63,6.26,9.13,5.65,15.12Z"/><path class="h" d="M346.17,127.47c-15.8,1.58-31,6.33-46.45,9.33-5.7-1.21-12.42.16-16.17-6.19,16.8-1.27,32.8-5.73,48.36-12C333.32,126.92,339.76,127.18,346.17,127.47Z"/><path class="i" d="M331.91,118.59c-15.56,6.29-31.56,10.75-48.36,12-.91-5.39,4-5.65,6.82-7.8l17.57-5.35c8.09-1.16,15.63-5,23.95-5.09a5,5,0,0,0,1.21,1.25Z"/><path class="g" d="M220,123c-1.78-15.15,8.84-23.91,22.84-18.84-3,.76-6.64,1.46-6,5.55.57,3.42,4.09,3,6.74,3.26,1.7.19,3.4.32,5.1.48-.18,5.05-4.18,5.69-7.77,6.34C234,121.06,227,122,220,123Z"/><path class="i" d="M254.74,126.58a1.2,1.2,0,0,1,.23-1c11.64,1.21,16.21,8.51,16.66,19.35-.3,2.93.09,6.09-2.63,8.27h-3.89C258.78,145.42,253.61,137.23,254.74,126.58Z"/><path class="c" d="M269,153.15c2.72-2.18,2.33-5.34,2.63-8.27,6.49,11.43,17.95,4.2,26.7,7.13-.82,1.39-1.64,2.77-2.44,4.14l-1.78,2.14-2.65,1.33C283.29,159.86,275.15,159.94,269,153.15Z"/><path class="j" d="M362.11,112.52c-.64,2-1.4,4-3.59,4.81-6.39-6.73-14.3-7.37-22.79-5.7-.33-.46-.66-.91-1-1.36,2.83-2.32,5.7-4.59,8.46-7,4.14-3.59,8.07-4.09,10.21,1.66C355,109.36,360.75,108.29,362.11,112.52Z"/><path class="i" d="M248.75,113.46c-1.7-.16-3.4-.29-5.1-.48-2.65-.31-6.17.16-6.74-3.26-.68-4.09,2.93-4.79,6-5.55,2.8,0,5.62-.14,7.83,2.07Z"/><path class="h" d="M331.89,112.37l2.83-2.1c.35.45.68.9,1,1.36l-2.63,2A5,5,0,0,1,331.89,112.37Z"/><path class="k" d="M38.76,181.49c1.74,3.64,3.25,7.45,8.22,8.61-3.17,3-5.17.35-7.31.43-3.89.13-7.37,1.28-6.79,5.63.65,4.85,4.2,1.23,6.47,1.25,3,0,6.8-.86,8.28,2.44s-3.07,2.55-4.29,4.41c-4.29,6.56-1.13,16.28,6.42,18.53,2.89.87,6,.87,9.07,1.27.45,12-1.3,13.72-15.65,11.19-6.37-1.13-10.06-.62-11.42,6.06-14.51-10.74-18.16-38.37-6.86-52.2,2.11-2.58,5.16-4.53,5.37-8.34,1.66-.44,3.26-1.58,5.06-.45Z"/><path class="c" d="M57.17,135.45c6.09.79,4-7.46,11.91-8.06-7.28,17.08-14.27,32.86-25,46.9l-2.33-3c.31-1.23.61-2.46.92-3.69,2.57-5.5,7.84-10,6.12-17.06Q51.91,145.27,55,140c2.23-.9,2.86-2.56,2.3-4.8Z"/><path class="e" d="M48.83,150.58c1.72,7-3.55,11.56-6.13,17.06a4.72,4.72,0,0,0-3,4.31c-.51,2.15-4.24,3.72-1.15,6.5h0c-2.32-1.53-2.62.41-3.21,1.86-1.8-1.13-3.4,0-5.06.45C35.28,170,39.64,158.8,48.83,150.58Z"/><path class="f" d="M67.5,294.13c3.36.32,6.59,1,9.34,3.15-2,4.49-3.81,9.5-10.22,5.26C61.67,299.27,63.6,296.56,67.5,294.13Z"/><path class="f" d="M74.54,382.2c2.57-5.27,4.07-.95,5.42.78,2.21,2.81,3.25,6.07.79,9.29-2.28,3-4.67,1.68-6.92-.24-2.75-2.15-1.45-4.93-1.16-7.53Z"/><path class="f" d="M85.73,106.33l9.83,1.94c-5.35,7.4-6.46,7.52-16,1.65a11.27,11.27,0,0,1,.74-1.86Z"/><path class="h" d="M57.27,135.17c.56,2.24-.07,3.9-2.3,4.8Z"/><path class="f" d="M69.81,290.14h0Z"/><path class="f" d="M83.28,288.89l0-.06Z"/><path class="f" d="M72.94,286.72l-.13,0Z"/><path class="f" d="M74.4,284.37v0Z"/><path class="f" d="M76.06,281.88l-.06,0Z"/><path class="l" d="M347.48,587c1,4.15,5.2,5.09,7.52,7.85s5.77,5.66,4.24,8.74c-5.55,11.2,4.13,13.71,9.74,18.62,3.94,3.43,10.6,3.72,11.87,10.25-8.06,3-10,12.94-19.22,15.63C352.94,650.63,346.86,651,345,641c-2-11-11.88-4.48-17.3-8.2-2.06-1.42-.45,3.8-1.56,5.66-1.36,2.26-2.39,5.65-5.64,4.84-2.84-.71-2.4-3.87-1.91-6.19,1.34-6.35,3.26-12.15-2.93-17.88-3.69-3.41,3.8-6.57,3.24-10.7-1.37-1.82-3.22-.83-4.8-1.16C300.32,604.5,300.44,604,304,589.8a40.59,40.59,0,0,0,.93-7.54c.16-2.93,2-5,4-7.56-7.43-2.46-15.89,1.71-20.9-7.1-3.37-5.94-2.37-10.76,2.33-13.2,7.15-3.72,12.67-9,18.76-14.77-6.75-1.84-12.9-4.58-17.38-10.47-2.18-2.87-6-5.59-9.93-3-7.12,4.69-9.47-.27-12.56-5.13-4.4-6.94-1.67-13.56,1.32-19.49,2.79-5.51,8.86-3.92,14-3.33,1.7.19,3.38.64,5.08.73,4.07.22,9.88,1,10-4.1s-5.81-2.11-8.94-3.05c-3.92-1.16-8.1-1.44-12.08-2.44-9-2.24-12.05-8.3-9.14-16.95.73-2.18.46-4.68.83-7,1.79-11.31,7.19-16.63,18.58-18.86,16.37-3.22,32.9-5.32,49.51-7.15-19.34-3.39-38.24-8-57.74,1-13.59,6.24-30-1.59-36-14.56-.17-1.35-.35-2.69-.52-4-6.53-9.94,4.1-13.41,8.23-16.76,15.68-12.73,15.91-14.28-2.61-23.74a26.94,26.94,0,0,1-11.22-10.08c-2.58-4.27-12.74-9.21-19.3-11-4-1.08-1.87-6.92-6.51-9.07.42,8.21.84,16,1.2,23.75.26,5.43-1.23,9.49-7.67,9.74-3.69.14-6.19,2.25-8.52,5-7.48,8.9-17.16,15.19-28.32,17.28-16,3-31.05,9.93-47.74,10.52-11.36.4-18.59-5.44-26-12.12-3.67-3.3-2.34-6.71.1-10A100.12,100.12,0,0,0,108.58,372a7.24,7.24,0,0,0,.48-.79,2.49,2.49,0,0,0,.07-.68l-.43,1.57c-4.49.38-6,4.12-8,7.2-1.8,2.68-4.11,5.06-7.54,4.24s-2.83-4.36-2.78-6.91c.12-6.1-4.35-13.22,8.61-14.15,6.53-.47,16.47-5.87,20.61-15.08,2.51-5.59,10.83-3.47,14.25-9,1.95-3.15,5.31-5.41,7.34-8.52,3.17-4.84,2.74-7.64-4.34-8.31-9.3-.89-17.48,2.14-26,4.79-12.36,3.85-14.38,2.22-14.2-10.64a41.11,41.11,0,0,1,1.69-12.11c1.8-5.65,2.92-10.72-3.64-15.14-4.19-2.83-3.71-8.59-1.29-13.18,4.48-8.47,9.35-16.72,13.74-25.23,2.61-5.07,6.2-6.16,10.92-3.56,8,4.41,18.05,6.33,19.92,18,1,6.35,9.15,8.16,11.06,14.33.66,2.11,3.18,4.17,1.07,6.49-1.55,1.7-3.87.77-5.87.5-5.08-.68-10.15-1.48-15.24-2-2.14-.24-5.53-2.3-6.13,1-.64,3.55,3.13,3.63,5.78,4.18,4,.84,8,1.86,12,2.73,5.93,1.28,12.79,1.07,14,10.44,5-10.21-.25-20.76,5.62-30,8.24,3.63,10.81,9.91,8.79,19-1.21,5.44-3.54,14.34,1.36,15.64,7.07,1.89,14.31,9.63,23.5,1.78,7.61-6.5,15.36-11.63,13.47-23.13l-.08.07c4.26.18,7,2.27,8.25,6.38.52,1.72,1.48,3.34,3.57,2.67,2.43-.77,2.82-3.08,2.15-5.05-1.86-5.49-3.87-10.95-6.17-16.27-3.8-8.77,0-23.55,7.78-26.47,9.82-3.69,13.71,3.91,17.25,11.2,7.79-8.8,5.25-27.06-4.55-34.08-2.32-1.66-4.79-2.33-3.9-6,3.37-13.76,2.48-27.84,2.89-41.81.12-4.25,2.07-7.89,3.68-11.62,1,.48,2,.95,3.07,1.42,3.62,9.51,11,13.88,20.68,14,10.78.16,20-3.65,25.62-13.58a10,10,0,0,0,3.82-6.77l2.65-1.33c.24,5.78,9.77,7.64,6.33,15-3,.79-7.27,4.22-5.4,5.11,4.54,2.17,8.72,9.8,15.4,3.73,4.57,2.34,5.91,6.73,7.94,11.1,6.93,14.85,13.18,30,19,45.28-.82,3.48-1.61,7-5.44,8.5-2.93.9-4.1-1.64-6-3-10.12-7-14.49-18.9-23.33-26.93-8.21-7.46-13.94-20.67-13.52-31.19,0-.39-2.23-.87-3.42-1.3l.09.09q.33-2.76.65-5.53c.12-.54.24-1.07.37-1.61l-1.51.48c-5.42,2.06-10.7,4.75-16.3,6s-6.6,3.86-5.19,8.71c2.81,9.72,1,19.54,1,29.54-3.91-1-1.55-6.27-5.47-6.61-5.34,3.64,1,16.18-11.38,14.7-1-.13-1.32,3.73.46,5.26a16.37,16.37,0,0,1,5,7.5c1.09,3.19,4.08,3.23,5.31.54,4.1-9,8.08-3.65,12.22-.32l-2.13,4.72c-8.73,3.59-10.32,16-20.74,17.2-8,.94-8.28,5.79-6.8,11.69a26.68,26.68,0,0,0,7,12.38l1.21,2.31c1.83,8.42,10.65,14.56,19.07,13,2.59-.47,5.93-.37,7.14-3.26,1.64-3.91-2.24-4.19-4.38-5.48-3.06-1.86.7-3.43.17-5.17,13.65-1.18,27.29-2.13,40.79,1.46l.36,2.11c-4,2.62-4.65,5.79.23,7.91,5.25,2.27,10.23,5.63,16.27,5.79l-.29-.09,3.31,2.29c7.62,5.73,14,12.27,16.68,21.9,5,17.56,8,35.28,6.4,53.59C349.3,387,343.51,390,338,384.19a11.21,11.21,0,0,0-13.19-2.71c-2.77,1.21-4.39,3.84-3.52,6.68,1.49,4.88,3.75,9,9.12,11.45,7.24,3.27,14,.62,21,.19-1.8,14.32-8.64,27.43-9.35,42.13-.63,12.78-1.52,25.68-5,38.15-2.47,2.13-1.55,7.83-7.46,6.48-3.62-.82-4.4,1.77-4.45,5.08-.09,6.78,2.74,11,9.44,12.5.13,10.35.36,20.7,2.67,30.87a22.51,22.51,0,0,0,1.93,7.57,79.1,79.1,0,0,1,6.65,26.48ZM270.8,417.57l1.33,1.62c-.25-.67-.51-1.35-.77-2,4.88-8.46,15.81-11.81,25.3-7.37,4.41,2.07,8.77,4,13.67,3.11,3.28-.59,7.21-1.38,7.54-5.62.31-4-3.48-4.45-6.22-5.65-19.32-8.43-37.07-2.64-54.47,6.07-2.12,1.07-4.69,2.29-3.72,5.25,1.12,3.41,4.41,3.36,6.85,2.36C264.57,413.56,268.41,411.56,270.8,417.57Zm65.15,156c4.68-9.35.69-17.78-.66-26.26-.46-2.87-2.59-3.66-5.23-3.89-8.47-.73-21.92,7.23-26.88,17.08C318.17,555.4,328.37,561.1,336,573.56ZM158,353.92c4.12.62,5.3-2,5.78-5.38.52-3.72.94-7.47,1.79-11.11.58-2.49,3.61-5.25.31-7.24s-6.59-.44-9,2.59a33.75,33.75,0,0,0-6,11.72C148.89,351.36,152.43,353.14,158,353.92ZM338.8,364.83c-11.82,3.24-23.09,7.62-33.44,14.19a8.45,8.45,0,0,0-2.39,3.27c-.84,1.59-1.13,3.46.72,4.43,1,.54,3.07.7,3.72.07C316.7,377.83,329.22,373.7,338.8,364.83ZM127.18,383.58c10.88-.38,21.25-2,30.47-7.73A61.53,61.53,0,0,0,127.18,383.58ZM298.85,458c7.47,1.19,12.91,8.61,21.31,6.52,1.58-.39,3.72-.2,3.37-2.55-.16-1.06-1.53-2.67-2.47-2.75C313.72,458.56,306.44,456.21,298.85,458Zm29.43-31.16c2.9-2.13,9.11,2.66,9.44-3.72.21-4-5.15-4.66-9-4.56-4,.1-10.07-.4-10.25,4.14C318.24,428.9,324.78,424.71,328.28,426.85Zm-77.2-58.18a82.2,82.2,0,0,0-6.38-7.59c-.33-.32-2.85,1.8-2.57,3.63.52,3.46,2.18,6.45,5.68,7.6C249.77,373,250.81,371.47,251.08,368.67ZM282.31,509c0-3.14-2.34-3.86-4.61-4.22s-4.09.89-3.5,3.38c.55,2.34.38,6.06,3.88,5.89C280.29,513.94,281.46,511.17,282.31,509Zm24.85,59.37c.56-.68,1.5-1.32,1.62-2.09a1.17,1.17,0,0,0-1.85-1.17c-.68.4-1,1.42-1.37,2.22A10.76,10.76,0,0,0,307.16,568.37Z"/><path class="f" d="M382.4,635.58,381.32,633Z"/><path class="c" d="M351.47,399.8c-7,.43-13.79,3.08-21-.19-5.37-2.43-7.63-6.57-9.12-11.45-.87-2.84.75-5.47,3.52-6.68A11.21,11.21,0,0,1,338,384.19c5.48,5.8,11.27,2.8,17.12,1.55C354.91,390.68,350.52,394.54,351.47,399.8Z"/><path class="c" d="M334.68,504.14c-6.7-1.48-9.53-5.72-9.44-12.5.05-3.31.83-5.9,4.45-5.08,5.91,1.35,5-4.35,7.46-6.48C337.74,488.25,333.32,495.9,334.68,504.14Z"/><path class="c" d="M329.05,308.05c-6-.16-11-3.52-16.27-5.79-5-2.18-4.15-5.49.14-8.15C319.3,297.61,324.91,302,329.05,308.05Z"/><path class="c" d="M332.07,310.25,328.76,308A3.24,3.24,0,0,1,332.07,310.25Z"/><path class="c" d="M270.9,243.38c-4.14-3.33-8.12-8.65-12.22.32-1.23,2.69-4.22,2.65-5.31-.54a16.37,16.37,0,0,0-5-7.5c-1.78-1.53-1.5-5.39-.46-5.26,12.36,1.48,6-11.06,11.38-14.7,3.92.34,1.56,5.64,5.47,6.61,0-10,1.82-19.82-1-29.54-1.41-4.85-.34-7.48,5.19-8.71s10.88-3.95,16.3-6l1.14,1.14q-.31,2.76-.65,5.52l-.09-.09c1.19.43,3.44.91,3.42,1.3-.42,10.52,5.31,23.73,13.52,31.19,8.84,8,13.21,19.95,23.33,26.93,1.9,1.31,3.07,3.85,6,3-12,22.39-34.81,21.63-50.7-.23C278.6,243.16,276.76,237.12,270.9,243.38Z"/><path class="e" d="M300.44,173.27c3.44-7.34-6.09-9.2-6.33-15l1.78-2.14c12.68,18,27.15,34.58,38.76,53.37,5.94,9.6,5.15,19,2.71,29-5.8-15.34-12.05-30.45-19-45.3-2-4.37-3.37-8.76-7.94-11.1Z"/><path class="c" d="M248.18,289.37a26.79,26.79,0,0,1-7-12.38c-1.48-5.9-1.23-10.75,6.8-11.69,10.42-1.21,12-13.61,20.74-17.2,2.15,6.54-.65,11.51-5.82,14.81C253.13,269.17,249.76,278.69,248.18,289.37Z"/><path class="m" d="M333.1,113.62l2.63-2c8.49-1.67,16.4-1,22.79,5.7-3.3,4.37-5.39,10.2-12.34,10.14-6.42-.29-12.86-.55-14.27-8.88Q332.5,116.12,333.1,113.62Z"/><path class="e" d="M271.4,290.78c.53,1.74-3.23,3.31-.17,5.17,2.14,1.29,6,1.57,4.38,5.48-1.21,2.89-4.55,2.79-7.14,3.26-8.5,1.56-17.4-4.71-19.12-13.25Z"/><path class="f" d="M65.42,193.46c-2-2.15-6.59-2.79-5.86-6.39.92-4.55,5.63-3,8.67-3.21C79.34,183,89.4,181,97.28,171.61c5.56-6.59,5.55-15.14,11.49-23.63,1.28,11.13,2,22.3,16.26,21,1.12,5.4-1.46,10.12-4,14.21s-1.73,6.75.29,10l10.83,1.46c4.61,10.43,1.38,20.88-.91,30.93-1.38,6-8.57,7.22-13.73,6.45s-4.6-6.61-5-11c-1-10.35,1.42-21.14-4.91-30.87-1.47-2.27.1-6.52,0-10.31-5,17.73-20.74,8.34-31,12.67C73.31,193.89,69.16,193.2,65.42,193.46Z"/><path class="b" d="M191.13,148.46l5-3.33c4.32-2.29,8.93-1,13.44-1.11q.17,6.55.35,13.11c-16.69,3-32.73,8.49-49.06,12.85-7.79,2.08-14.49,1-10.85-10.11,3.85-2.9,9.41-2.94,12.35-7.35l4.5-1.29,7.37,1.09C181.71,159,186.47,154,191.13,148.46Z"/><path class="b" d="M168.91,245.87l9-1.64c-.35-.88-.41-1.63-.76-1.81-3.75-1.95-7.83-2.14-12-2.24-1.83-.05-4.63.69-4.88-2.19-.19-2.25-.1-6,1.18-6.68,7.95-4.5,15-11.86,25.58-9.31,1.65.4,4.58,1.12,3.89,2.34-3.74,6.54.86,15.27-3.91,20.25C183.24,248.61,176.13,250.08,168.91,245.87Z"/><path class="g" d="M254.74,126.58c-1.13,10.65,4,18.84,10.37,26.58-1.36,2.34.86,6.15-3.06,7.44-2.88-2.29-5.37-4.81-5.26-8.87-.18-2.26.13-5.87-2.86-5.24-2.65.55-1.11,3.92-.62,6.11.2,1.28.4,2.56.59,3.84-6.44-1.17-6.71-7-8.22-12.31-3.1,4.71,1.15,11.3-5.45,13.69l-6.4-9.35c-1.83-3.81,1-6.3,2.56-9.19,5.06.72,7.63-2.14,10.41-6C248.71,130.67,250.91,127.39,254.74,126.58Z"/><path class="b" d="M179.6,178.05c-6.74,2.36-14.22,1.84-19.08,8.2-1.74,2.29-4.68,4.75-7.93,3.71s-2.36-4.5-2.44-7.17c-.13-4.13,1-8.31,5.51-8.51C163.69,173.94,172,173.26,179.6,178.05Z"/><path class="n" d="M240.23,157.82c6.6-2.39,2.35-9,5.45-13.69,1.51,5.33,1.78,11.14,8.22,12.31,1.36,3,2.91,6,4,9.13.3.86-.62,2.39-1.39,3.25a2.87,2.87,0,0,1-2.54-.65c-3.16-7-8.43-1.44-12.6-2.22-1-.47-2.06-.94-3.07-1.42-3.68-.2-7.39-.38-11.08-.55a1.44,1.44,0,0,0,.52-1.27C232.81,163.46,236,159.23,240.23,157.82Z"/><path class="f" d="M162.39,152.52c-2.94,4.41-8.5,4.45-12.35,7.35-8.48-7.12-2.15-16.28-4.38-24.26l2.27-1.25Z"/><path class="f" d="M221.78,188.37c2.32-.48,2.94.93,3.21,2.83.63,4.34-7.05,14.28-11.49,14.38-3.14.07-6.38-1.19-7.95-3.92s1.82-3.93,3.24-5.59C211.16,193.31,219.77,188.38,221.78,188.37Z"/><path class="f" d="M210,157.13q-.18-6.56-.35-13.11c2.52-3.54,2.15-12.15,10.27-5.84q.74,5.35,1.48,10.7C221.11,156.55,216.32,157.94,210,157.13Z"/><path class="g" d="M221.35,148.88q-.73-5.34-1.48-10.7c5.47.95,11.46-5.91,16.52,1.1-1.51,2.89-4.39,5.38-2.56,9.19C229.85,154,225.48,147.87,221.35,148.88Z"/><path class="e" d="M132.19,194.67l-10.83-1.46c5.63-3.84,11.92-7,14.14-14.53C136.07,184.52,140.43,190.88,132.19,194.67Z"/><path class="e" d="M75.47,201.51c8.29-.6,16.56-1,24.51,2.27L75.36,208C75.4,205.86,75.43,203.69,75.47,201.51Z"/><path class="f" d="M94.07,250.48c-1.42,5.42-2.77,10.88-8.52,14.51-3.28-9.26-1-14.16,8.61-14.41Z"/><path class="f" d="M75.47,201.51c0,2.18-.07,4.35-.11,6.53-2.17,4.38-6.44,5.72-10.19,4.29-3.05-1.15-.72-4.78,0-7.29l-.23.27C66.77,199.38,71.18,200.62,75.47,201.51Z"/><path class="f" d="M174.26,152.32l-7.37-1.09c-2.64-2.62-3.77-5.66-2-9.17,1.21-2.42,3.45-1.75,5.32-1.07C176,143.11,173.36,148.37,174.26,152.32Z"/><path class="f" d="M90.4,352.1c2.74-5.58,8.27-4.46,11.68-7.12,1.89-1.48,4-1.73,4.81,1,.67,2.39-1.39,3.92-3.36,4.33C99.56,351.13,95.49,351.44,90.4,352.1Z"/><path class="f" d="M104.59,219.8c-2.37,3.21-5.75,2.12-8.6,2.28s-8,3.27-8.36-1.93c-.28-3.89,5.24-3.54,8.33-4S102.66,216.26,104.59,219.8Z"/><path class="f" d="M262.26,511.86c-.6,9.51,4.15,18.53,2,28.18C264.18,530.59,260.38,521.48,262.26,511.86Z"/><path class="f" d="M227.71,162.71a1.44,1.44,0,0,1-.52,1.27c-3.73,2.64-6.66,7.07-12.19,5.7-1.49-.37-2.45-2-1.3-3.06C217.64,163.05,222.53,162.2,227.71,162.71Z"/><path class="f" d="M94.16,250.58l-.09-.1Z"/><path class="o" d="M187.17,59.11c-4-1.78-3.11-1.53-7.68-4.66C184,49.53,204,19.76,211.76,21.91c3.2.89,7.64,1,8.66,4.51,1,3.36-4.34,3.74-5.33,6.71C189.67,57,189.15,59.12,187.17,59.11Z"/><path class="p" d="M220.65,46.17c0,3.64-2.13,5-4.57,5-3.57.11-5.55-1.87-5.58-5.7,0-2.91.92-4.54,4-4.49C218.37,41.07,219.64,43.75,220.65,46.17Z"/><path class="p" d="M204.6,77.84,189,90l-2.15-2.78C190.91,81.72,197.42,79.35,204.6,77.84Z"/><path class="i" d="M200.69,127.6c-2.39-6.36-2.78-11.94,5.52-14.13a10.2,10.2,0,0,0,1.19,1.18q-1.11,5.05-2.21,10.12Z"/><path class="n" d="M200.69,127.6l4.5-2.83c.65,2,1,4.22-1.23,5.28C202,131,200.94,129.57,200.69,127.6Z"/><path class="i" d="M206.21,113.47l2.7,0-1.51,1.13A10.2,10.2,0,0,1,206.21,113.47Z"/><path class="c" d="M38.55,178.45c-3.09-2.78.64-4.35,1.15-6.51l2.09-.61,2.33,3C42.91,176.55,43.2,180.82,38.55,178.45Z"/><path class="c" d="M35.33,180.32c.59-1.45.89-3.39,3.21-1.86q1.91,1.39.22,3Z"/><path class="n" d="M262.05,160.6c3.92-1.29,1.7-5.1,3.06-7.44H269c6.15,6.79,14.29,6.71,22.46,6.47a10,10,0,0,1-3.82,6.77c-5.18,1.91-8.83-2.33-13.05-3.75-1.9,2.58,2.56,5.89-1.48,7.44-3.42,1.31-6.08-.33-7.91-3.09A52.64,52.64,0,0,1,262.05,160.6Z"/><path class="f" d="M41.79,171.33l-2.09.61a4.72,4.72,0,0,1,3-4.3"/><path class="c" d="M270.8,417.58c-2.39-6-6.23-4-10.49-2.27-2.44,1-5.73,1.05-6.85-2.36-1-3,1.6-4.18,3.72-5.25,17.4-8.71,35.15-14.5,54.47-6.07,2.74,1.2,6.53,1.69,6.22,5.65-.33,4.24-4.26,5-7.54,5.62-4.9.9-9.26-1-13.67-3.11-9.49-4.44-20.42-1.09-25.3,7.37Z"/><path class="c" d="M262.05,160.6A52.64,52.64,0,0,0,265.2,167c1.83,2.76,4.49,4.4,7.91,3.09,4-1.55-.42-4.86,1.48-7.44,4.22,1.42,7.87,5.66,13.05,3.75C282,176.32,272.8,180.13,262,180c-9.64-.14-17.06-4.51-20.68-14,4.17.78,9.44-4.82,12.6,2.22a2.87,2.87,0,0,0,2.54.65c.77-.86,1.69-2.39,1.39-3.25-1.06-3.13-2.61-6.1-4-9.13-.19-1.28-.39-2.56-.59-3.84l3.48-.87C256.68,155.79,259.17,158.31,262.05,160.6Z"/><path class="c" d="M336,573.56c-7.58-12.46-17.78-18.16-32.77-13.07,5-9.85,18.41-17.81,26.88-17.08,2.64.23,4.77,1,5.23,3.89C336.64,555.78,340.63,564.21,336,573.56Z"/><path class="e" d="M158,353.92c-5.54-.78-9.08-2.56-7.09-9.42a33.75,33.75,0,0,1,6-11.72c2.39-3,5.68-4.59,9-2.59s.27,4.75-.31,7.24c-.85,3.64-1.27,7.39-1.79,11.11C163.27,352,162.09,354.54,158,353.92Z"/><path class="e" d="M338.8,364.83c-9.58,8.87-22.1,13-31.39,22-.65.63-2.7.47-3.72-.07-1.85-1-1.56-2.84-.72-4.43a8.45,8.45,0,0,1,2.39-3.27C315.71,372.45,327,368.07,338.8,364.83Z"/><path class="c" d="M127.18,383.58a61.53,61.53,0,0,1,30.47-7.73C148.43,381.61,138.06,383.2,127.18,383.58Z"/><path class="e" d="M298.85,458c7.59-1.8,14.87.55,22.21,1.22.94.08,2.31,1.69,2.47,2.75.35,2.35-1.79,2.16-3.37,2.55C311.76,466.62,306.32,459.2,298.85,458Z"/><path class="c" d="M328.28,426.85c-3.5-2.14-10,2-9.8-4.14.18-4.54,6.25-4,10.25-4.14,3.84-.1,9.2.6,9,4.56C337.39,429.51,331.18,424.72,328.28,426.85Z"/><path class="c" d="M251.08,368.67c-.27,2.8-1.31,4.28-3.27,3.64-3.5-1.15-5.16-4.14-5.68-7.6-.28-1.83,2.24-3.95,2.57-3.63A82.2,82.2,0,0,1,251.08,368.67Z"/><path class="c" d="M300.44,173.27l10,8.84c-6.68,6.07-10.86-1.56-15.4-3.73C293.17,177.49,297.47,174.06,300.44,173.27Z"/><path class="c" d="M282.31,509c-.85,2.17-2,4.94-4.23,5-3.5.17-3.33-3.55-3.88-5.89-.59-2.49,1.19-3.74,3.5-3.38S282.32,505.86,282.31,509Z"/><path class="c" d="M307.16,568.37a10.76,10.76,0,0,1-1.6-1c.35-.8.69-1.82,1.37-2.22a1.17,1.17,0,0,1,1.85,1.17C308.66,567.05,307.72,567.69,307.16,568.37Z"/><path class="c" d="M108.7,372.14l.43-1.57a2.49,2.49,0,0,1-.07.68,7.24,7.24,0,0,1-.48.79Z"/><path class="c" d="M271.36,417.16c.26.68.52,1.36.77,2l-1.33-1.62Z"/><path class="c" d="M285.25,178.05l1.51-.48c-.13.54-.25,1.07-.37,1.61C286,178.82,285.63,178.44,285.25,178.05Z"/><path class="f" d="M285.65,184.62l.09.09Z"/><path class="n" d="M256.79,151.73l-3.48.87c-.49-2.19-2-5.56.62-6.11C256.92,145.86,256.61,149.47,256.79,151.73Z"/><g class="q"><path class="r" d="M370.67,230.28V212.43a9.54,9.54,0,0,1,2.52.14c7.78,2.51,17.23-1,23.45,7.7,2.54,3.54,6.12.94,7.2-5.27l2.53,0c4.58,2.55,9.36,5.79,14.65,3.57a34.42,34.42,0,0,1,12.78-2.82,23.65,23.65,0,0,0,11-2.74c2.88-1.63,5.87-1.37,9.1-1.45,8.14-.18,17.13,3,24-4.55,1.24-1.37,3-1.27,4.7-.37,3.84,2,6.26,1.23,5.89-3.63-.29-3.92,1.94-4.49,4.8-3.45,8.13,3,15.65,4.2,24.33.11,7.7-3.62,11-7.52,8.25-16.09-1.82,0-3,5.8-4.63,1.53-1.79-4.76-1.57-10.42-1.47-15.67.07-3.27,3.9-4.19,6-6.14a6.61,6.61,0,0,0,2.44-6.19c-.38-2.75,1-3.25,3.38-2.92a96.44,96.44,0,0,1,18.55,4.22c1.89.66,4.22,1.09,3.81,4-1.41.87-2.53-.08-3.74-.26-2-.31-4.3-2.12-5.9,0-1.24,1.62.29,3.65.94,5.4,2.82,7.55,5.91,15,8.52,22.62,5,14.7,15.82,22,30.56,24.13a132.38,132.38,0,0,1,36.84,11.28c5.38,2.49,10.92,4.62,17,4.46l4.3,1.52c.52,1.57,1.57,1.79,3,1.16,11.71,4.22,23.41,8.47,35.14,12.63,1.63.57,3.65,2.7,5,.48,1-1.58-.9-3.39-1.7-5.1-2.69-5.79-8.12-10.25-8.44-17.21-.06-1.22-.71-2.68.7-3.38,1.23-.61,2.4,0,3.4,1,.84.79,1.15,2.44,3.51,1.74-1.65-6.73-.17-14.07-4.18-20.47.06-4.33,2.16-4.33,5.17-2.45A101.64,101.64,0,0,0,687,217.27c.49,1.75.8,3.41,2.67,3.82,7.42,1.61,7.49,8.59,9,13.63,2,7,7.39,12.08,15.06,11.45a.44.44,0,0,0,.56-.49l2-.65c5.81,5.73,12.34,3,18.77,1.61,4.56-1,7-3.51,6.48-8.38,2.63-3.21,5.11-6.54,7.92-9.57,2.46-2.66,4.75-4.29,8.14-.16,1.15,1.4,5.2-4.94,8.45-1.43,2,2.12,3.5,2.37,5.94,1.66s2.71,1.29,3.18,2.92c.09,3,1.9,2.86,4.33,3,8,.49,15.4-2.45,23.14-3.29,9.8-1.06,18.59-4.76,26.81-10l3.2-1.57a1.49,1.49,0,0,0,1.14-.37l2.77-.4a2.94,2.94,0,0,0,3.05-.68l2.8.19c1.58,3.76,4.17,3.17,7.34,2.11,7.74-2.58,15.31-5.54,23.41-7.18,13.65-2.76,27.63-3.27,41.13-7.27,7.39-2.18,15.09-3.53,22.62-5.44,9.76-2.48,19.76-3.52,28-10.09,1.38-1.1,3.52-1.5,5.37-1.72,6.7-.82,13.28-1.62,19.61-4.46s13.87-5.18,20.42-3.66c8.13,1.89,15.35,0,22.25-2.39,10-3.51,14.1-5,14.08-14.54l2.52-5.49c1.38-1.63,1.95-3.41.93-5.45.07-1.17.13-2.34.19-3.5v-1.6c0-2.2.27-4.44-1-6.46-1.83-1.38-3.93-2.54-4.24-5.17,8.06-1.6,15.78-4.65,24.07-5.27,3.48-.26,3.44-3.56,3.26-5.94-.23-3.11-2.84-1.65-4.5-1.49-2.73.27-5.42,1-8.15,1.24-19.22,1.45-38.15,4.82-57.16,7.84-8.66,1.38-16.54,6.07-25.69,5.1-9.4-1-18.36,1.68-27.32,4.31-4.41,1.3-3.75,2.65-1.44,5.44,1.32,1.6,2.49,2.8,4.62,2.74.36,1.87,0,3.25-2.12,3.83-3.5,1-5,3.49-5.24,7-2.16,2.37-5.85,3.08-6.88.64-2.37-5.58-4.13-2-6-.24-3.41,3.16-6.54,4.83-9.28-.63-1.43-3.31-4.15-1.94-6.54-1.8-8.71.52-16.58,5.18-25.07,5.78-7.83.56-14.3,2.43-19.36,8.48-3.45,2.73-6.9,5.56-10.62.35-2.84-3.08-6.58-2.56-10-2.05-8.56,1.27-17.3.82-25.76,2.89-2.66.65-5.46,1.3-7.76-1.09,8.37-1.21,16.78-2.22,25.11-3.69,12.23-2.15,24.1-6,36.75-6.26a47.93,47.93,0,0,0,18.48-4.16c3-1.33,3-3.1,2.39-5.53-1.2-4.95-5-3.59-8.22-3.24-11.15,1.21-22,4.12-33.16,5.5q-46.9,5.78-93.59,13.24c-8.9,1.42-18.55-.31-26.7,5.14a5.14,5.14,0,0,0-1.24-.06c-1.94-1.23-4.1-.78-6.19-.79a2.73,2.73,0,0,0-2.62,1c-7.86-.7-15.38,1.44-23,2.66l-2.54.77-2.57.33-10.1,1.58-2.79.6c-3-1.35-5.87.67-8.84.49l-2.69,1-.47.24.41.72c0,.5.07,1,.11,1.49l-2.49.45c-2.17-1.15-3.43-3.37-6.16-4-16-3.81-31.86-7.9-47.78-11.9a17.27,17.27,0,0,0-9.06-2.36l-3.3-.93a6,6,0,0,0-4.69-1.22l-6.76-1.59c-21.82-10.31-45.76-13.92-68.64-21.49,4.65-1.72,7.66-8.16,13.21-5.26,8.12,4.24,17.13,4.43,25.59,7,25.19,7.56,50.8,13.45,76.33,19.7,6,1.46,7.35-.07,5.77-6.62-.34-2.35-3.09-4.68-.52-7s6-2.05,9-1.39c2,.43,3.67,2,5.63,2.69,3,1.06,6.26,2,4.91-3.48a10.49,10.49,0,0,1,1.32-8.47c2.47-4.08-.32-15.52-3.26-15-7.66,1.42-5.67-3.8-6-7.56-.42-5.27-.73-10.56-1.12-15.84-.12-1.7-.2-3.47-2.41-3.91-.44-1.34.39-2,1.38-2.55l7.47.53c-2.85,4.79,2.8,6.69,3.5,10.28,1.68,9.24,3.74,18.43,4.91,27.73.65,5.13,1.37,8.78,7.76,6.53.09,3.89-5.52,5.52-2.92,9.49,3.45,5.27,4.26,11.36,5.81,17.23.77,2.89,2.22,4.56,5.46,3.65,4.51,2.66,9.25,2,14.19,1.45,9.93-1.11,19.19-5.32,29.22-5.9,8.24-.48,16.52-1,24.66-2.2,4.4-.68,9.39-.24,13-3.84l4.43-.64c.87.88,1.61.74,2.24-.28h5.69c2.52.61,5,1,6.77-1.59l4.3-.8a4.56,4.56,0,0,0,4.14,1c15.36-2.33,30.79-4.31,45.58-9.36,2.19-.11,3.81-1.46,5.55-2.55,1.83-1.27,3.31-2.72,2.68-5.25,2.88-2,6.21-3.8,9.44-2.07,5,2.68,9.69,2.8,15.41,2.44,11.59-.74,22.79-4.53,34.48-3.9.77,0,1.57-.58,2.37-.82,11.21-3.37,22.83-4.17,34.35-5.54-1.12,3.06-3.75,4-6.56,4a17.63,17.63,0,0,0-11.49,3.95c9.08-3.3,18.65-2.16,27.93-3.52,2.48-.37,6.21-.51,3.63-4.92,1.35-1.26,3-1.1,4.7-1.14.91,1,1.59.86,2.07-.39l4-.93a1.64,1.64,0,0,0,2.17-1.54l2.57.93c.83,1.2,1.51.81,2.14-.2l10-.77c.7,1.52,1.43,1.69,2.21,0,18.44-3,36.83-6.47,55.45-8.33,3.85-.39,8.1-1.14,8.73-4.91,1-6.17,6-8.56,9.43-12.47,2.07,3-1,6.64,1.1,9.73,3.15-2.91,3.15-2.91,5.56-14l1.09-2.88c.1-.48.21-1,.32-1.46.45-1.59.89-3.19,1.33-4.78-2.17-1.24-4.34-.53-6.52,0-3.17.32-4.89-.18-3-4a109.88,109.88,0,0,0,3.93-10.3,10.6,10.6,0,0,1,2.8-5.49c5.45-.48,10.92-.82,16.34-1.49,3.43-.41,5.21-2.6,4.86-6.15-.38-3.82-3.47-2.61-5.4-2.4a206.71,206.71,0,0,1-26,1.32l-17.48,1.22c-9.1-.37-18.08,1.53-27.22,1.2-4.45-.16-10-1.85-13.11,3.75-.4.72-1.24.64-1.44,0-1.67-5-5.72-2.6-8.61-2.47-17.14.82-34.31,1.69-51.44,2.28-30.11,1-60.14,3.59-90.24,4.43-3.94-2.85.36-2.34,1.17-2.41,10.56-.92,21.15-1.6,31.71-2.54,2.34-.2,5.76,1.6,6.84-1.52,1.2-3.51-1.69-5.73-4.21-7.85-2.28-1.93-4.84-2.2-7.66-2.45-6.26-.56-12.14,1.78-18.28,1.95-43.22,1.2-86.42,4-129.68,1.87-14.46-.71-28.78,2.39-43.22,1.26-2-.16-1.6,1.89-2,2a24.06,24.06,0,0,1-5.66.55c-17.38.63-34.77,1.62-52.16,1.75-18.85.15-37.72,2.06-56.55,0-3.91-.42-7.52-1.47-8.94,3.75a10.77,10.77,0,0,0,5.94,1.71c13.73.87,27.52,1.16,41.18,2.66,14.69,1.6,29.45,2.59,44.13,4.34,13.14,1.57,26.89.45,40.42-.39,46.79-2.91,93.65-4.72,140.49-7.06a18.15,18.15,0,0,1,11.42,3c-17.92-1.06-35.93.41-53.68,1.33-21.41,1.11-42.94,2.16-64.38,3.85-20.23,1.59-40.56,1.82-60.82,3.06-4,.24-8.51-.91-12.1,2.16l-3.33,0a3.13,3.13,0,0,0-4-.93c-4.47,3.44-7.68,1.23-11.14-1.67-1-.82-2.8-.71-4.26-.84q-24.79-2.22-49.6-4.38c-3.31-1.76-6.77-1-10.2-.6L570.8,70c-16.58-2.38-33.26-3.56-50-4.46-8.42-.45-16.78-1.92-25.92-3,2.46-2.42,4.47-1.88,6.28-1.82,11.48.36,22.9-.52,34.34-1.2,5.05-.3,8.07-2.44,6.54-7.53s.63-8.86,3-12.46c4.48-6.7,8.8-13.21,10.15-21.54.58-3.59,1.62-9.27,7.54-8.54a62.7,62.7,0,0,0,19-.89,15.54,15.54,0,0,1,8.77.8c5.47,2.27,10.94,4.53,16.43,6.74,4.14,1.67,8.56,2,12.36-.22,4.58-2.63,8.48-3.24,12.66.5,1.77,1.59,4.5,1.79,5.61-.37,2.38-4.69,8.78-8.18,4.81-15-1-1.76-.28-3.87,1.32-5.2,4-3.29,3-7.19,1.35-11-3-7.18-4.41-14.52-2.78-22.26h315a11,11,0,0,0-.83,2.4c-2.9,25.29-2.43,50.77-4,76.14-.23,3.67,2,4.85,5.37,5.74,4.58,1.19,7.23-2.4,10.9-3.26l2.67,7.72C957.82,48,944.48,53.05,931.08,51c-.28,4.27,11.76-.33,3.85,7.61-.55.55.53,1.54,1.45,1.61a40.91,40.91,0,0,0,5.07.17c26.47-1.1,52.95-2,79.4-3.47,11.21-.61,22.61,1,33.67-3-17.36-1.09-34.72-1.08-52.07-1.09a154.83,154.83,0,0,1-22.76-1.78A17.1,17.1,0,0,0,975,39.15c7-1.18,14,0,20.92-.11,3.41,0,4.71-1.37,5.65-4.48,2.41-8,.1-16.28,1.59-24.37,1-5.16.84-10.54,1.07-15.83.11-2.72-.31-5.16-4-4.95-5.67.31-11.47-.33-16.8,2.37-2.39-1.14-4.67-2.7-7.19-3.33-3.9-1-4.42.92-2.54,4-1.8,1.14-5.61,2-5.59,1.45.24-6.66-5-3.32-7.65-4.39-2-.81-3.18-1.82-3.19-4.06,0-7.75,0-15.48,2.52-22.95h33.15c.18,11-8.72,14-16.56,18.24a42,42,0,0,0,14.85-4.17c5.37-2.61,12.2-5.85,11.91-14.07h19.13l-.09,2.17,0,1.6.11-.07q-3.48,35.5-6.92,71c-.09.9.76,1.44,1.68,1.59,14,.33,27.93.54,41.89,1,23.49.83,47,.83,70.46.16,3.83.11,7.65.41,11.47.28s4.13,1.62,3.61,4.74c-1,6-1.75,12.15-2.61,18.22-3.46,6.64-2.7,14.09-3.29,21.1-.84,10.06-4.32,20-2.22,30.27,7-16.46,4.81-34.19,7-51.31l3.36-25.58c1.66-2.4,1.29-5.31,1.95-8s-.22-6.24,3.7-7.33V184.37c-4.09,9.18-5.17,18.79-4.62,28.64,1.82-2.45,1.26-5.29,1.8-7.94.41-2-.81-5,2.82-5.4V239.2c-12.28.07-24.54,3-36.84.18l-.23-.24c-2.81-5.77-9.06-3.5-13.34-5.77-2.43-1.28-7-1.5-6.22-5.09.68-3.27,4.7-1.46,7.29-1.76.24,0,.45-.41,1-1-10.14-1.84-19.88-4.1-29.75-5.25-8.65-1-17.43-.93-24.31,6.19a9.18,9.18,0,0,1-5.2,2.1c-3.07.39-5.06,2.1-6.85,4.66.07-6.23.79-12.1,1.09-18,.41-8.15.1-16.08,11.56-17.38,4.77-.55,4.19-6,3.49-9.63-.81-4.17-4.31-2.29-6.79-1.74-15.11,3.32-30,7.83-45.16,10.65-25.76,4.78-50.57,13.16-76.37,18-22.59,4.2-45,10.48-67.41,16.08-10,2.5-19.92,5.67-29.88,8.54L792.14,248a58.53,58.53,0,0,0-22.37,5.45l-3.16.87-3.24.45-3.12.81c-11.16,1.05-21.85,4.18-32.56,7.21l-1.85.48a10.73,10.73,0,0,0-8.36,2l-3.1.53a9.08,9.08,0,0,0-7.1,1.75l-3.21.57c-5.8,2.37-8.7,10.71-6.27,18.55,1,3.18,1.53,8,3.72,9,6.49,3.11,3.3,6.33,1,9.51-1.07,1.48-2.06,3-1.77,4.56,1.56,8.41-.85,16.9.5,25.22,2.27,14,1.82,28.14,2.54,42.21,1.12,21.82.68,43.7,1.43,65.51.23,6.52-3.38,17.74,10.41,18.44-3,.79-4.39,3.78-7.76,3-2.42-.56-3.46,1.47-2.87,3.68,2.29,8.52,2.19,17.22,2.07,25.92-.05,3.86,1.41,6.09,5.69,5.61,1.12-.12,2.64-.69,3.15,1.38-1.24,2.09-3.4,3-5.65,3.59-2,.48-3.25,1.34-2.59,3.44,2.92,9.34.47,18.92,1.27,28.38.86,10.11,2.8,20.25,1.22,30.5-.11.71.6,2.87,1,2,1.15-2.55,5.18.85,5.13-3,0-1.9.35-3.82.22-5.71-.93-13.63-2.88-26.9,4.1-40.3,2.75-5.28,6.13-10.17,9-17.29.48,3,.79,4.18.84,5.38.44,11.88.7,23.76,1.3,35.63.57,11.22-.73,22.49,1,33.66,1,5.13,0,10.27.07,15.41.17,9.46.52,18.91.57,28.37,0,3.92.49,8.22-3.55,10.87-4.72,3.1-9.21,6.61-14.65,8.48-2.72-6.2-.55-13.29-3.08-19.56-3,6.38,1.16,12.79-.94,19-6.06-2.2-9.36-7.8-14.17-11.54l-.24-4.05c0-.24-.06-.48-.1-.71,0-2.77,0-5.54,0-8.31-1.5-7-.24-14.08-1.17-21.08.05-6.26.7-12.55-.9-18.73-.07-2.29-.14-4.59-.22-6.88.5-24.13-3.13-48.12-2.67-72.22.22-11.62-3.76-20-13.91-25.59-2-1.09-3.85-4-5.89-3-2.45,1.21-1.46,4.6-1.34,7,.67,13.52,1.77,27,2.28,40.55,1,26.63,1.62,53.28,3.81,79.86.12,1.18.23,2.36.34,3.54l.06,4.45c1.4,8.43-2,13.79-10,16.85-2.7,1-5.87,2.08-7.3,5.21l-.09-.13c-2.75,1.52-5.8,2.22-8.6,3.84-14.71,8.53-29.63,16.69-44.48,25a6.47,6.47,0,0,0-4.34,2.63l-1.52.92a1.84,1.84,0,0,0-1.86,1.36l-2.71,1.28c-6.54,2.3-12.21,6.11-17.72,10.19-8.57,3.85-13.65,1.15-14.56-7.91-1.28-12.77-2.38-25.56-3.69-38.32-.21-2.09.13-5-3.62-4.6-3,.35-3.84,2.08-3.52,4.83a18,18,0,0,1-1.25,8.06c-3,1.51-5.69,3.67-9.22,3.86-7.3-8-7.78-8.09-17.81-2.18-3.39,2-6.7,3-10.77,1.24-2.75-1.17-6-2.32-9.19-.6-3.73,2-5.86-.1-7.15-3.28s-2.86-6.64-2.46-10.39c.92-1.71,2.06-3.42.36-5.31-1.82-4.57-4.81-8.68-5.41-13.73.13-3.47-1.73-6.07-3.95-8.37-1.59-1.65-2.7-3.43-2.17-5.66a131.22,131.22,0,0,1,4.2-15.47,19.3,19.3,0,0,0,1.34-9.06c-.66-7.27-3.22-14.95,4.53-21,3-2.37,1.89-7.12-1.37-10.08-1.24-1.12-3.08-1.68-3.65-3.39-1.76-5.29-5.07-4.43-9-2.69q-35.39,15.6-70.87,31c-12.8,5.55-25.29,11.86-38.56,16.3v-8.93c12.24-2.26,23-8,34.87-14.79-6.77,0-11,3.08-15.59,4.86-6.19,2.39-12.11,6.25-19.28,4.83v-7.65l6.39-2.62a2.7,2.7,0,0,0,2.7-1.69l2.65-.74a9.29,9.29,0,0,0,4.89-2.65l0,.06c2.52-.38,4.92-1,6.33-3.43l20.48-6.85c2.15-.47,4-1.33,5.15-3.39l2.22-.6a5.7,5.7,0,0,0,5.33-3.49l2.46-.23a2.42,2.42,0,0,0,2.64-1c4.1-.53,7.11-4,11.36-4.17,11.92-3.65,23.22-8.83,34.56-13.91,1.79-.8,3.77-1.57,3.45-3.94-.38-2.76-2.69-3.11-4.87-2.84-2.67.34-5.67.12-7.67,2.43-3.38,3.89-8.31,4.87-12.62,7-4.52,2.3-9.92,2.42-14,5.75-3.84,2.07-8.47,2.45-11.91,5.41-2.77-.33-5.38,0-7.56,2l-1.54.7c-2,.18-2.86,1.94-4.21,3L414,527.72c-2.2.79-4.39,1.6-5.23,4.09-.33,1-.28,2-1.91,1.64-5.39-1.21-9.25-.41-13.8,2.64-3.91-1.21-6.56,1.72-9.72,3-2.5.05-3.72,2.06-5.3,3.5l-3.19.38-4.14,1V369.27c4-3.68,10.78-2.55,13.92-10.23,2.88,11.12,3.19,19.75-5.16,28.15,5.31-.8,9.21-.81,12.68-2,6.47-2.27,9.43-.12,10.6,6.32.59,3.32,2.6,6.3,6.63,5.11,4.78-1.41,10.18-2.43,11.06-8.94.22-1.69,1-3.54,3-3.55,2.65,0,2.08,2.14,2,3.78-.16,2.35.95,3.64,3.21,3.9,2,.23,3.85-.21,4.72-2.35.76-1.85.47-4.83,3.39-4.58s3.37,3.4,4.39,5.67c1.1,2.46,1.82,6.09,5.26,5.29,3.19-.75,2.71-4.36,2.88-7.07a12.78,12.78,0,0,0-.07-3.81C446,372,453.28,361.1,455.9,349.31c.48-2.13,1.49-4.87,4.2-5.07s2.95,2.59,4,4.34c.79,1.32.65,3.53,3.14,3.42,1.9-2.46.24-4.88-.12-7.26-.42-2.75-1.35-5.77.65-8,3.69-4.06,4.57-9.06,5.27-14,1-6.86,4.93-11.9,10-15.72,6.69-5.06,14.93-7.82,21.1-13.87,1.78-1.74,4.76-1.57,7.35-1.29l.31.27c7.16,7.26,19.53,7.49,27.35,1.25,3.84-3.06,5.06-6.47,5-11-.27-11.58-2-23.62-11.25-30.71a79.31,79.31,0,0,0-27.21-13c-5.34-1.46-9.75-3.13-9.86-9.65,0-2.29-1.87-4.45-3.5-2.9-4.5,4.28-10.09,2.1-15,3.41-7.7,2.05-15,6.14-23.44,5-2.55-.33-2.29,1.9-2.86,3.34-12.34,1.1-13.54,2.61-10.17,12.77-3.81-.2-4.83-2.77-5.19-6-.61-5.48-10.13-10.55-14-7A16.14,16.14,0,0,1,410.8,242c-4.92.33-6.83,3-5.33,7.75,1.73,5.45-.06,9.81-3.43,14.08-1.93,2.44-4.39,4.5-5.32,7.79-2.22,7.85-3.13,8.11-9.27,2.82-2.77-2.39-3.06-2-4.79,1.47-4.66,9.39-4.66,19.15-4.56,29.11.08,7.86,0,7.86-7.43,5.55V262.16c5.33-3.52,12.12-1.61,17.85-4.82l-17.85,2.27V240.48c2.81,3.72.39,9.06,4.82,14C373.35,245.44,374.13,237.5,370.67,230.28Zm142.8,74,.06-.06ZM445.7,530.18c-.35.24-.69.49-1,.74l-1.35.47-1.15.52-2.63.58c-2-2.49-4.31-1.81-6.13-.24a138.13,138.13,0,0,1-12.28,9.61c4.93-.88,10.22,3,14.58-1.62l16.7-10c3.26-.81,6.52-1.63,9.79-2.43,1.11-.27,2.11-.86,2.09-2,0-1.59-1.38-2.15-2.7-2-3.89.59-8.2.3-10.6,4.47ZM777.41-1.77c2.46-1.85,3.79-4.05,1.83-7A2.26,2.26,0,0,0,776-9.49c-2.8,1.48-5.63,8.8-4.54,11.86a2.67,2.67,0,0,0,3.43,1.93c3.82-.77,2.41-3.8,2.63-6.13ZM561.64,492c.06-4.87,3.39-11.15-5.28-12.27.69-4.29-3.76-8.11-1.17-12.58,5,.78,6.3-1.95,6.25-6.33-.1-8.41-2.1-16.78-.42-25.24A140.4,140.4,0,0,1,563.23,458c0,2.1-.42,5.11,2.95,5.42,6.87.62,11.41-5.05,9.75-11.95-.25-1-.3-2.1-.48-3.14-3.8-21.9-5.23-44.22-11.13-65.73-3.52-12.83-6.47-26.12-12.25-37.94-5.87-12-14.85-22.53-22.61-33.61a15.47,15.47,0,0,0-4.74-4.13c-2-1.17-4.64-1-5.61,1.05-1.13,2.41,1.48,3.06,3.22,3.67,4.89,1.7,6.85,5.5,8.2,10.42-6.13-.8-10.52-3.11-13.78-7.84a40.38,40.38,0,0,0-6.66-6.8c-1.67-1.48-3.87-3.93-5.94-1.78-1.71,1.78.59,4.06,2,5.34,12.18,10.83,15.63,26.31,22,40.27,2.55,5.58,3.06,12.11,7.59,16.78l.86,3.62c-.75,2.9-.77,5.67,1.45,8,2.88,9,3.33,18.35,4.34,27.63-2.23-.51-3.05-2.18-3.28-4.19-1.83-16-8.9-30.48-13.27-45.74-4.43-15.44-13.7-27.7-25.29-38.57,3.67,6.14,1,13.83,7,20.35-4.75-.78-8,.85-10.39-2.36a2.76,2.76,0,0,0-4-.26c-2.88,2.34-3.24,14.95-.25,17.32a10.2,10.2,0,0,1,4.14,8.8c-.07,3.27.21,6.62,3.43,8.39,4.71,2.58,5.16,6.21,3.45,10.78-2.62,7-2.49,13.72,2.7,19.72a2,2,0,0,1,.1,3c-3,.14-4.18-3.86-8.26-4,2.17,6.57,1.39,13.77,9.4,16.49a5.42,5.42,0,0,1,2.66,2.58c3.93,7.87,11.5,12.38,17.1,18.7.81.91,1.73,2.19,3.15,1.7,1.77-.61,1.45-2.4,1.53-3.84a94.2,94.2,0,0,0-.8-21.55c-1.25-7.29-1.52-14.37-.23-17.85,3.88,16.9,6,32.85,2.75,49.2-1.47,7.4-5.22,12.39-12.93,13.81l0-.05c2.34,3,6.29,4.16,8.42,7.56,3.81,6.1,7.94,12,11.93,18h0c-2.42,1.19-6,2.13-4.89,5.54,2.55,7.65,5.35,15.38,12.91,20.16,1.39-2.85.68-5.39.49-7.87-.68-9.25-1.63-18.5-2.1-27.76-.17-3.56-1.65-7.74,2.46-10.41-.75,6.28,1.64,12.21,2.6,18.23.85,5.3-1.68,11.75,3.86,16-3.21.83-2.7,3.59-2.63,5.73.3,9.06-.54,18.17,1.78,27.13,1.31,5.11,2.83,10.4,2.76,15.58-.22,16.23,3.54,32,4.88,48,.14,1.6,1.23,3.11,1.84,4.68.85,2.21,2.16,2.45,3.82.88,2-1.92,4.39-4,3.43-7.06-2.44-7.67.17-15.4-1.2-23.35-3.24-18.77-4.13-37.93-6.14-56.91-.3-2.88-.59-6-2.6-8.4Zm-50.82,95.24c3.76,5.49,3.44,12.43,6.44,18.19.12,4.72,2.59,5.89,6.74,4.42,6.18-2.2,13.65-12.14,12.68-18.48-.87-5.69-8.8-8.31-7.75-15.33-4.87-.82-9.28-3.32-14.79-1.39-6.44,2.26-9.34,8.59-16.24,11.12C502.79,587.77,507,586.21,510.82,587.27ZM674,279.91c-1.7.73-3.32.21-5-.31-1.79-.57-3.77-1.61-5.08.71-1.17,2.07-.13,3.75,1.53,4.95,6.26,4.52,4.46,11,5.08,17.3s-9.3,15,3.75,18.9c.85.26,1.23,2.14,1.8,3.28,1.06,2.08,2.12,4.17,3.15,6.27,1.65,3.36,3.75,5.17,7.46,2.47,1.57-1.14,3.47-2.33,4.89,0,1.3,2.19,1,4-2,4.7-2,.48-1.87,2.1-1.11,3.58.86,1.7,1.7,3.58,3.75,4.07,1.86.45,2.75-1.14,3.29-2.44a15.09,15.09,0,0,0,1.33-5.49c.06-13.37,0-26.74-.1-40.12,0-4.81-2.27-8.06-6.95-9.49-4.05-1.23-7.65-3.92-12-4.08-3-.11-3.12-2.3-3.72-4.26,5.14-1.74,8.69,2.59,13.15,3.51,2.2.45,4.13,1.18,5.35-1.52a10.55,10.55,0,0,0-5.6-13.62c-15.55-6.09-31.06-12.29-46.67-18.25-10.68-4.08-21.48-7.87-32.27-11.67-1.49-.52-4.27-2.07-4,1.49.43,5,18.17,17.25,23.06,16.25a3.48,3.48,0,0,0,1.66-.88c3.3-3.41,4.62-1.07,5.72,1.94.58,1.57.89,3.36,3.55,3.61-.06-3.66,2-6.16,5.49-6.33,3.7-.17,4.93,3.17,5.44,6.06,1,5.53,5,7.84,9.24,10.45C663.42,274.18,669.91,274.93,674,279.91ZM670.4,449.25c3-2.19,2-5.46,1.84-8.24a616.2,616.2,0,0,1-.41-61.84c.21-5.77,4.89-6.21,7.79-6.86,3.26-.73,1.94,3.73,2.51,5.88.48,1.79.1,3.8.19,5.71q.88,19.39,1.83,38.79c.11,2.39.34,5.25,3.51,4.83,2.42-.33,3.74-2.68,3.67-5.31-.49-17.59-.94-35.19-1.59-52.79-.17-4.51-4.27-7.5-8.41-5.95-4.92,1.84-10.42,2.38-14.61,6.66a16.1,16.1,0,0,1,.26-6.21c3.07-10.34,1.49-13.76-8.16-18.24a12.72,12.72,0,0,1-5.07-4.52c-.54-7.84-5-13.68-9.78-19.39-1.59-1.9-4.4-4.06-3.42-6.47,1.75-4.25-.88-6.88-2.41-9.93-2.15-4.27-9.15-5-8.46-11.5,0,0-1.26-.39-1.61-.15-3.1,2.22-4.56-.48-6.43-2-8.24-6.82-16.36-5.09-20.62,4.42-.73,1.63-1.54,3.21-3.45,3.36-5.9.45-3,2.86.18,5.86-6.42-.64-11.43-1-16.37-1.71-2.21-.33-4.39-.88-5.83,1.12-3.67,5.07-8.17,7.19-14.69,6.74-6.09-.41-8.66,4.76-6,10.17,2.16,4.37,4.29,8.76,6.25,13.22,6.8,15.52,14.26,30.78,16.63,47.86,3,21.63,7.25,43,12.1,64.31.52,2.29-.09,5.66,3.37,6.07,3.08.37,4.1-2.52,5.49-4.59l.27,10.06c-1.32-1.58-2.32-3.84-5.06-2.41-2.18,1.13-1.85,3.13-1.62,5s.56,3.78.88,5.66c4.52,26.76,11,53.1,16.75,79.6,1.66,7.74,3.37,15.73,7.52,22.76,1,1.67,2.29,3.49,4.34,3.26,2.35-.27,2.66-2.82,2.71-4.53.33-13.29,1-26.72-4-39.38-4.72-11.85-9.17-23.42-1-35.6.83-1.24.68-3.28.63-4.93-.15-5.93-.45-11.86-.7-17.79l2-1.23c3.17-1.14,6.62-1.56,9.4-3.69l2.28-.06c0,6.34,2.15,13.51-.9,18.81-4.27,7.41-3.33,14.62-2.45,22,1.34,11.26-.19,23,5,33.7.54,1.1.39,2.66,2,2.91a2.58,2.58,0,0,0,2.89-2c1.06-4,3.55-3.73,6.88-3.17,6.1,1,17.78-4.91,18.18-10.19.61-8,4.44-15.39,4.12-23.4-.63-15.65-1.53-31.29-2.37-46.93C666.27,453.58,666.72,450.62,670.4,449.25ZM655.07,574.57c.83,5.29,3.57,9.65,1.93,15.09-1,3.23.87,6.67,2.06,9.84.84,2.26,4.19,2.7,4.17,1-.05-4.12,4.22-6.56,3.38-10.45-.59-2.73.25-4.8,1.21-7.25,5.56-14.2,1.83-28.12-1.87-42-.57-2.14-2.91-2-4.86-2.25-7.89-.85-13.82,4.79-21,6.27-3,.62-3.57,3.15-2.8,6.06a51.66,51.66,0,0,1,1.18,6.89c.73,6.1,1.87,12.36-1,18.14-4.3,8.76-13.27,11.93-23,8.19-6.86-2.64-7.34,3.3-9.16,6.76-1.94,3.7-.47,6.19,4.16,5.86,1.73-.12,2.62.9,1.72,2.28-3.06,4.74,1,6.37,3.55,8.67,3,2.75,5.78,1.35,8.65-.49a16.14,16.14,0,0,1,12.16-2.43c10.94,2.07,14.81-2.3,13.93-13.52C649,585.69,646.43,578.3,655.07,574.57Zm-88.31-62.33c2.65,17.5,2.61,35,7.39,51.86.81,2.86,1.8,6,5.81,5.35,2.7-.41,5.87-.51,7.89-2,3.67-2.73,10.65-2.94,9.66-9.79a140.46,140.46,0,0,0-4.58-21.76c-6.68-21.25-10-43.18-14-65-1.66-9.07-2.51-9.59-10.75-5.08-2.31,1.27-3.5,2.72-3.51,5.41,0,4.74.11,9.41,3.36,13.24,1.36,1.6,1.44,2.9.12,4.46-2.13,2.53-1.75,5.56-1.6,8.52C566.75,502.5,568.25,507.51,566.76,512.24Zm555-292c4.9-17.6,6.43-35.92,9.08-54.07,1.72-11.72,3.19-23.47,4.89-35.2.26-1.8,3.18-4.19-.51-4.91-2.65-.51-2,2.56-2.36,4.26-2.26,11.83-3.4,23.78-4.51,35.77C1126.72,184.23,1124.05,202.23,1121.8,220.28ZM599.57,573.11c-1.83,3.25-4.79,6-4.2,10.09,10.44-2.57,11.07-3.51,7.34-11.64-1-2.26-1.06-6.07-5-5.29a11.56,11.56,0,0,0-8.78,6.57c-.58,1.29-1.1,3,.38,4.07,1.26.9,2.32-.39,3.38-1C594.7,574.75,596,572,599.57,573.11ZM927.9,40.2l1.79.11q1.51-24.15,3-48.31L931-8.1Q929.46,16.05,927.9,40.2ZM561.69,360.66c3.77,13.28,6.4,26.77,9.91,40A109.29,109.29,0,0,0,561.69,360.66ZM543.55,560.43c.67-4.54,1.22-7.65,1.55-10.78.21-2,.86-4.37-1.55-5.66a4.45,4.45,0,0,0-4.8.55c-2.19,1.53-2.61,3.83-2,6.22C537.62,554.41,540.46,556.71,543.55,560.43ZM911.18,157c2-1.43,6.75.52,7.16-3.69.18-1.84-1.9-5.64-5-5.1-2.82.49-7.51-.68-7.65,4.43C905.57,155.57,907.54,157.14,911.18,157ZM547.9,554.69c3.55-14.79,3.67-19.5,0-24.17Zm-8.17,25.6c.46-2.06.91-3.65,1.16-5.26.28-1.85.74-3.79-.76-5.37-.73-.77-1.5-.42-2.1.29-1.41,1.64-2.6,3.47-1.85,5.69C536.75,577.31,536.83,579.46,539.73,580.29ZM527.89,228.71c-.48-1.77-1.67-3.41-3.77-3.38-2.6,0-3.52,2.09-3.56,4.41s1.65,2.74,3.49,2.65C526.2,232.3,527.69,231.36,527.89,228.71ZM506.1,520.83c2.92-3.8,8-5.09,10.61-9.08C512.2,513.71,506.33,514,506.1,520.83Zm23,12.4c-.93-2,1.14-6-2.68-6.32-2.29-.21-2.49,3-2.49,5,0,2.52.3,5.53,3.53,5.6C529.69,537.56,528.91,535.05,529.06,533.23ZM1084.63,215c-6-.56-11.36-3.32-17.25-3.7-1.23-.08-2.7-.27-3,1.45a1.48,1.48,0,0,0,1.49,1.71C1072.16,214.31,1078.24,217,1084.63,215ZM542.91,527c-2,4.31-3.16,7-4.4,9.57-.55,1.17-1.19,2.34,0,3.39a2.93,2.93,0,0,0,4-.17C547.08,536.11,544.26,532.26,542.91,527Zm-67.45-8.49c5.72,2.6,8.09-3.75,12.43-2.9a1.78,1.78,0,0,0,2-2.41c-.58-1.55-2.09-1.31-3.25-.72C483.12,514.31,479.69,516.24,475.46,518.54ZM715,254.67c2.38.09,4,3.8,7.39,1.6C720.21,253.62,718.19,252.16,715,254.67Zm-1.14,333c2.44-4.76,1.41-8.77,1.82-12.58a1.79,1.79,0,0,0-1.69-2.2c-1.69,0-2.11,1.43-1.66,2.67C713.59,579.08,713.41,582.85,713.83,587.63Zm-166.92-1.57c-1,2.77-1.81,5.2-2.74,7.89C550.61,592.65,550.62,592.61,546.91,586.06ZM621.83,38.31H611.66A17.2,17.2,0,0,0,621.83,38.31ZM969.41-15.13c.21-1.07-.13-1.81-1.22-1.66a2.71,2.71,0,0,0-2.35,2.54,1.36,1.36,0,0,0,1.37,1.67C968.88-12.57,968.83-14.19,969.41-15.13ZM669.13,514.93c-1.62,3.77-1.21,5.94-.18,9.8C670.47,520.79,670.44,518.63,669.13,514.93ZM603.35,38.74l-.42.19.36.24Zm39.49,500.35.24-.32-.39,0Z"/><path class="s" d="M495.24,620.76c-.4,3.75,1.12,7.07,2.46,10.39s3.42,5.27,7.15,3.28c3.22-1.72,6.44-.57,9.19.6,4.07,1.73,7.38.76,10.77-1.24,10-5.91,10.51-5.85,17.81,2.18-1.34,6.12-3.77,8-10.36,6.44-4.15-1-6.65-1.28-7.32,4-.87,6.78-8.45,4.72-12.23,8.23-2,1.83-2.52-3.88-4.5-5.6-1.77-1.54-2.87-5.51-5.52-3.66-2.22,1.55,1.05,4,1.84,6a14,14,0,0,0,2.1,3.92c2.64,3.15,1.91,5.27-1.66,6.87s-4.54,5.12-6.19,10.16c6.64-3.67,12.19-4.12,18.14-1.39,2.26,1,7.33,1.2,5-4.55-.93-2.33.38-3.16,2-3.84,3.49-1.48,7.42-2.39,6.75-7.64-.08-.69,1.14-2,2-2.28,6.77-2,11-7.44,16.38-11.34,4.47-3.25,4.63-5.24,2.77-9.17a18,18,0,0,0,1.25-8.06c-.32-2.75.56-4.48,3.52-4.83,3.75-.44,3.41,2.51,3.62,4.6,1.31,12.76,2.41,25.55,3.69,38.32.91,9.06,6,11.76,14.56,7.91,5.53,0,10.55-1.85,15.62-3.87,3.61-1.44,4.12-3.31,2.1-6.32l2.71-1.28,2,.74c-.06-.7-.11-1.4-.16-2.1l1.52-.92,6.91,3.51c2.46,5.08,5,10,10.77,12-2.39-5.16-5.72-9.4-10.87-11.88,0-2.39-3-3.63-2.47-6.24,14.85-8.29,29.77-16.45,44.48-25,2.8-1.62,5.85-2.32,8.6-3.83l-.2.25.29-.13c1.43-3.13,4.6-4.17,7.3-5.21,8-3.06,11.4-8.42,10-16.85,7.22-.78,12.15-6.26,18.44-9,.93,7-.33,14.11,1.17,21.08-2.8.57-2.91,3.7-5,5.14-4,2.79-1.57,3.71,1.56,4.09-.24,2.74,1.46,3.58,3.75,3.84,4.81,3.74,8.11,9.34,14.17,11.54l.42.06.41-.07c.92,1.24,1.88,2.09,3.06.26l.13.26c5.44-1.87,9.93-5.38,14.65-8.48,4-2.65,3.56-6.95,3.55-10.87,0-9.46-.4-18.91-.57-28.37-.09-5.14.94-10.28-.07-15.41A55.14,55.14,0,0,0,751,568.42c4.08-3,9.06-3.54,13.16-7.68,6.75-6.79,17.31-9,24.81-15.53l-.07.1c1.68-.91-3.2-4.75.89-3.5,5.26,1.6,10.82-.69,15.7,2.19.32,6,5.56,6.59,9.45,8.65.73.39,2.11,0,2.06-.81-.27-4.33-4.77-4.12-7.09-6.3-1.22-1.14-2.35-2.58-4.36-1.6-3.41-3-4.1-5.39,1.21-6.83,5.48-1.47,9.3-5.65,13.89-8.58l-.1,0a50.8,50.8,0,0,1-2.74,4.9c-4.31,6.18-4.3,6.06,2.9,8.6,1.9.67,3.51,2.14,5.25,3.24-.34.18-.82.28-1,.56-.29.45,0,.74.46.41.27-.2.34-.67.5-1,1.92.41,4.73.72,5.23-.92,1.43-4.73,4.13-5.66,8.61-4.93,3.73.61,7.47.39,10.39,3.55,4.3,4.64,9.74,7.18,15.63,9.68,4.63,2,11,3.45,13.3,8.77,2.1,4.9,4.82,5.92,9.34,4.38l0-.05c3.71,1.82,7.29,4,13,4.12-2.56-2.72-3.94-4.69-6.57-5.38-5.23-1.36-7.89-6.19-11.94-9.16-7.47-5.46,2.45-7.77,2.82-12a3.67,3.67,0,0,1,.16-.61l1.22-.91-.42-.3-.71,1.3a43.26,43.26,0,0,0-4.4.68c-4.07,1-7.85,3.65-12.09-.79-1-1-5.21-3.7-8-2-4.73,2.92-7.78-.3-10.64-2.64a17.54,17.54,0,0,0-6.55-3.85c-5.5-1.64-6.22-5.94-2.5-10.54,1.1-1.35,3.19-1.38,3.46-4,.56-5.38,4.94-7.2,9.15-3.91,4.83,3.77,10.85,4.65,16.13,7.31,1.22.61,3.26,1,3.93-.75.79-2-1.16-2.5-2.59-2.67-5.71-.66-8.53-5.57-14-8.62,7.64-1.92,13.43.16,19.25,2.24,2.34.83,5.64.52,6.28,3.46.54,2.44-2,4-3.65,5.57-3.48,3.29-3,6,1.38,8,2.12,1,4.4,1.61,6.45,2.69,3,1.57,4.8.93,5.79-2.29.6-1.93.17-5.22,4-1.89,1,.83,6.41-1.57,6.58-4.71s.87-5.76,3.49-6.67c3.17-1.11.9,4.47,4.15,4.17,5-6.16,1.06-10.62-4.11-14.63,2.93-1.17,4.35.53,5.93.5,3,0,7.57.86,8.2-2.48.71-3.77-3.58-2-5.78-2.49-.6-.13-1.56-.43-1.65-.81-1.36-5.56-6.41-4.33-10.08-5.69-1.83-.67-3.83-2-5.24-.24-1.7,2.1,1.32,2.53,2.08,3.81,1.3,2.18,2.94,4.83,1.87,7-1.24,2.47-3.75,0-5.72-.15-.82-.07-1.94-.25-2.44.18-4.22,3.7-8.1,6-14.09,2.4-2.06-1.23-5.35-1.72-7.94-3.1-3.13-1.67-2-3.28,0-4.73,5-3.69,5.69,1.47,7.79,4.4,2.66-5,8.29-7.79,8.27-14.12,0-1.12,1.4-1.64,2.49-1.49,3.88.51,5.89-2.14,7.6-4.75s3.23-2.86,4.42,0c3.63,8.81,11.46,9.58,19.67,10.44-5.52-1.77,2-8.6-4.67-10,14.8,2.59,26.69,11.63,41.11,17.51-.88-3.59-4.29-4.11-2.57-7s3.68-1.21,5.58-.84c3.24.62,6.46,1.4,11.17,2.44-2.62-4-5.48-5.17-8.24-6.51q-18-8.76-36-17.64c-1.28-.63-2.93-1.07-3.08-2.88a1.6,1.6,0,0,1,1.59-1.66c1.88-.17,5.35-.49,5.42-.17,1.51,7.28,8.4,3.87,11.66,4.47,7.82,1.44,14.6-10.85,11.06-18.29-.66-1.39-1.76-2.66-.12-3.88,1-.71,2.67-1.7,3.34-1.32,2.83,1.6,6.55,3.1,5,7.47-.89,2.52-2.28,4.88.69,6.69,2.78,1.69,5.33.45,7.59-1.39,2.51-2,5-4.14,8.55-3.3,2.22.53,3.51,1.53,1.28,3.9-4.44,4.74-9.11,8.17-16.13,5.46a6.63,6.63,0,0,0-6.34.44c.4,3.18,4.69,1.69,4.77,5.1-1.43.76-2.93,1.53-4.39,2.34-2.53,1.41-6.46,2.58-4.35,6.3,1.77,3.12,5.55,2,7.93.24,3.51-2.64,7.46-3.91,11.49-5.23,1.16-.38,3-.95,3.17-1.77,2-7.75,9.49-8,14.78-11.26,2.62-1.62,3.66-1.1,4.92,1.89,1.52,3.59,4.25,6,8.3,2.08,1.79-1.75,4.49-.91,6.66-1.49,4.74-1.27,8.27,2.57,13.3,2.28s9.36,2.34,14.57-2.53c2.46-2.29,7.57-3.29,11.29-5.81,3-2,4.27-3.86,3.75-6.93-.58-3.43-3.24-4.76-6.49-5h-.78l.38.4c-1.28,5.9-3,6.84-7.2,3.43-2.94-2.37-5.2-5.27-9.74-4.55-1.92.3-3.3-2.41-1.37-3.39,3.17-1.63,2.92-7.1,7.86-6.47.9.11,2.82-.52,2.44-2.2-.18-.8-1.37-1.63-2.27-2-6.56-2.38-13.15-4.64-19.73-6.93l-.06-4.55c1.32-.18,3.29.65,3.69-1.14.34-1.51-1.25-1.81-2.58-1.75.53-4.33-.66-8.78.87-13,4.65-3.05,9.49-2.85,14.56-1.14,1.51.51,3.3.22,5,.29l-.14-.1c5.91,6.27,13.66,7.28,21.65,7.6l-.09.09-8.39-5.26c5.37-2,9.85,2.91,15.54-.1L1043,398.28c3.88-2.36,7.16.75,11.57-1-5.87-2.75-11.38-4-16.49-7.51,8.24-3,15.47-3.65,23.47-.83,7,2.46,14,4.4,20.29,8.7,2.51,1.73,6.17,3.4,8.89,2.88,5.66-1.07,11-3.83,16.13,1.27.34.34,1.61-.18,2.42-.39,5.19-1.34,8.17-9.07,8.07-14.75-.11-6.4-8.18-10.35-3.52-18.72,2.44-4.4-2.81-10.63-10.18-11.45-2.86-.32-8-.93-7.74-4.08.26-4.08,5.07-3.28,8.39-3.34,1,0,2.38.38,2.7-.94s-.79-2.33-1.83-3.07a5.47,5.47,0,0,0-4.29-.76c-4.2.77-7.8-1.77-11.82-2.06-1-.08-2.15-.62-2-1.95.06-.44.9-1.2,1.26-1.14,6.84,1.23,14.55-4.17,20.66,2.72,2.28,2.57,5.64,3.5,7.93,1.18,4.2-4.23,8.83-6.18,14.91-5a31.91,31.91,0,0,0-7.65-4.13c-4.59-1.53-9.47-3.49-14.1-1.07-3.51,1.84-5.48.91-7.57-1.75-3.26-4.17-7.22-4.72-11.81-2.21a12.85,12.85,0,0,1-4.73,1.71c-2.06.17-3.35-.83-2-3.15,2.5-4.28,1.93-5.68-3.27-6.29-4-.47-7-2.1-10.37-6.44,7.33,1.55,13.29,1.85,19.3-.12,5.3-1.74,12,4.62,17-3.35-10.07,3.09-19.14-1.75-28.71-1.23-14.38.78-28.58-1.53-42.59-4.87-3.17-.76-4.18-2.61-3.95-5.48.39-4.84,1.07-9.66,1.32-14.5.21-4.21,2.35-5.42,6.23-5.1a192.64,192.64,0,0,1,36.18,6.8c14.26,4,28.82,6.66,43.06,10.66,11.35,3.19,23.29,4.25,34.13,9.33V410.07c-4.93-2.51-8.79-1.32-12.94,2.37-2.44,2.16-.38,6.09-3.91,7.12,1.53,1.67,3.75,1.8,5.69,2.56,3.74,1.46,7.44,3,11.16,4.53q0,140.9.12,281.8c0,4.37-.85,5.22-5.22,5.22q-385.72-.2-771.45-.13c-2.58,0-6.29,1.31-5.1-3.81,2.87-2.34,5.47-6,9.43-1.26,1,1.15,2.76.55,4.25.22,4.49-1,7.44-4.89,11.13-6.52,9-4,8.25-7.61,2.81-14.36-4.27-5.31-8.88-6.37-13.16-.72s-4.49,5.59-8.09-.9c-2.46-4.43-1.56-7.09,2.87-8.81,3.52-1.37,7-2.56,11-2.22,4.75.42,8.24-2.94,12.09-5,3.33-1.8-1.57-2.84-.64-4.53a8.21,8.21,0,0,1,.89-1.63c1.59-1.75,5.85-2.92,4.31-5.22-1.94-2.89-4,1.72-6.39,1.89a25.68,25.68,0,0,1-4.38.08,5.09,5.09,0,0,0-4.62,1.58c-3.79,4.29-8.68,6.55-14.11,7.85-1.5.37-3.32.57-2.51,2.7,2.09,5.45-1.85,4.74-4.9,5v-10.2c2.5-.18,5.1,0,7.47-.62,3.78-1,7.37-7.44,5.46-10.39-2.21-3.41-5.57-.38-8.36,0-1.59.23-3.05,1.34-4.57,2.05v-6.37c1.44-1.39,2.89-2.77,4.26-4.08,1.94,1.16.65,7.31,4.41,3.59,4.44-4.37,5.39-1.41,7.2,1.72,1.41,2.45,2.8,5.5,5.74,1.28l1.28-.88-.37-.37-.82,1.34c-1.55-2.47-5.67-5.23-2.38-7.82,3.07-2.42,8-3.24,10.82,1.73,1.39,2.46,3.27,1.44,5,1,3.31-.89,7.16,3.79,9.33.44,2-3.13-2.86-5.44-4.08-8.53-1.6-4.06-1.41-5.29,3.19-5.09,7.17.3,14.35.23,21.53.32l-.1.09c.06-2.78-.07-5.37,3.79-6.19,2.62-.56,4.49-2.74,5.57-6.38-4.12,1.48-6.54,0-7.32-3.32-.93-3.9,3.39-1.32,4.43-3.14a4.14,4.14,0,0,1,2.06-1.42c8.69-3.44,16.22-11.61,27.08-6.11,2.77,1.39,3.64-1.63,2.58-3.17-5.68-8.33,2.45-5.7,5.37-6.72a5.56,5.56,0,0,1,5.81,1.7c2,2.11,3.68,1.57,5.16-.6.6,5,3.59,9.16,5.41,13.73-2.56,1.29-5.38.45-8,1a4.12,4.12,0,0,0-3.42,4.6c.48,2.35,2.81,1,4.28.65C490.71,621.14,492.84,620,495.24,620.76Zm14.48,52-.12-.2.15.17a10.61,10.61,0,0,0,.68,1.06c.08.1.33.06.5.09Zm626.22-206.69c-1-.42-1.75-1.77-3.65-.94l3.76.84c.8.71,1.54,1.57,3,1ZM938.1,544l-3.94-5.15c.21,0,.44.14.62.08,3.4-1,3.79-7.76,9.35-4.94.27.14.73-1.53,0-2.07-2-1.51-4.21-3-6.87-2.68s-1.67,3.22-2.8,4.76c-.81,1.1-.17,3.26-.18,4.94-1.61.34-3.81.49-1.68,2.86a6.68,6.68,0,0,0,5.49,2.2c1.24,2.63,3.76,2.18,7.43,3.69C942.42,544.77,940.53,543.71,938.1,544Zm-24-14.22c-.83-1.21-2-2.9-3.25-1.29-.79,1,1.57,1.4,2.43,2.16.18,1.36-1.52,3.5,1.45,3.7,1.32.09,2.58-.42,2.69-1.91C917.53,530.11,915.83,529.81,914.06,529.74ZM442.26,645.86c-.72,1.33-1.41,2.7.56,3.53.3.13,1.25-.42,1.33-.78.34-1.54-.92-2.07-2-2.68a22.55,22.55,0,0,0-.44-2.48c-.3-1.05-.91-2-2.13-1.94a1.89,1.89,0,0,0-1.37,1c-.55,1.47.29,2.43,1.58,2.92A13.36,13.36,0,0,0,442.26,645.86Zm676.19-246.61c-1.41-.62-1.88-.24-1.33,1.24,3.47,2.17,7,3.83,11.23,2.52C1125.28,401,1122.12,399.36,1118.45,399.25ZM1050.35,442c-1.47-1.57-2.27-4.13-5.18-3.54-.19,0-.45.73-.36,1,.91,3,3.35,2.53,5.63,2.42,4.13,2.56,8.45,4.5,13.38,4.44C1060,442.77,1055.77,440.31,1050.35,442ZM839.77,596.51l-.34-2.24-.63.18,1.05,2c-3.29,5,3.46,3.56,3.8,6.23C843.68,599.73,844.18,596.51,839.77,596.51Zm178.67-122.73c.41,1.45,1,2.79,2.72,3,.27,0,1-.95.91-1.21-.68-1.66-2.33-1.42-3.72-1.68-2.07-1.92-4.66-2.76-7.29-3.5-1.26-.36-2.69-.45-2.95,1.25a2.11,2.11,0,0,0,2.18,2.52C1013,474.16,1015.72,473.91,1018.44,473.78ZM1044,425.5l0-.08c1.93,3.29,6,4.11,8.14,2.81,3-1.79.2-5.44-.78-7.82-2.6-6.29-5.69-.47-8.51.19-1.56.37-3.73,1.27-3.47,3.16C1039.67,426.42,1042.2,425.36,1044,425.5Zm-53.09,88.6c6.81-1.47,8.33-9,13.84-12.15,1.82-1,.08-3.1-1.68-3.67-4.32-1.4-8.23-3.28-10.63-7.41a2.45,2.45,0,0,0-2.66-1.34,20,20,0,0,1-11.74-.74c-1.4-.5-2.88.38-2.57,2.92,4.45-1.84,7.08,4.36,7.8,4,5.81-3.2,6.69,5.82,11.51,4.33.09,0,4.13,1.09,3.06,3.82-.81,2-3,2.14-4.89,2.17-.84,0-1.69-.1-2.53-.16a4.17,4.17,0,0,0-.32-.55,2.25,2.25,0,0,0-.41-.34l.82.8c-2.05,5.15-6.37,4.66-10.59,4.14s-7.89-.82-5.62,5.34c.63,1.7,0,3.55-1.73,3.11-4.16-1.09-7.57,2-11.52,1.47l.08-.08c-.46,1.69-.93,3.37-1.38,5.06a7.49,7.49,0,0,1-2.48.3c-2.49-.57-3.33,1.31-4.36,2.82-.59.85-.06,1.61.86,1.9A5.34,5.34,0,0,0,959,528.6c1.43-1.2,1.35-2.47.56-3.91,1.64-.36,3.32-1.12,4.93-1,7.55.5,15.26,2.25,21.66-3.9-.38-1.69-3.56-1.87-2.45-4.45,2.08-.77,4.47,2,6.42-.48ZM767.68,582.7a4.47,4.47,0,0,1,5.1.44c4.39,3.48,6.08-.87,5.41-3-1.94-6.16,2.74-5.64,5.79-7.06,1.87-.87,3.54-.51,5.48-.14,1.69.32,4-.64,4.48-2.61.39-1.73-1.75-2.16-3-2.72-9.68-4.19-18.79-1.65-27.74,2.5-.72.34-1.8.55-1.11,1.7,3,5-1.6,6.38-4.2,8.23-4.56,3.25-3,5.22.94,7a21,21,0,0,0,5.38,1.84c2.09.31,4.74.31,5.93-1.44C771.58,585.31,767.42,585.16,767.68,582.7Zm79.65-24.19c1.46.13,3,.59,4.36.31,2.53-.51,4.28-2.3,3.49-4.92-.62-2-1.77-4.54-5-3.14a18,18,0,0,1-3.56,1.21c-2.7.54-5.32,2-5,4.67C842,560,845.31,558,847.33,558.51ZM428.12,667.72c.08-4.71-5.35-8.37-.71-12.53a5.65,5.65,0,0,0-1.51-2.55c-.89-.81-2.57-.53-2.75.4-1,5.15-5.89,3.59-9.09,5.52C420.49,658.81,422,666,428.12,667.72Zm24.15-43.2c3.07-1.81,6.66-3.89,10.17-6.08a1.59,1.59,0,0,0,.32-2.26,1.71,1.71,0,0,0-2.61-.77c-2.91,1.85-6.28,2.15-9.49,3.05a2.85,2.85,0,0,0-2.23,3.34C448.79,623.25,449.87,624.32,452.27,624.52Zm350.11-32.19c-4.65-.17-7.64,2.45-10.84,4.45-1.27.8-3.65,1.71-2.43,3.74,1.12,1.85,3.36,1.57,5.19.64,2.81-1.43,5.21-3.63,8.57-4,1.46-.15,3-.89,2.91-2.79C805.59,591.89,803.46,592.49,802.38,592.33Zm54.91-58.52c8.13-2.23,11.89,8.52,20.2,6.19-4.5-5-12.86-5.08-13.5-14ZM1081.1,445a90.75,90.75,0,0,0-28.45-11.06A93.64,93.64,0,0,0,1081.1,445Zm-223.17,129c4,.29,5.25-3.31,5.58-5.2s-1.91-6.31-3.84-6c-4.48.71-2.09,6-4.14,8.95C854.31,573.38,856.84,573.63,857.93,573.91Zm245.22-121.2c7.45,4.2,14.76,8.44,24,9.5ZM951.31,515.27c-.59-2-1.36-4-1.8-6.16-.52-2.48-2.4-3.33-4.41-4-.89-.28-1.42.46-1.65,1.43A7,7,0,0,0,951.31,515.27ZM792.9,586.67c-3-.35-4.9-3.2-7.85-3.57-1.69-.21-3.67-.16-4,2s1.67,1.88,3,2.42C787,588.8,789.79,587.94,792.9,586.67ZM456.41,632.24c-4.38,1.1-6.82,3.7-9.51,5.67-1.74,1.28-.8,2.63.87,3.2s4.53,3.1,5-.07C453.26,638,455.29,636,456.41,632.24Zm401.72-104.7a6.46,6.46,0,0,0-7.06-4.2c-2.2.19-5.31,1.45-4.54,3.36,1.52,3.8,6.1,1.28,9.08,2.73C856.77,530,858.14,529.37,858.13,527.54Zm-259,156.67c-.23-2.79-1-5.05,1.2-7.58.83-.93-5.53-1.73-6.48.61C592,681.86,599,680.33,599.17,684.21ZM1062.39,401c2.32,3.57,5.69,4.95,9.55,3.9,3.21-.88,1.56-4.24,3.15-7.14-2.88.9-4.66,1.37-6.38,2C1066.78,400.49,1064.51,399,1062.39,401Zm-33.81,22.76c4.89,6.17,14.85,10.05,20.67,8.26C1043.05,427.49,1036.46,425.45,1028.58,423.75ZM485.79,664.09c1.85,4.69,3.41,9.62,9.74,12.57C493.9,670.11,489.57,667.29,485.79,664.09ZM967.36,506.7c2.53-.61,3.11-2.93,3.64-5.11a1.48,1.48,0,0,0-1.83-1.86c-2.37.72-4.85,1.92-5.27,4.55C963.68,505.62,965.59,506.45,967.36,506.7ZM940.58,511c-4-4.13-7.78-3.93-11.82-2.44-1,.38-1.86,1.14-1.51,2.37a2.2,2.2,0,0,0,2.38,1.64C933,512.18,936.38,511.63,940.58,511Zm129.27-115.58-14.58-4c-.13.56-.27,1.12-.4,1.68C1059.78,394.49,1064,398.42,1069.85,395.43ZM638.74,659.25c.48,1.74-2.8,3.56.44,5.14,1.42.69,2.66.45,3.14-.94C643.36,660.46,640.2,660.6,638.74,659.25Zm338.43-85.39,9.06,1.16C983.72,571.25,980.92,570.69,977.17,573.86Zm64.17-41.44c3.46,2.27,5.67,4.21,10,2.17C1048.34,532.49,1045.93,531.77,1041.34,532.42ZM831.89,549.84c2.48-.13,4.39,0,6.16-.39s4.46-1.5,4-3.26c-.72-2.8-3.07-.5-4.72-.33A6.12,6.12,0,0,0,831.89,549.84ZM452.65,629.06c6,1.22,8.7-2.11,11.62-5C460.1,624,456.19,624.52,452.65,629.06ZM1073,411.36c2.74,1.22,3.65,9,8.76,2.48A12.06,12.06,0,0,0,1073,411.36Zm47.09,8.73-12.74-4.32C1110.61,419.74,1115.28,419.89,1120.07,420.09ZM570.4,691.2c-1.51-4.44-1.51-4.44-4.78-5.78A11.18,11.18,0,0,0,570.4,691.2Zm187-60.05c1.89,2.17,3.83,3.83,6.54,1.7a2,2,0,0,0,0-3.32C761.53,627.56,759.6,628.78,757.39,631.15ZM971.16,485.06a6.34,6.34,0,0,0-7.28,1.55c-.65.63,0,1.7,1,1.92C967.81,489.23,969.49,487.65,971.16,485.06Zm-133,86.48c-3.06,2.36-5.74,1.2-8.29,2.34C833.25,577.71,835.76,577.92,838.14,571.54ZM660.83,686.31c2.82-.89,4.65,1.21,7.76,2.83C665.05,684.31,665.05,684.31,660.83,686.31ZM896.9,585c-1.32-3.76-4.75-3.37-6.76-5.67A8.92,8.92,0,0,0,896.9,585Zm222.92-157.16c-3.61-2.17-6-4-9.47-2.91C1113.34,425.14,1114.64,429.74,1119.82,427.83Zm-.16-22.51c-1.32.37-3,.95-3.09,2.93-.08,1.34,1.19,1.59,2.25,1.39,1.65-.33,3.31-1.09,3.51-2.91C1122.45,405.59,1121.12,405.26,1119.66,405.32Zm-707,284.6c-2.53-.8-3.83.24-4.89,1.81,0,0,.25.26.42.43C409.9,692.53,411.34,692.16,412.65,689.92ZM759.12,612.3c1.33-.07,2.27-1.18,2.68-2.68a1.15,1.15,0,0,0-1.4-1.5c-1.7.3-3.27,1.15-3.57,3C756.67,612,757.82,612.27,759.12,612.3Zm208-64.38a1.75,1.75,0,0,0-1.61-1.71c-1.39-.09-1.58,1.14-1.8,2.09S964,550,965,549.66,967,549.08,967.1,547.92Zm50.95-17.39c-1.21-1.8-2.87-2.26-6.16-2Zm-114,43.52c.23,1.62,1.52,1.81,2.76,1.87s2.06-.48,1.82-1.82-1.25-1.57-2.33-1.61S904.23,572.68,904.06,574.05Zm-118.9,52c1.31,1.53,2,3.46,4.43,2.72a1.15,1.15,0,0,0,.49-1C789.2,625.5,787.42,625.57,785.16,626.09ZM740.3,694.77c1.62,2.13,2.58,3.81,4.85,4.68C744.61,696.76,742.82,696,740.3,694.77ZM941.14,515.1c-2.42-1.08-4.35-1.52-5.93.51a1.19,1.19,0,0,0,.62,2C938,518.3,939.76,517.59,941.14,515.1ZM782.63,619.55a3.37,3.37,0,0,0-2.37-2.19c-1.1-.17-1.21.87-1.17,1.69.07,1.38.71,2.42,2.19,2.48C782.25,621.58,782.66,620.85,782.63,619.55Zm-262.1,59.57c-.74.48-1.73.78-1.92,1.34-.36,1.1.61,1.39,1.45,1.1a8.32,8.32,0,0,0,1.84-1.25ZM999.38,520.71c-1.36-2-2.69-2.2-5.24-2C996.32,519.8,997.18,521.21,999.38,520.71ZM1094,418.22c-1.12.25-2-2.45-3.39,0C1091.73,418.65,1092.69,419.39,1094,418.22ZM540.33,693.89c-.36-2.63-.8-3.67-2.8-3.15ZM1038.69,444c-.93,0-1.67.49-1.27,1.41a3.22,3.22,0,0,0,1.78,1.41,1.15,1.15,0,0,0,1.65-1.13C1040.77,444.44,1039.68,444.18,1038.69,444ZM801.54,548.83a1.72,1.72,0,0,0-2.15-1c-.63.12-1.17.58-.62,1.21a2.18,2.18,0,0,0,1.56.66C800.76,549.67,801.16,549.12,801.54,548.83Zm-96,115c.09-.3.32-.66.23-.8a3.79,3.79,0,0,0-.88-.69c-.11.25-.37.62-.29.74A4.75,4.75,0,0,0,705.55,663.85ZM523.11,684.76l.42-.32-.64-.49c-.06.17-.19.35-.15.49S523,684.65,523.11,684.76Zm545.36-236c1-.05,1.39-.45,1.19-1.15-.08-.29-.61-.69-.86-.64a4.65,4.65,0,0,0-1.29.76C1067.87,448.14,1068.24,448.53,1068.47,448.79Zm-436,204c-.29.22-.75.4-.78.63a1.17,1.17,0,0,0,.45,1c.68.28,1.11-.11,1-.81C633.13,653.31,632.72,653.08,632.47,652.81Zm-5.87-5.1.88.53a5.23,5.23,0,0,0,.22-1c0-.08-.37-.3-.44-.25A4.66,4.66,0,0,0,626.6,647.71ZM545,694.55l-.88.48a6.15,6.15,0,0,0,.78.59c.09,0,.45-.2.44-.25A5.26,5.26,0,0,0,545,694.55ZM752.56,580.31l-.71-.12c.1.11.19.29.31.31S752.42,580.38,752.56,580.31Zm292.51-132.37.51-.25-.51-.25Zm40.83-32.33,0,.44.47-.18Zm-59.85,7.53-.38.27.69.33c0-.13.14-.31.09-.39S1026.19,423.21,1026.05,423.14ZM635.76,656.37c-.13.09-.33.16-.36.27s.12.27.19.4l.58-.45ZM499.1,681.3c.62-.16.66-.41.08-.68-.09,0-.3.18-.46.27C498.85,681,499,681.16,499.1,681.3Z"/><path class="t" d="M638.25,230c-6.11.16-11.65-2-17-4.46a132.38,132.38,0,0,0-36.84-11.28c-14.74-2.13-25.54-9.43-30.56-24.13-2.61-7.62-5.7-15.07-8.52-22.62-.65-1.75-2.18-3.78-.94-5.4,1.6-2.09,3.91-.28,5.9,0,1.21.18,2.33,1.13,3.74.26.41-2.89-1.92-3.32-3.81-4a96.44,96.44,0,0,0-18.55-4.22c-2.4-.33-3.76.17-3.38,2.92a6.61,6.61,0,0,1-2.44,6.19c-2.14,1.95-6,2.87-6,6.14-.1,5.25-.32,10.91,1.47,15.67,1.6,4.27,2.81-1.49,4.63-1.53,2.77,8.57-.55,12.47-8.25,16.09-8.68,4.09-16.2,2.85-24.33-.11-2.86-1-5.09-.47-4.8,3.45.37,4.86-2.05,5.61-5.89,3.63-1.74-.9-3.46-1-4.7.37-6.84,7.58-15.83,4.37-24,4.55-3.23.08-6.22-.18-9.1,1.45a23.65,23.65,0,0,1-11,2.74A34.42,34.42,0,0,0,421,218.55c-5.29,2.22-10.07-1-14.65-3.57h0c.72-1.44.57-2.44-1.3-2.57l.05,0a4,4,0,0,0-5.15-2.29c-1.46.42-1.42,2.35-1.21,3.23.7,2.94,3.2,1.45,5,1.58l0,.05c-1.08,6.21-4.66,8.81-7.2,5.27-6.22-8.66-15.67-5.19-23.45-7.7a9.54,9.54,0,0,0-2.52-.14q0-122.27-.13-244.53c0-4.63,1-5.53,5.55-5.52q133.1.24,266.18.12c-1.63,7.74-.24,15.08,2.78,22.26,1.61,3.83,2.62,7.73-1.35,11-1.6,1.33-2.34,3.44-1.32,5.2,4,6.86-2.43,10.35-4.81,15-1.11,2.16-3.84,2-5.61.37-4.18-3.74-8.08-3.13-12.66-.5-3.8,2.19-8.22,1.89-12.36.22-5.49-2.21-11-4.47-16.43-6.74a15.54,15.54,0,0,0-8.77-.8,62.7,62.7,0,0,1-19,.89c-5.92-.73-7,4.95-7.54,8.54-1.35,8.33-5.67,14.84-10.15,21.54-2.41,3.6-4.55,7.42-3,12.46s-1.49,7.23-6.54,7.53c-11.44.68-22.86,1.56-34.34,1.2-1.81-.06-3.82-.6-6.28,1.82,9.14,1.11,17.5,2.58,25.92,3,16.72.9,33.4,2.08,50,4.46-.9,2.59-3.3,2.68-5.18,2.29-6.19-1.3-8.54,1.61-8.81,7.27-2.71.9-5.46.58-8.19.21-18.76-2.52-37.52-5.06-56.78-7.67,2.19,4.81,6.36,4.1,9.92,4.17,6.65.14,11.33,2.35,13.08,9.45.8,3.22,2.64,6.25,4.39,9.14,1.58,2.62,3.15,6.26,7.13,5s1.29-4.82,1.2-7.13c-.35-9.35-.55-9.31,8.26-8.19a11.34,11.34,0,0,0,4.35-.17c4.55-1.28,6.94.88,8,4.93.67,2.65.79,5.43,1.27,8.13.4,2.27.33,5.49,2.72,6.06,6.59,1.57,12.93,5.64,20.15,2.85,1.94,1.93,4.51,3.73,4.31,6.71-.72,10.24,7.1,15.59,12.44,22.34,4.86,6.14,13.13,6.36,19.1,10.71,4.53,3.31,9.07,7.31,15.53,4.38,1.51-.69,2.68,1.11,4,1.35,7.05,1.28,13.12,7.43,21,4.26,1.58,6.55.22,8.08-5.77,6.62-25.53-6.25-51.14-12.14-76.33-19.7-8.46-2.54-17.47-2.73-25.59-7-5.55-2.9-8.56,3.54-13.21,5.26,22.88,7.57,46.82,11.18,68.65,21.49l-4.91.66c-1.4.19-3.2-.13-3.62,1.72-.35,1.51,1.18,2,2.15,2.69s1.61,1.29,2.41,1.94c-8.12-.41-15.46-5.32-23.83-4.44,10.38,5.6,21.92,7.68,32.93,10.84,19.52,5.61,39.14,10.9,58.7,16.42,5.78,1.64,11.45,4.86,17.87,2.82,3.42-1.58,7.41-.48,10.5-1.3,13.14-3.5,26.92-1.64,39.92-5.51,2.24,1,4.52.58,6.86.36,13.85-1.31,27.16-6.1,41.38-5.59a22.21,22.21,0,0,0,15.41-6.17l25.94-3.88c2.3,2.39,5.1,1.74,7.76,1.09,8.46-2.07,17.2-1.62,25.76-2.89,3.43-.51,7.17-1,10,2.05-2.08,1-2.71,3.8-5.45,4.08-12.34,1.25-24.09,6.39-37,4.73-3.93-.5-8.44,1.51-12.74,2.06-4,.52-8.7,2.71-12.72,2.11-9.15-1.38-17.7-2.56-24,6.21a.78.78,0,0,1-.57.25c-7.92.19-15.74,1.27-23.6,2.06-4.54.45-8.64,5.76-13.63,1.6-7.7,6.95-15.64-2.51-23.43.36s-16.32,1.42-24.41,2.81c-3-1.88-5.11-1.88-5.17,2.46a131.14,131.14,0,0,1-15.48-.24c-4.12-.25-8.24-6.86-12.57-.51a2.46,2.46,0,0,1-1.09-.51c-7.9-7.09-18.7-7-27.75-11.28a14,14,0,0,0-6.81-1.08c-8.39.42-9.93,2.66-7.3,10.74a18.45,18.45,0,0,1,.95,4.32c.67,8.48,5.37,13.66,12.74,17.51C627.17,224.19,633.75,225.13,638.25,230ZM532,131.23l.94,1.3c.95-.72.22-1.22-.23-1.76-.35-1.06-.2-3.17-1.68-2.52C529.91,128.76,531.28,130.31,532,131.23Zm-3.55-9.66a3.8,3.8,0,0,0-.68.55c-.07.08.08.48.15.49a5.56,5.56,0,0,0,.91,0Z"/><path class="u" d="M511.47,291.84c-2.59-.28-5.57-.45-7.35,1.29C498,299.18,489.71,301.94,483,307c-5,3.82-9,8.86-10,15.72-.7,5-1.58,10-5.27,14-2,2.2-1.07,5.22-.65,8,.36,2.38,2,4.8.12,7.26-2.49.11-2.35-2.1-3.14-3.42-1.06-1.75-1.39-4.54-4-4.34s-3.72,2.94-4.2,5.07c-2.62,11.79-9.9,22.72-6.71,35.61a12.78,12.78,0,0,1,.07,3.81c-.17,2.71.31,6.32-2.88,7.07-3.44.8-4.16-2.83-5.26-5.29-1-2.27-1.32-5.41-4.39-5.67s-2.63,2.73-3.39,4.58c-.87,2.14-2.69,2.58-4.72,2.35-2.26-.26-3.37-1.55-3.21-3.9.11-1.64.68-3.78-2-3.78-2.08,0-2.82,1.86-3,3.55-.88,6.51-6.28,7.53-11.06,8.94-4,1.19-6-1.79-6.63-5.11-1.17-6.44-4.13-8.59-10.6-6.32-3.47,1.23-7.37,1.24-12.68,2,8.35-8.4,8-17,5.16-28.15-3.14,7.68-10,6.55-13.92,10.23V310.61c7.41,2.31,7.51,2.31,7.43-5.55-.1-10-.1-19.72,4.56-29.11,1.73-3.5,2-3.86,4.79-1.47,6.14,5.29,7.05,5,9.27-2.82.93-3.29,3.39-5.35,5.32-7.79,3.37-4.27,5.16-8.63,3.43-14.08-1.5-4.73.41-7.42,5.33-7.75a16.14,16.14,0,0,0,10.77-4.35c3.88-3.59,13.4,1.48,14,7,.36,3.23,1.38,5.8,5.19,6l.06,0c2.41,3.81,5.81,2.63,8.86,1.41,3.62-1.44,5.4-4.43,5.31-8.39-.07-2.76,0-5.66-4-5.74l-.1-.1c.57-1.44.31-3.67,2.86-3.34,8.4,1.11,15.74-3,23.44-5,4.94-1.31,10.53.87,15-3.41,1.63-1.55,3.47.61,3.5,2.9.11,6.52,4.52,8.19,9.86,9.65a79.31,79.31,0,0,1,27.21,13c9.22,7.09,11,19.13,11.25,30.71.1,4.49-1.12,7.9-5,11-7.82,6.24-20.19,6-27.35-1.25,4.45.14,8.92.56,13.35.32,3.11-.17,6.5-.74,8.39-3.73,1.51-2.4-1.58-21.9-3.57-24.1a5.44,5.44,0,0,0-3.78-2.11c-4.45-.18-8.89-.5-13.21,1.15-3,1.13-4.41,2.94-4.33,6.2A97.05,97.05,0,0,0,511.47,291.84ZM428.7,377l-.58.9a2.56,2.56,0,0,0,.5.28,9,9,0,0,0,.59-.88Z"/><path class="v" d="M435.76,637c-7.18-.09-14.36,0-21.53-.32-4.6-.2-4.79,1-3.19,5.09,1.22,3.09,6.11,5.4,4.08,8.53-2.17,3.35-6-1.33-9.33-.44-1.71.46-3.59,1.48-5-1-2.81-5-7.75-4.15-10.82-1.73-3.29,2.59.83,5.35,2.38,7.82l-.09-.09c-2.94,4.22-4.33,1.17-5.74-1.28-1.81-3.13-2.76-6.09-7.2-1.72-3.76,3.72-2.47-2.43-4.41-3.59-1.37,1.31-2.82,2.69-4.26,4.08V637c3.4,1.57,6.58,3.44,10.48,4,3.37.49,5.74-.3,7.72-2.79,1.12-1.41.63-2.82-.47-4-2-2-3.57-3.92-7.34-3.53-4,.4-6.89,2.67-10.39,3.73v-61.2c13.27-4.44,25.76-10.75,38.56-16.3q35.49-15.39,70.87-31c3.95-1.74,7.26-2.6,9,2.69.57,1.71,2.41,2.27,3.65,3.39,3.26,3,4.4,7.71,1.37,10.08-7.75,6.07-5.19,13.75-4.53,21a19.3,19.3,0,0,1-1.34,9.06,131.22,131.22,0,0,0-4.2,15.47c-.53,2.23.58,4,2.17,5.66,2.22,2.3,4.08,4.9,3.95,8.37-1.48,2.17-3.15,2.71-5.16.6a5.56,5.56,0,0,0-5.81-1.7c-2.92,1-11.05-1.61-5.37,6.72,1.06,1.54.19,4.56-2.58,3.17-10.86-5.5-18.39,2.67-27.08,6.11a4.14,4.14,0,0,0-2.06,1.42c-1,1.82-5.36-.76-4.43,3.14.78,3.31,3.2,4.8,7.32,3.32-1.08,3.64-2.95,5.82-5.57,6.38-3.86.82-3.73,3.41-3.79,6.19Zm-38.42-3.76c2.12-.51,3.7-1,5.32-1.25s3.4,0,5-.42c7.26-1.67,8.46-5.35,3.62-10.7a21.12,21.12,0,0,1-2-2.47c-1.75-2.6-4.75-4.07-7.06-2.76-3.48,2,1,4.07,1,6.33a6.24,6.24,0,0,0,.94,2.32c1.17,2.52,2.6,5-2.37,4.33C399.06,628.2,397.44,629.58,397.34,633.22Zm29.1-16.82c1.2-.13,2.62-.48,1.91-1.79-1-1.75-1.68-4.06-4-4.57-1.22-.27-1.93.9-1.76,2C423,614.31,424.1,616,426.44,616.4Zm17.15-4.9c1.29-.21,2.43-.67,2.28-2.24,0-.34-.87-.9-1.27-.84-1.22.15-2.52.64-2.74,2C441.68,611.45,442.81,611.41,443.59,611.5Z"/><path class="v" d="M370.67,677.85c3.05-.26,7,.45,4.9-5-.81-2.13,1-2.33,2.51-2.7,5.43-1.3,10.32-3.56,14.11-7.85a5.09,5.09,0,0,1,4.62-1.58,25.68,25.68,0,0,0,4.38-.08c2.38-.17,4.45-4.78,6.39-1.89,1.54,2.3-2.72,3.47-4.31,5.22a8.21,8.21,0,0,0-.89,1.63c-.93,1.69,4,2.73.64,4.53-3.85,2.09-7.34,5.45-12.09,5-4-.34-7.5.85-11,2.22-4.43,1.72-5.33,4.38-2.87,8.81,3.6,6.49,3.7,6.69,8.09.9s8.89-4.59,13.16.72c5.44,6.75,6.21,10.39-2.81,14.36-3.69,1.63-6.64,5.53-11.13,6.52-1.49.33-3.29.93-4.25-.22-4-4.75-6.56-1.08-9.43,1.26Z"/><path class="s" d="M370.67,634.49c3.5-1.06,6.39-3.33,10.39-3.73,3.77-.39,5.35,1.48,7.34,3.53,1.1,1.14,1.59,2.55.47,4-2,2.49-4.35,3.28-7.72,2.79-3.9-.56-7.08-2.43-10.48-4Z"/><path class="v" d="M370.67,658.72c1.52-.71,3-1.82,4.57-2.05,2.79-.41,6.15-3.44,8.36,0,1.91,3-1.68,9.39-5.46,10.39-2.37.64-5,.44-7.47.62Z"/><path class="v" d="M370.67,559.26c7.17,1.42,13.09-2.44,19.28-4.83,4.64-1.78,8.82-4.85,15.59-4.86-11.89,6.79-22.63,12.53-34.87,14.79Z"/><path class="v" d="M370.67,230.28c3.46,7.22,2.68,15.16,4.82,24.23-4.43-5-2-10.31-4.82-14Z"/><path class="v" d="M370.67,259.61l17.85-2.27c-5.73,3.21-12.52,1.3-17.85,4.82Z"/><path class="s" d="M370.67,544l4.14-1c0,2.29,1.15,4.16,2.25,6l-6.39,2.62Z"/><path class="v" d="M393,536.09l.57,4.45c-1.41,2.44-3.81,3.05-6.33,3.43-.3-.24-.57-.63-.9-.7-.54-.11-.68.24-.21.51a3,3,0,0,0,1.15.13,9.29,9.29,0,0,1-4.89,2.65c.3-2.5.59-5,.89-7.5C386.46,537.81,389.11,534.88,393,536.09Z"/><path class="s" d="M383.3,539.06c-.3,2.5-.59,5-.89,7.5l-2.65.73c-.59-1.57-1.17-3.15-1.76-4.73C379.58,541.12,380.8,539.11,383.3,539.06Z"/><path class="v" d="M378,542.56c.59,1.58,1.17,3.16,1.76,4.73a2.7,2.7,0,0,1-2.7,1.7c-1.1-1.89-2.25-3.76-2.25-6Z"/><path class="r" d="M387.3,543.91a3,3,0,0,1-1.15-.13c-.47-.27-.33-.62.21-.51.33.07.6.46.9.7Z"/></g></svg>