<svg xmlns="http://www.w3.org/2000/svg" viewBox="0 0 666.06 701.07"><defs><style>.a{fill:#6d2c29;}.b{fill:#8b423b;}.c{fill:#7a3431;}</style></defs><title>DOME</title><path class="a" d="M225.71,193.27c-7.89,6.56-15.84,13.56-18.63,23.6a240,240,0,0,0-8.53,59c-.14,6.3,1.84,9.49,8.25,9.47,6.65,1.32,7.09-3.5,7.07-7.79-.05-13.6,2.36-26.87,4.74-40.15,1.9-10.62,3.86-21.3,14.2-27.63-3.79,10.63-7.86,20.86-9.56,32.47-2.33,15.94-4.18,31.76-4,47.77.61,63.85,1.52,127.69,2.31,191.54-3.73.07-6.75,2.22-10.07,3.49l-2-1.5c2.62-9.28-.72-13.94-10.18-14.22-3-1.7-5.09-.81-6.54,2.12l-11.6,23.49c-10.7,21.65-20.44,43.79-32.77,64.62q-31.66,7.34-63.34,14.65c-18.4,4.24-37.17,6.86-55.24,12.57-14.11,7-22.15,18-22.29,34.13-.06,7,.44,14,.29,21-.11,5.25,2.17,7.53,7.26,7.33l3.47.27c-.3,6.06.48,11.22,8.57,10.29l2.57.44c.34,10,1.52,11.09,11,10.4,7.43-.48,10.06-4.46,9.18-11.71a101.06,101.06,0,0,1-.27-14.25c.28-11.24,5.52-17.64,16.43-20.18,8.38-1.95,16.76-3.91,25.19-5.62,10.84-2.19,21.33-6.12,32.5-6.71-1.87,6.13-5.28,11.5-8.13,17.17-10.31,20.49-20.28,41.16-30.27,61.82-1.29,2.67-4.16,5.83-1.15,8.57,2.83,2.58,6.6,2.21,9.87-.12,8.13-.14,12.6-5.36,15.79-11.89q18.63-38.09,37-76.33c1.82-3.82,4.09-6,8.37-6.85,12.22-2.3,24.36-5,36.55-7.48,2.08-.42,4.42-1.75,6.22.72,1.76,4.52,5.44,7.1,9.45,9.35,4.88,7.93,13.07,12.63,19,19.48,2.93,3.36,6,3.91,10.17,2.93q16.78-4,33.69-7.44c2.73-.56,5.63-2.14,8.44,0a42.07,42.07,0,0,1-.06,6.74c-1,5.9,1.42,9,7.1,10.73,6.42,2,12.49,5.1,18.85,7.34,4.08,1.43,7.57,5,12.48,3.73q15.25-7.32,30.51-14.65c1.64-.8,3.22-1.81,3.18-4-.14-8.14,1.38-16.83-1.08-24.2-1.55-4.65-10.23-4.58-15.5-7.1a11.58,11.58,0,0,0-1.92-.7c-3.84-1-5.21-3.44-5.24-7.47-.17-22-.6-43.91-.92-65.87,0-2-.56-4.6,1.8-5.38,7.05-2.31,10.93-9.15,17.59-11.93,3.09-1.29,5.23-2.86,5.08-6.94s-2.54-5.37-5.42-6.83c-2.3-1.17-5.95-.9-6.38-4.23-.46-3.62-3.07-4.51-5.59-4.93-6.59-1.11-8.94-4.79-8.71-11.27.67-19.26-1.91-38.39-2.68-57.59-.34-8.17-.06-16.36-.06-24.53,4.56,5.28,7.68,10.89,10.7,16.56.71,1.35,1.67,3.1.15,4.34s-2.93,0-4.26-.89c-.82-.53-1.45-1.89-3.25-.5.86,3.15-2.33,7.26,2.53,10,6.9,3.86,13.22,8.74,20.65,11.66-1.29,5.89,1.58,7.65,7.06,8.16,8.27.76,16.47,2.33,24.7,3.55,1.78,2.07,4.43,2,6.75,2.55,6.68,1.7,13.41,3.21,20.13,4.79-.3,13-.28,26.1,1.72,39-1.14,6.64,2,8.42,8.13,7.68a74.84,74.84,0,0,1,19.61-.18l1.16,117.57c-1.8,0-3.59.11-5.39.15-9.31.22-9.31.21-7.9,9.67-.55,12,.38,24,1.6,35.94.43,4.16,2.1,5.21,6.06,5q20.37-.95,40.76-1.25c3.88-.06,5.05-1.29,4.91-5.1-.35-9.65.28-19.34-1.58-28.91a33.76,33.76,0,0,0,.28-4.59c-.89-11.61-.91-11.61-12.45-11.72-.13-3.39-.35-6.78-.4-10.17q-1-75.78-2-151.55c1.91-1.4,4.18-1.57,6.42-1.91A224.8,224.8,0,0,0,528,434.84c9.42-4.28,17.59-10.69,27.46-15.27,1.35,10.89-.88,21.42.87,31.48,2.8,16-3.8,25-18.5,29.26-4.43,1.29-5.25,4-4.88,8.07.66,7.17-2.28,15.65,1.51,21.23,3.63,5.35,12.21,6.42,18.84,8.38,10.24,3,17.64,7.3,15.43,19.66,0,4.73.2,9.47,0,14.2-.41,12.79,1.41,25.62-.6,38.39a91,91,0,0,0-20,10.42c-4.23,1.49-1.59,5-2.16,7.51-1.81,20.37-1.41,21,17.65,27.49a4.69,4.69,0,0,0,.67.1,24.13,24.13,0,0,1,8.17,3.18c7.17,4.92,14.34,5,21.62-.31a33.56,33.56,0,0,1,10.25-5.09c11.6-3.33,15.34-10.42,13.92-22.42-1.37-11.67-.39-11.79-11.6-16.18-3.58-2.4-7.67-3.55-11.72-4.82q-.5-36.86-1-73.72c0-2.08.77-3.7,2.72-4.14,8.89-2,8.88-8.55,8.33-15.61-.3-3.81,0-7.67-.13-11.5,0-1.9.63-4.26-2.27-4.9-2.37-2.14-5.39-2.79-8.34-3.58a12.56,12.56,0,0,1-.89-3.17c-.21-28.3-.34-56.59-.59-84.89,0-2.78,1.18-4.6,2.88-6.55,14.06-16.05,23.89-34.69,32.83-53.88,2.79,9.67,1.81,19.66,1.6,29.41-.37,17.24,1.33,34.53-2.2,51.76-1.7,8.26-.69,17.09-.84,25.66-.08,3.87-3,8.19-5.32,7.45-6.52-2.1-3.68,2.92-3.7,4.39-.27,24.47-.52,48.95-.2,73.41.09,6.27-1.66,8.55-7.86,8-2.32-.22-6.32-1.22-6.09,3.15.72,14.17-1.34,28.47,1.84,42.54.68,3,2.06,4.6,5.54,4.45,13.81-.61,27.63-1,41.44-1.36,3.14-.08,4.57-1.21,4.46-4.41-.39-11.08.77-22.19-.86-33.25-1.72-11.65-1.69-11.66-12.87-12.7l-1.35-143.87q-.35-35.62-.66-71.27c-.07-10.62-1-21.37.25-31.86a244.76,244.76,0,0,0-.8-60.84c-.34-2.59-.37-5,1.42-7,2.6-3,2.84-6.51,2.45-10.2-.65-6.07-6.07-2.31-8.73-4.24-8.74-33.85-26.28-62.75-49.63-88.38-.53-1.43-2.37-2.24-1.94-4.12,9.65-13.15,6.79-39.42-4.49-51-14.28-14.72-32.2-22.43-51-28.92-19.69-6.81-40.25-9.49-60.71-12.65A205.77,205.77,0,0,0,425.73,10c-10.53.56-20.55,3.38-30.83,4.95C364.31,19.6,334.54,26.53,308.11,44c-16.68,11.05-25.59,25.74-24.89,45.76.16,4.68-1.53,5-5.34,4.78-12.89-.86-25.8-1.48-38.7-2.1-1.88-.09-4.61-1.45-5.44,1.14-3.16,9.85-7.92,19.21-9.19,29.65-.45,3.68.77,5.06,4.71,5.22,14.27.58,28.52,1.56,42.77,2.39l-7.4,12.64c-9.4,13.48-14,29.4-22.27,43.49C236.22,187.54,230.49,189.13,225.71,193.27Z"/><path class="b" d="M595.94,208.93a4.45,4.45,0,0,0,2.6,2.95c-.58,3.19,1.85,5.42,2.6,8.17,1.91,6.91,5.89,6.93,10,2.42,5.2-5.78,11.8-8.58,18.81-11,4.76-1.62,9-3.95,11.48-8.68a2.48,2.48,0,0,1,3.42-1.24c.39,3.69.15,7.22-2.45,10.2-1.79,2.06-1.76,4.43-1.42,7a244.76,244.76,0,0,1,.8,60.84c-1.21,10.49-.32,21.24-.25,31.86q.27,35.64.66,71.27l1.35,143.87c-.22,4.14,3.26,7.83,1.18,12.3-1.24,2.67-2.24,2.51-3.62.42-2.35-3.55-2.6-7.54-2.61-11.7q-.11-101.59-.35-203.2c0-5.19,0-10.38-2.5-17.07-2.73,8.06-4.89,14.42-7,20.78-8.94,19.19-18.77,37.83-32.83,53.88-1.7,1.95-2.91,3.77-2.88,6.55.25,28.3.38,56.59.59,84.89a12.56,12.56,0,0,0,.89,3.17c.27,2.69-1.69,6.53,1.52,7.71,2.57.94,5.43-1.22,6.82-4.13,2.9.64,2.22,3,2.27,4.9.1,3.83-.17,7.69.13,11.5.55,7.06.56,13.59-8.33,15.61-2,.44-2.75,2.06-2.72,4.14q.54,36.86,1,73.72c-.46,3.59,2.64,4.93,4.44,7.1,1.25,1.51,2.09,4,4.54,3.23s3.15-3,2.74-5.51c11.21,4.39,10.23,4.51,11.6,16.18,1.42,12-2.32,19.09-13.92,22.42a33.56,33.56,0,0,0-10.25,5.09c-7.28,5.29-14.45,5.23-21.62.31a24.13,24.13,0,0,0-8.17-3.18c0-2,0-4,.13-6.07.49-9.9-8.1-14.59-12.43-21.72-2.11-3.47-3.92,2.82-6,.2.57-2.55-2.07-6,2.16-7.51,2.14,5.32,7.63,5.12,11.78,6.8,10.67,4.31,23.24,4,29.42-.23l-2-.41c-1.64-.34-4.16.41-4.22-2.23,0-2.39,2.19-1.6,3.64-1.77,2.48-.28,3.59-1.55,3.09-4.16a34.23,34.23,0,0,1-.72-6c-.55-41.69,0-83.37-1.17-125.07-1.12-39.18-.28-78.43-.38-117.64,0-2.25.94-4.85-1.73-7.31-.52.83-.88,1.4-1.23,2-2.09,3.42-3.54,8.05-8.67,7.32-4.46-.64-4.13-5.44-5.77-8.48-9.94-18.4-15.62-37.41-14.29-59,1-16-13.52-26.48-29.51-24.45-1.8.23-4.4.42-2.4,3.06,3.66,4.83-1.06,4.23-3,4.59-14.46,2.68-28.92,5.54-43.66,6.23A26.23,26.23,0,0,0,461.26,280c-23.37,19-47,37.77-70.48,56.62-.31-.31-.63-.61-1-.89,1.75-4.24.82-6.64-4.23-7s-9.89-1.17-14.83-1.78c-34.7-4.32-67.65-14.2-98.51-30.84-4.19-2.26-6.45-4.67-5.14-10.1,1.43-5.89,1.13-12.17,2.18-18.17,2.23-12.69,4.26-25.52,9.58-37.37a333.51,333.51,0,0,1,37.74-63.18c4.26-5.69,7.6-12.4,15.55-14.13,1.78-.39,1.88-2.28,2.19-3.88,1.17-6,.66-11.17-6.51-13l-8.1-3.79c-7.75-5.81-8.23-5.94-13.85,1.53-17.57,23.36-33.32,47.84-45.17,74.67-15.08,34.14-21.39,70-20.88,107.15q.79,59.43,1.89,118.85c.59,31.25-.82,62.52,1.23,93.76.41,6.3-.16,12.67-.43,19-.08,2-.38,4.41-3.08,4.53s-4.93-1-5.47-4a39,39,0,0,1-.3-4.74c-1.34-23.31-1.13-46.64-1.36-70,0-1.22,1-2.89-1.26-4,0,14.92,0,29.61,0,44.31,0,7.7,0,15.4-1.39,23-.35,2-.07,4.49-3.09,4.22-2.37-.21-3.4-2-3.46-4.31-.05-1.82-.11-3.63-.17-5.44l-1.41-49.58c-.79-63.85-1.7-127.69-2.31-191.54-.16-16,1.69-31.83,4-47.77,1.7-11.61,5.77-21.84,9.56-32.47L242.36,187c8.23-14.09,12.87-30,22.27-43.49,5.88,1,6.91-4.73,10.07-7.46,1.22-1.05,3.29-2.49,2.24-4.39s-3.18-.94-4.91-.79c-14.25-.83-28.5-1.81-42.77-2.39-3.94-.16-5.16-1.54-4.71-5.22,1.27-10.44,6-19.8,9.19-29.65.83-2.59,3.56-1.23,5.44-1.14,12.9.62,25.81,1.24,38.7,2.1,3.81.26,5.5-.1,5.34-4.78-.7-20,8.21-34.71,24.89-45.76,26.43-17.51,56.2-24.44,86.79-29.11,10.28-1.57,20.3-4.39,30.83-4.95a205.77,205.77,0,0,1,42.61,2.27c20.46,3.16,41,5.84,60.71,12.65,18.76,6.49,36.68,14.2,51,28.92,11.28,11.61,14.14,37.88,4.49,51-1.88,2.23-3.74,4.47-5.62,6.7-1.31,1.55-2,3.13,0,4.61,1.4,1,2.69,3,4.58,2.31s.9-2.73,1-4.2c.2-1.94-.44-4.16,1.93-5.3,23.35,25.63,40.89,54.53,49.63,88.38-7.1-.25-13,1.64-15.72,9-.17.45-1.15.59-1.75.88-7.34-18.46-17-35.71-27.61-52.42-1.86-2.91-3.45-3.26-5.47-.17a33.63,33.63,0,0,1-9.15,9M334.68,92.8l-.05-.06Zm-59.39,64.3c.67-.68,2-1.6,1-2.36s-1.56.63-1.88,1.58L272.89,159c-.93.31-1.64.81-1.49,1.93a.66.66,0,0,0,.47.43c1.14,0,1.43-.93,1.75-1.79Zm74.34-75.26c4.68-2.57,9.35-5.15,14-7.7,6.42-3.47,6.6-6,.52-10-1.24-.82-2.91-1-4.38-1.45,3.14-1.53,2-4.07,1.39-6.36-1.15-4.57-2.09-9.13-.84-13.84l3.4-10.82c-6.08,2.25-11.3,4.16-16.51,6.12-3.58,1.34-6.84,2.81-9.63,5.89-8,8.89-7.14,19.28-6,29.8.44,3.93,2.36,3.09,4.3.85,7.78-3.72,14.84-8.92,23.21-11.45.89,6.22-1.48,11.06-6.34,14.79-1.48,1.14-2.79,2.32-3.12,4.26Zm132-43.5a23.74,23.74,0,0,0-9.47-5.07c-1.55-.38-2.87-.8-3.47,1.67-2.21,9.05.66,13.87,9.61,15.48a29.07,29.07,0,0,0,3.38.2c4.9,1.64,9.06.66,8.09-1.47C487.85,45.05,488.08,39,481.58,38.34ZM529.36,46c-4-1.51-8.07-3-12.07-4.54-2.84-1.11-4.25-.55-4.08,2.8A26.42,26.42,0,0,1,511,57.47c-1.42,2.91.47,3.6,2.63,4,5.2.9,9.82,3.23,14.42,5.65,4.94,4,6.92,2.53,6.89-3.51,0-2.92-1-6.6,3.57-7.45C536.35,68.52,541,76.89,552.9,81.36c2.34.88,4.25,2.91,6.36,4.41,1.16,3.66,3.39,5.5,6.91,3,3.71-2.65,3.27-9.84-.69-14.32-2,2-.18,5.61-3,7.14.12-7.87.38-15.95-7.17-21-5.33-3.57-10.51-7.5-16.6-9.83C536.45,47.49,533.18,46.19,529.36,46ZM322.64,59.73c-7.77,4.18-12.26,11.38-15.56,18.73-1.79,4-2.45,10.14,1.74,14.55.33,3.88,2.07,5.88,5.32,2.57,4.41-4.49,9.49-7.93,14.58-11.5,1.55-1.09,4.89-2.26,3.7-4.81-1.32-2.83-3.94.74-6-.08M440.6,46.83c.21,2.78,2.06,4.45,4.07,6,2.57,2,5.31,4.33,5.68,7.37,1,7.93,5.83,5.93,10.46,4.66a50.85,50.85,0,0,0,7-2.66c1.34-.58,3.45-.67,3.21-2.82-.17-1.56-1.9-1.68-3.06-2.32-2-1.11-6.32-2.09-4.56-4.42,3.81-5,1.36-10.55,2.83-15.63s-1.1-7.13-6.09-6.63l-5.62.49c0-2.69-1.86-3.28-4-3.59a20.21,20.21,0,0,1-8.63-3.68,24.82,24.82,0,0,0-18-4.06c-6.46.84-12.9,1.94-19.29,3.18-5.53,1.07-7.32,8.47-13.68,8.31.47,6.15-5.35,10.92-3.61,17.47.85,3.15,2,3.77,4.6,2l26.86-5.59,15.15.27A13.84,13.84,0,0,0,440.6,46.83ZM337.1,117.25c3.9,3.37,8.7,4.85,13.48,6.36,20.75,7.52,42.3,10.27,64.22,11.25-2.27-3.09-4.56-5.59-8-6.43-5.24-1.26-4.93-4.55-3-8.27,4.19-7.93,9.52-9.36,18.13-6.85,7.94,2.31,16.42,3.77,24.56,1.52,5.27-1.45,10.59-2.19,15.87-3.31,7.28-1.55,15.41.12,21.48-6.33a14.15,14.15,0,0,1,8.42-4c5.91-.49,6.42-3.45,5.52-8.22-.67-3.51.07-7.7,3.12-9.17,8.65-4.16,3.63-11,4.26-16.91-2.95,1.17-5.35,2.58-5.83,5.88-.24,1.72-1.15,3.74-2.89,2.73-5.28-3-13.62,5-17-4.75-.13-.4-1.8-.75-2.39-.44-8.15,4.29-17.23,3.41-25.89,4.85-2.71.45-5.08,1.59-4.66,4.72.65,4.79-2.44,4.42-5.45,4.53-12.22.42-24.42.44-36.56-1.34l-11.37-2.55c-5.44-4.15-12.93-3.85-18.22-8.46-1.58-1.37-2.84-.45-3,1.76-.45,4.92-3.92,8-7.26,11-11.18,9.87-22.54,19.54-33.9,29.35A7.85,7.85,0,0,0,337.1,117.25ZM548.29,163l1.78.17a6.78,6.78,0,0,0,1.1-1.63,36.48,36.48,0,0,0,1-4.61c2-13.07,4.5-15,17.45-13.51a3.51,3.51,0,0,1,.66.13c3.22,1.2,4-.45,4-3.27,0-5.66.07-11.32-.06-17,0-1.57.94-4.3-1.76-4.27a5.22,5.22,0,0,0-5,3.87,26.43,26.43,0,0,0-.3,4.73c-.11,1.92-1.17,3.61-2.85,1.93-3.88-3.91-7.09-1.38-10.29.57-5.87,3.58-12.84,4.34-18.82,7.61-1.79,1-3.81,1-4.37-1.4-1.16-4.92-4.17-3.53-7.33-2.59-3.69,1.09-7.46,1.88-11.18,2.86-20,5.27-40.46,7.48-61,9.4-2.12.2-5.5-.3-5.41,2.7.17,5.9-3.75,5.16-7.25,5.29-31.64,1.17-62.84-1.58-93.1-11.32-5.56-1.8-5.73.25-5.58,4.34.25,6.56.39,13.13.65,19.69.06,1.49-.41,3.5,1.59,4,1.84.47,2.64-1.32,3.7-2.46a30.15,30.15,0,0,1,11.84-7.64c6.44-2.4,12.29-.81,18.41,1.23,2.16.72,6,2.89,7.28-1.8.56-2,1-4.42,3.62-4s3,3.1,3.07,5.38c.2,5.43.51,10.88.3,16.3-.18,4.48.72,5.48,5.69,4.88a59.08,59.08,0,0,1,32.3,4.92c6.08,2.86,11.28,5.42,17.59,1.67a5,5,0,0,1,3.91-.34c14.2,3.16,28.68,4.15,42.65.2,6.58-1.86,14-.61,19.9-5.34,5.64-4.51,11.17-10.14,17.73-12.27,11.24-3.64,16.39-9.53,14.12-21.34-.23-1.22,0-3.13,1.72-3.22,2.22-.11,2.16,2,2.2,3.47C548.36,154.6,548.29,158.81,548.29,163ZM279.72,122.71a14,14,0,0,0,13-7c2.2-3.73-2.38-4.21-3-6.56a19.32,19.32,0,0,0-1.07-2.48c-4.9-11.18-8.91-12.38-19.78-6.26-6.48,3.66-8.46,10.31-11.1,16.42-1.35,3.12,1.15,4.45,4,4.53C268,121.49,274.36,121.34,279.72,122.71ZM579.89,266.87c9.09-5.36,21-8,28.13-18.26.53-.76,1-1.71.29-2.42-1.29-1.26-2.32-.21-3.48.59-11.93,8.17-11.94,8.16-19-3.21-3-4.9-6.68-4.89-9.44.06-1.65,3-3.35,5.88-4.81,8.93C568.51,259,572.54,266.93,579.89,266.87Zm-319.57-86c-33.82,52.88-34.18,111.75-29.83,171.43C225.94,292.64,230.79,234.66,260.32,180.86ZM411.3,63l.08,2.07c10.36,1.41,20.69,3.24,31.28,1.87,1.35-.18,2.86-.42,3.23-2a3.27,3.27,0,0,0-2.25-3.73,11.34,11.34,0,0,0-5.17-1.14C429.4,60.94,420.35,62,411.3,63ZM551,87.32c-2.36-.09-3.78.39-4.73,1.89-1.09,1.71,1.07,15.81,2.57,17,1.15.92,2,.21,3-.3,5.78-2.94,6.77-13.38,1.56-17.58A7.69,7.69,0,0,0,551,87.32ZM277.22,152.88a16.57,16.57,0,0,0,6.56-8.27C279.73,145.73,278.57,148.14,277.22,152.88Zm-15.53,25.27c2.74-2.18,3.74-4.27,3.67-6.87C262.88,172.69,261.49,174.6,261.69,178.15Zm6.15-8.89a23.17,23.17,0,0,0,1.53-2.6c.32-.86,1.52-2.4-.33-2.35C267.44,164.35,266.8,166.06,267.84,169.26Zm18.4-26.5a16,16,0,0,0,1.22-2.51c0-.14-1.15-.87-1.23-.8a6.4,6.4,0,0,0-1.36,2C284.79,141.59,285.57,142.12,286.24,142.76Zm6.49-8.25c.45-1.29,0-2-.6-1.86a4,4,0,0,0-1.91,1.47c-.13.15.5.92.79,1.41ZM637.6,304.89l-.41-.05.16.46Z"/><path class="c" d="M198,597.81c-1.8-2.47-4.14-1.14-6.22-.72-12.19,2.46-24.33,5.18-36.55,7.48-4.28.81-6.55,3-8.37,6.85q-18.28,38.25-36.95,76.33c-3.19,6.53-7.66,11.75-15.79,11.89a5.46,5.46,0,0,1-.15-4.55q17.83-39.45,36.35-78.57c9.56-20.14,19.15-40.31,28.56-60.51,13.46-28.91,26-58.24,40.49-86.68,9.46.28,12.8,4.94,10.18,14.22-3.4,1.82-5.15,5.09-6.66,8.32-9,19.2-17.76,38.48-26.62,57.73-2,4.38.27,4.53,3.64,3.81,5.73-1.24,11.47-2.41,17.21-3.61.45,0,.9.05,1.35.11,2.42.32,15.63,11.59,16.52,14.09.16,4.13-2.63,4.86-5.82,4.83a84.8,84.8,0,0,0-23.33,2.9c-14.94,4.08-28.56,9.12-32.26,26.58-.32,1.49-1.56,3-.15,4.43,1.74,1.71,3.49.31,4.88-.63,3.86-2.6,6.15-6.43,8-10.66,2.76-6.3,6.41-11.11,14.28-12.33,10.46-1.62,20.72-4.61,31-7.17,2.41-.6,5.76-.35,5.89-4.28,5.23,1.81,9.74,4.51,11.94,10.52,3.54-10.66,1-19.44-5.66-26.63-8.08-8.75-19.12-14.54-25.17-25.27,3.92-2,8.38-2,12.53-3.23.41,1.73.54,3.61,1.32,5.16s2.18,2.4,3.6.36c2-2.92-1-14.54-4.3-16.75a49.11,49.11,0,0,1,.41-16.71c2,.5,1.88,4.8,5.16,3a4.45,4.45,0,0,0,2.33-3.9c.09-2.91-2-3.82-4.25-4.46-1.3-.36-2.64-.59-4-.89l.06-3.78c3.32-1.27,6.34-3.42,10.07-3.49L223,531.14c.06,1.81.12,3.62.17,5.44.06,2.32,1.09,4.1,3.46,4.31,3,.27,2.74-2.24,3.09-4.22,1.37-7.62,1.38-15.32,1.39-23,0-14.7,0-29.39,0-44.31,2.23,1.06,1.25,2.73,1.26,4,.23,23.33,0,46.66,1.36,70A39,39,0,0,0,234,548c.54,3,2.77,4.12,5.47,4s3-2.52,3.08-4.53c.27-6.33.84-12.7.43-19-2.05-31.24-.64-62.51-1.23-93.76q-1.12-59.41-1.89-118.85c-.51-37.15,5.8-73,20.88-107.15,11.85-26.83,27.6-51.31,45.17-74.67,5.62-7.47,6.1-7.34,13.85-1.53-.05,3.12-2.58,4.71-4.4,6.57-12.59,12.82-23.72,26.74-32.46,42.47-8.06,14.49-15.78,29.12-21.46,44.8-2.72,7.5-5.28,14.88-5.6,22.89-3.69.37-3,3.8-3.48,5.81-5,21.55-8.18,43.35-7.15,65.56,1.72,37.21-1.81,74.49,2.25,111.73,1.73,15.89.16,32.13.48,48.2.14,6.66,1.31,13.31,2,20,2.37-4.35.63-9.32,4.1-13l3.42,1.48c-1.31,11.69-.28,23.41-.39,35.12,0,2-.73,5.44,2.35,5.36,2.5-.06,1.63-3.25,1.71-5.12.45-11-1-22.1.8-33.09a3.06,3.06,0,0,1,3.34,1.28c1.1,13.44-1,27,1.67,40.45.77,4,1.85,4.86,5.31,4.81,2.06,0,5.43-.84,5.29,2.45-.26,6.34,2.31,12.78,1.31,18.63-2.62,15.27-.71,30.52-1.54,45.74-.2,3.68,1.35,4.39,4.45,2.76q9.86-5.21,19.75-10.35c-2.66,5.07,2.17,10.76-1.35,15.85-.81,1.18.68,2.08,1.75,2.24,2.57.38,5,2.15,6.83.65,9.12-16.65,3.86-34.18,4.22-51.34.39-18.14-.6-36.2-4.13-54l0,0c5.63-.06,10.31,3,15.42,4.64,1.83.59,4.35,3.39,5.69.16,1.05-2.53,1.22-5.92-1.66-8a19.46,19.46,0,0,0-4.28-2q-31.17-12.3-62.35-24.56c-2.49-1-5-2.26-7.84-1.53-1.72-4.74-1.71-9.72-1.74-14.65-.27-41.81-.35-83.62-.76-125.43-.1-10.06-1.91-20.13,1.55-30l5.54,2.48c7,3.08,11.09,7.61,12.35,15.87a139.21,139.21,0,0,0,24.16,60.06c2.46,3.46,3.83,6.77,3.62,11.19-4.27-1.82-5.34-6.73-9.56-7.83-4.68-5.67-9.63-11.14-14-17.07-4.69-6.42-10-12.56-12.41-20.38-.41-1.94-.43-4.1-2.84-4.88l.11.13c-.53-1.42-1-2.85-1.57-4.27l.22.29L257,343l.1.19c-.06-1-.09-2-1.57-1.29-1.27,4-.68,8.07-.61,12.11.3,19.16,1.26,38.34,1,57.49-.29,20.28,2.37,40.52.47,60.8-.46,4.94,2.75,2.83,4.77,1.79,8.69-4.47,17.41-6.81,26.51-1.07a7,7,0,0,0,1.94.56c4.87,2.56,11.47,2.88,11.75,10.94.09,2.55,3.86,3.65,6.72,3.41s2.62-2.78,2.59-4.73c-.41-24.2.59-48.42-.95-72.61-1.12-17.51.43-35.1-2-53.59a21.6,21.6,0,0,1,2,2.34,39.17,39.17,0,0,1,2.78,5.43c5.55,15.44,14.31,28.75,27.26,38.83,7.27,5.65,13.11,14,23.67,14.36,1.54,7.68,6.46,9.39,13.58,8.26,3.95-.62,8.07-.19,12.12-.2,13.07-.06,13.07-.06,10.73-12.18,7.07-3.19,9.87-9.55,13.39-16,6.16-11.34,1.53-18.57-9.47-24.08-4-2-8-3.87-11-7.29-5.91-3.63-13.23-1-19.2-4.32l-2.31.1-4.06-.49c-.11-2-1.14-3.76-2.94-4.21C355,355.28,347,349.83,338,347c-7.85-2.5-15.26-6.34-22.87-9.59.23-.69.47-1.37.7-2.06,21.59,6.18,43.78,8.81,65.84,12.26,2.48.39,5.19,1.84,6-1.77.73-3.14.82-6.53-3.42-7.65-1.52-.41-3.12-.54-4.66-.87-13.23-2.89-26.81-3.06-40.1-6.26-28.05-6.77-55.58-14.56-80.87-28.88a48.09,48.09,0,0,0-6.26-2.51,208.19,208.19,0,0,1,.53-25.71c.53-8.33,3.93-16.31,2.77-24.79,5.17-5,3.29-12.93,7.72-18.57,2.92,6.08-.53,11.32-1.71,16.61-3.32,14.84-5.91,29.73-5.82,45,0,1.76-.57,4.34,1.75,4.49,2.91.19,2.37-2.63,2.54-4.58a22.49,22.49,0,0,0,.29-2.7c-.62-21.63,4.51-42.47,12-62.2,11.72-30.74,29-58.65,49.86-84.23,1.81-2.23,4.93-3.36,5.49-6.63,7.17,1.82,7.68,7,6.51,13-.31,1.6-.41,3.49-2.19,3.88-8,1.73-11.29,8.44-15.55,14.13a333.51,333.51,0,0,0-37.74,63.18c-5.32,11.85-7.35,24.68-9.58,37.37-1.05,6-.75,12.28-2.18,18.17-1.31,5.43.95,7.84,5.14,10.1,30.86,16.64,63.81,26.52,98.51,30.84,4.94.61,9.87,1.45,14.83,1.78s6,2.75,4.24,7c-.53,1.21-.16,1.44.95.89C414.29,317.77,437.89,299,461.26,280a26.23,26.23,0,0,1,16.09-6.12c14.74-.69,29.2-3.55,43.66-6.23,2-.36,6.67.24,3-4.59-2-2.64.6-2.83,2.4-3.06,16-2,30.49,8.47,29.51,24.45-1.33,21.56,4.35,40.57,14.29,59,1.64,3,1.31,7.84,5.77,8.48,5.13.73,6.58-3.9,8.67-7.32.35-.58.71-1.15,1.23-2,2.67,2.46,1.73,5.06,1.73,7.31.1,39.21-.74,78.46.38,117.64,1.19,41.7.62,83.38,1.17,125.07a34.23,34.23,0,0,0,.72,6c.5,2.61-.61,3.88-3.09,4.16-1.45.17-3.68-.62-3.64,1.77.06,2.64,2.58,1.89,4.22,2.23l2,.41c-6.18,4.2-18.75,4.54-29.42.23-4.15-1.68-9.64-1.48-11.78-6.8a91,91,0,0,1,20-10.42c.42,1.28.48,3,1.34,3.77,1.57,1.47-.22,5.71,3.79,4.88s2.47-4,2.26-6.56c-.51-6.05-1.62-12.12-1.38-18.14.37-9.34,0-18.5-2.54-27.51-.85-3,1.23-7.06-2.92-9C571,525.29,563.56,521,553.32,518c-6.63-2-15.21-3-18.84-8.38-3.79-5.58-.85-14.06-1.51-21.23-.37-4.07.45-6.78,4.88-8.07,14.7-4.26,21.3-13.22,18.5-29.26-1.75-10.06.48-20.59-.87-31.48-9.87,4.58-18,11-27.46,15.27a224.8,224.8,0,0,1-60.17,18.1c-2.24.34-4.51.51-6.42,1.91-.38-2.16-.75-4.31-1.47-8.39-.15,50.12-.11,98.29-1.22,146.45-.17,7.64,1.5,15.25,1.28,23-.08,3-1.88,8,2.42,8.39,2.5.2.55-5,1.39-7.7,11.54.11,11.56.11,12.45,11.72a33.76,33.76,0,0,1-.28,4.59c-5.76,1.23-5.61-5.45-9.32-7l-.68-.18.49.37c-3.25,5.32-8.14,1.06-12.17,1.69-2.45.38-2-3.89-2.07-6.31-.2-4.28-.57-8.57-.58-12.86-.13-36.84.26-73.7-1.55-110.52a130,130,0,0,0-2.83-20.1c-1.54-7.36-12-10.82-18.52-6.48,6.28-.45,5.93-.39,7.08,6.64,1.17,7.23.68,14.4.53,21.61a74.84,74.84,0,0,0-19.61.18c-6.1.74-9.27-1-8.13-7.68a162.89,162.89,0,0,0-.54-29.67c5.4-2.51,6.95,5.49,11.95,3,4.78-2.42,10-2,15-2.18,2.48-.07,4.35-.27,5.87-2.21,9.11-1.63,2-6.95,2.39-10.55,4.63.35,5.84-2.27,5.69-6.33-.58-16.25-.86-32.51-1.77-48.74-.24-4.41.55-9.12-1.72-13.34-.63-1.16-.76-2.82-2.44-2.9s-2.49,1.21-2.88,2.48a104.68,104.68,0,0,0-3.44,12.4c-2.84,15.75-1.13,31.63-1.07,47.47,0,3.88,2.17,6.27,5.43,7.92a.81.81,0,0,1-.45,1c-11.19,1.79-22.8-1.72-33.78,2.68-6.72-1.58-13.45-3.09-20.13-4.79-2.32-.59-5-.48-6.74-2.55,7.94-.19,15.65,1.73,23.48,2.5,2.88.28,6.18,1.53,7.05-2.75s-2.22-5.25-5.63-5.72c-16.3-2.25-32.59-4.57-48.89-6.78-2.63-.36-5.41-1-7.78,1-7.43-2.92-13.75-7.8-20.65-11.66-4.86-2.71-1.67-6.82-2.53-10,1.8-1.39,2.43,0,3.25.5,1.33.86,2.78,2.1,4.26.89s.56-3-.15-4.34c-3-5.67-6.14-11.28-10.7-16.56,0,8.17-.28,16.36.06,24.53.77,19.2,3.35,38.33,2.68,57.59-.23,6.48,2.12,10.16,8.71,11.27,2.52.42,5.13,1.31,5.59,4.93.43,3.33,4.08,3.06,6.38,4.23,2.88,1.46,5.26,2.83,5.42,6.83s-2,5.65-5.08,6.94c-6.66,2.78-10.54,9.62-17.59,11.93-2.36.78-1.83,3.38-1.8,5.38.32,22,.75,43.91.92,65.87,0,4,1.4,6.44,5.24,7.47a11.58,11.58,0,0,1,1.92.7c5.27,2.52,14,2.45,15.5,7.1,2.46,7.37.94,16.06,1.08,24.2,0,2.16-1.54,3.17-3.18,4q-15.24,7.37-30.51,14.65c-.3-7-.9-13.93-.78-20.89.1-4.87-1.83-7.45-6.29-8.92-6-2-11.92-4.08-17.73-6.48-12.47-5.15-12.43-5.24-13.57,7.75-2.81-2.1-5.71-.52-8.44,0q-16.89,3.48-33.69,7.44c-4.13,1-7.24.43-10.17-2.93-6-6.85-14.15-11.55-19-19.48"/><path class="c" d="M628.55,328.18c2.15-6.36,4.31-12.72,7-20.78,2.46,6.69,2.49,11.88,2.5,17.07q.21,101.59.35,203.2c0,4.16.26,8.15,2.61,11.7,1.38,2.09,2.38,2.25,3.62-.42,2.08-4.47-1.4-8.16-1.18-12.3,11.18,1,11.15,1.05,12.87,12.7,1.63,11.06.47,22.17.86,33.25.11,3.2-1.32,4.33-4.46,4.41-13.81.34-27.63.75-41.44,1.36-3.48.15-4.86-1.44-5.54-4.45-3.18-14.07-1.12-28.37-1.84-42.54-.23-4.37,3.77-3.37,6.09-3.15,6.2.58,8-1.7,7.86-8-.32-24.46-.07-48.94.2-73.41,0-1.47-2.82-6.49,3.7-4.39,2.3.74,5.24-3.58,5.32-7.45.15-8.57-.86-17.4.84-25.66,3.53-17.23,1.83-34.52,2.2-51.76C630.36,347.84,631.34,337.85,628.55,328.18Z"/><path class="c" d="M29.83,586.78c18.07-5.71,36.84-8.33,55.24-12.57q31.68-7.29,63.34-14.65c-6.53,18.34-16.62,35-24.66,52.64-11.17.59-21.66,4.52-32.5,6.71-8.43,1.71-16.81,3.67-25.19,5.62-10.91,2.54-16.15,8.94-16.43,20.18A101.06,101.06,0,0,0,49.9,659c.88,7.25-1.75,11.23-9.18,11.71,0-5.66.23-11.34-.19-17-1.57-20.62,13.59-42,37.38-46.29a116.81,116.81,0,0,0,35.88-12.58c-8.74,1.35-17.36,3.12-26,4.9-8.85,1.83-17.63,4.17-26.57,5.38-13.55,1.82-21.33,10.55-27.76,21.34s-3.41,22.45-3.78,33.83l-2.57-.44c.06-4.52.37-9.06.14-13.57a62.47,62.47,0,0,1,4.83-27.85c2.6-6.15,8-10.35,11.13-16.17.62-1.18,1.87-2.27.78-3.6s-2.48-.52-3.73,0c-7.92,3.19-13.17,9.1-17.38,16.34-6.38,11-3.56,23-4.34,34.58l-3.47-.27a35.22,35.22,0,0,0,.41-5.39c-1.31-18,1.8-34.73,13.15-49.33A8.31,8.31,0,0,0,29.83,586.78Z"/><path class="b" d="M466.68,625.92c3.71,1.51,3.56,8.19,9.32,7,1.86,9.57,1.23,19.26,1.58,28.91.14,3.81-1,5-4.91,5.1q-20.39.29-40.76,1.25c-4,.18-5.63-.87-6.06-5-1.22-12-2.15-23.91-1.6-35.94.37.56,1,1.07,1.08,1.67.79,4.68,3.16,7.77,8.16,6.17s7.22-5,4.65-10.41c-1.1-2.3-.67-4.81-.6-7.25q-.59-58.79-1.16-117.57c.15-7.21.64-14.38-.53-21.61-1.15-7-.8-7.09-7.08-6.64,6.51-4.34,17-.88,18.52,6.48a130,130,0,0,1,2.83,20.1c1.81,36.82,1.42,73.68,1.55,110.52,0,4.29.38,8.58.58,12.86.11,2.42-.38,6.69,2.07,6.31,4-.63,8.92,3.63,12.17-1.69Z"/><path class="c" d="M123.75,612.2c8-17.63,18.13-34.3,24.66-52.64,12.33-20.83,22.07-43,32.77-64.62l11.6-23.49c1.45-2.93,3.58-3.82,6.54-2.12-14.46,28.44-27,57.77-40.49,86.68-9.41,20.2-19,40.37-28.56,60.51q-18.56,39.08-36.35,78.57a5.46,5.46,0,0,0,.15,4.55c-3.27,2.33-7,2.7-9.87.12-3-2.74-.14-5.9,1.15-8.57,10-20.66,20-41.33,30.27-61.82C118.47,623.7,121.88,618.33,123.75,612.2Z"/><path class="b" d="M29.7,660.27c.37-11.38-2.61-23.12,3.78-33.83s14.21-19.52,27.76-21.34c8.94-1.21,17.72-3.55,26.57-5.38,8.62-1.78,17.24-3.55,26-4.9A116.81,116.81,0,0,1,77.91,607.4C54.12,611.67,39,633.07,40.53,653.69c.42,5.64.14,11.32.19,17C31.22,671.36,30,670.24,29.7,660.27Z"/><path class="b" d="M278.73,622.09c1.14-13,1.1-12.9,13.57-7.75,5.81,2.4,11.76,4.51,17.73,6.48,4.46,1.47,6.39,4,6.29,8.92-.12,7,.48,13.93.78,20.89-4.91,1.29-8.4-2.3-12.48-3.73-6.36-2.24-12.43-5.34-18.85-7.34-5.68-1.76-8.06-4.83-7.1-10.73A42.07,42.07,0,0,0,278.73,622.09Z"/><path class="b" d="M206.8,285.35c-6.41,0-8.39-3.17-8.25-9.47a240,240,0,0,1,8.53-59c2.79-10,10.74-17,18.63-23.6,3.91,5.57.09,9.84-2.6,14.1-3.13,4.95-6.7,9.46-8.12,15.46A301,301,0,0,0,206.8,285.35Z"/><path class="c" d="M206.8,285.35A301,301,0,0,1,215,222.83c1.42-6,5-10.51,8.12-15.46,2.69-4.26,6.51-8.53,2.6-14.1,4.78-4.14,10.51-5.73,16.65-6.26l-9.55,22.77c-10.34,6.33-12.3,17-14.2,27.63-2.38,13.28-4.79,26.55-4.74,40.15C213.89,281.85,213.45,286.67,206.8,285.35Z"/><path class="b" d="M463.83,616.57c-.84,2.66,1.11,7.9-1.39,7.7-4.3-.35-2.5-5.41-2.42-8.39.22-7.72-1.45-15.33-1.28-23,1.11-48.16,1.07-96.33,1.22-146.45.72,4.08,1.09,6.23,1.47,8.39q1,75.78,2,151.55C463.48,609.79,463.7,613.18,463.83,616.57Z"/><path class="b" d="M348.28,434.18c2.37-2,5.15-1.4,7.78-1,16.3,2.21,32.59,4.53,48.89,6.78,3.41.47,6.53,1.29,5.63,5.72s-4.17,3-7.05,2.75c-7.83-.77-15.54-2.69-23.48-2.5-8.24-1.22-16.44-2.79-24.71-3.55C349.86,441.83,347,440.07,348.28,434.18Z"/><path class="b" d="M18.56,649.54c.78-11.6-2-23.61,4.34-34.58,4.21-7.24,9.46-13.15,17.38-16.34,1.25-.5,2.65-1.3,3.73,0s-.16,2.42-.78,3.6c-3.1,5.82-8.53,10-11.13,16.17a62.47,62.47,0,0,0-4.83,27.85c.23,4.51-.08,9-.14,13.57C19,660.76,18.26,655.6,18.56,649.54Z"/><path class="c" d="M644.8,201.59a2.48,2.48,0,0,0-3.42,1.24c-2.48,4.73-6.72,7.06-11.48,8.68-7,2.38-13.61,5.18-18.81,11-4.06,4.51-8,4.49-10-2.42-.75-2.75-3.18-5-2.6-8.17,1.25-2.67,3.77-2.77,6.19-3.06q6.94-.81,13.87-1.58c.6-.29,1.58-.43,1.75-.88,2.77-7.37,8.62-9.26,15.72-9C638.73,199.28,644.15,195.52,644.8,201.59Z"/><path class="b" d="M29.83,586.78a8.31,8.31,0,0,1-1.18,7.77c-11.35,14.6-14.46,31.36-13.15,49.33a35.22,35.22,0,0,1-.41,5.39c-5.09.2-7.37-2.08-7.26-7.33.15-7-.35-14-.29-21C7.68,604.82,15.72,593.8,29.83,586.78Z"/><path class="b" d="M441,461.18c-1.52,1.94-3.39,2.14-5.87,2.21-5,.14-10.26-.24-15,2.18-5,2.53-6.55-5.47-11.95-3a162.89,162.89,0,0,1,.54,29.67c-2-12.95-2-26-1.72-39,11-4.4,22.59-.89,33.78-2.68C440.79,454.1,440.87,457.64,441,461.18Z"/><path class="c" d="M546.05,608.17c2.1,2.62,3.91-3.67,6-.2,4.33,7.13,12.92,11.82,12.43,21.72-.1,2-.09,4-.13,6.07a4.69,4.69,0,0,1-.67-.1C544.64,629.17,544.24,628.54,546.05,608.17Z"/><path class="b" d="M568.75,537.65c4.15,2,2.07,6,2.92,9,2.51,9,2.91,18.17,2.54,27.51-.24,6,.87,12.09,1.38,18.14.21,2.53,1.87,5.71-2.26,6.56s-2.22-3.41-3.79-4.88c-.86-.81-.92-2.49-1.34-3.77,2-12.77.19-25.6.6-38.39C569,547.12,568.78,542.38,568.75,537.65Z"/><path class="c" d="M437.54,617.35c-.07,2.44-.5,4.95.6,7.25,2.57,5.36.27,8.84-4.65,10.41s-7.37-1.49-8.16-6.17c-.11-.6-.71-1.11-1.08-1.67-1.41-9.46-1.41-9.45,7.9-9.67C434,617.46,435.74,617.4,437.54,617.35Z"/><path class="c" d="M272,130.88c1.73-.15,3.94-1,4.91.79s-1,3.34-2.24,4.39c-3.16,2.73-4.19,8.42-10.07,7.46Z"/><path class="c" d="M586.44,109c-2.37,1.14-1.73,3.36-1.93,5.3-.15,1.47.84,3.56-1,4.2s-3.18-1.27-4.58-2.31c-2-1.48-1.31-3.06,0-4.61,1.88-2.23,3.74-4.47,5.62-6.7C584.07,106.73,585.91,107.54,586.44,109Z"/><path class="c" d="M606.73,594.94c.41,2.51-.33,4.74-2.74,5.51s-3.29-1.72-4.54-3.23c-1.8-2.17-4.9-3.51-4.44-7.1C599.06,591.39,603.15,592.54,606.73,594.94Z"/><path class="c" d="M602.66,480.25c-1.39,2.91-4.25,5.07-6.82,4.13-3.21-1.18-1.25-5-1.52-7.71C597.27,477.46,600.29,478.11,602.66,480.25Z"/><path class="c" d="M548.29,163c0-4.21.07-8.42,0-12.63,0-1.49,0-3.58-2.2-3.47-1.68.09-1.95,2-1.72,3.22,2.27,11.81-2.88,17.7-14.12,21.34-6.56,2.13-12.09,7.76-17.73,12.27-5.92,4.73-13.32,3.48-19.9,5.34-14,3.95-28.45,3-42.65-.2a5,5,0,0,0-3.91.34c-6.31,3.75-11.51,1.19-17.59-1.67a59.08,59.08,0,0,0-32.3-4.92c-5,.6-5.87-.4-5.69-4.88.21-5.42-.1-10.87-.3-16.3-.08-2.28-.27-5-3.07-5.38s-3.06,2-3.62,4c-1.3,4.69-5.12,2.52-7.28,1.8-6.12-2-12-3.63-18.41-1.23a30.15,30.15,0,0,0-11.84,7.64c-1.06,1.14-1.86,2.93-3.7,2.46-2-.52-1.53-2.53-1.59-4-.26-6.56-.4-13.13-.65-19.69-.15-4.09,0-6.14,5.58-4.34,30.26,9.74,61.46,12.49,93.1,11.32,3.5-.13,7.42.61,7.25-5.29-.09-3,3.29-2.5,5.41-2.7,20.51-1.92,41-4.13,61-9.4,3.72-1,7.49-1.77,11.18-2.86,3.16-.94,6.17-2.33,7.33,2.59.56,2.37,2.58,2.37,4.37,1.4,6-3.27,13-4,18.82-7.61,3.2-2,6.41-4.48,10.29-.57,1.68,1.68,2.74,0,2.85-1.93a26.43,26.43,0,0,1,.3-4.73,5.22,5.22,0,0,1,5-3.87c2.7,0,1.72,2.7,1.76,4.27.13,5.66,0,11.32.06,17,0,2.82-.78,4.47-4,3.27a3.51,3.51,0,0,0-.66-.13c-12.95-1.53-15.47.44-17.45,13.51a36.48,36.48,0,0,1-1,4.61,6.78,6.78,0,0,1-1.1,1.63Z"/><path class="c" d="M404.53,83.07c12.14,1.78,24.34,1.76,36.56,1.34,3-.11,6.1.26,5.45-4.53-.42-3.13,1.95-4.27,4.66-4.72,8.66-1.44,17.74-.56,25.89-4.85.59-.31,2.26,0,2.39.44,3.36,9.73,11.7,1.7,17,4.75,1.74,1,2.65-1,2.89-2.73.48-3.3,2.88-4.71,5.83-5.88-.63,5.91,4.39,12.75-4.26,16.91-3.05,1.47-3.79,5.66-3.12,9.17.9,4.77.39,7.73-5.52,8.22a14.15,14.15,0,0,0-8.42,4c-6.07,6.45-14.2,4.78-21.48,6.33-5.28,1.12-10.6,1.86-15.87,3.31-8.14,2.25-16.62.79-24.56-1.52-8.61-2.51-13.94-1.08-18.13,6.85-2,3.72-2.27,7,3,8.27,3.45.84,5.74,3.34,8,6.43-21.92-1-43.47-3.73-64.22-11.25,10.78-12.71,24-22.28,38.36-30.58C394.26,90,400.57,88.3,404.53,83.07ZM410.81,98a6.61,6.61,0,0,0,0-1.2c-.88-3.35,1.82-9.34-3.14-9.42-4-.07-2,5.87-2.63,9.08s-1.44,8.65,3,8.88C413.18,105.57,409.66,100.1,410.81,98Z"/><path class="c" d="M391.9,50.5c-2.61,1.75-3.75,1.13-4.6-2-1.74-6.55,4.08-11.32,3.61-17.47,6.36.16,8.15-7.24,13.68-8.31,6.39-1.24,12.83-2.34,19.29-3.18a24.82,24.82,0,0,1,18,4.06,20.21,20.21,0,0,0,8.63,3.68c2.15.31,4,.9,4,3.59-9.71-1.4-19.65.8-29.29-1.93-1.38-.39-3.4-.46-4.17,1.29-.88,2-.07,4.07.91,5.77,1.09,1.9,2.69.86,4.07.05,5.18-3.05,7.52-1.26,7.61,4.44,0,1.57.18,3.14.28,4.71l-15.15-.27c1.24-14.13.67-14.82-10.83-13.11C394.49,33.8,391,37.85,391.9,50.5Z"/><path class="c" d="M279.72,122.71c-5.36-1.37-11.68-1.22-18-1.39-2.89-.08-5.39-1.41-4-4.53,2.64-6.11,4.62-12.76,11.1-16.42,10.87-6.12,14.88-4.92,19.78,6.26a19.32,19.32,0,0,1,1.07,2.48c.66,2.35,5.24,2.83,3,6.56A14,14,0,0,1,279.72,122.71Z"/><path class="c" d="M393.16,80.52c-5.13,4.23-11.72,5.65-17.33,9a350.8,350.8,0,0,0-38.73,27.69,7.85,7.85,0,0,1-6.36-3.11c11.36-9.81,22.72-19.48,33.9-29.35,3.34-2.94,6.81-6.05,7.26-11,.2-2.21,1.46-3.13,3-1.76C380.23,76.67,387.72,76.37,393.16,80.52Z"/><path class="c" d="M579.89,266.87c-7.35.06-11.38-7.88-8.29-14.31,1.46-3.05,3.16-6,4.81-8.93,2.76-4.95,6.4-5,9.44-.06,7,11.37,7,11.38,19,3.21,1.16-.8,2.19-1.85,3.48-.59.74.71.24,1.66-.29,2.42C600.9,258.9,589,261.51,579.89,266.87Z"/><path class="c" d="M440.6,46.83c4.73-.94,9.47-.25,14.18,0,3.82.21,5.32-1.1,5.13-5s.12-7.68.21-11.52c5-.5,7.54,1.6,6.09,6.63s1,10.59-2.83,15.63C461.62,55,466,55.93,467.94,57c1.16.64,2.89.76,3.06,2.32.24,2.15-1.87,2.24-3.21,2.82a50.85,50.85,0,0,1-7,2.66c-4.63,1.27-9.48,3.27-10.46-4.66-.37-3-3.11-5.4-5.68-7.37C442.66,51.28,440.81,49.61,440.6,46.83Z"/><path class="c" d="M260.32,180.86c-29.53,53.8-34.38,111.78-29.83,171.43C226.14,292.61,226.5,233.74,260.32,180.86Z"/><path class="c" d="M360.36,42.45c-7.4,1.3-14.08,4.71-21.05,7.23-2.77,1-4.1,3.06-3.88,6.34.4,6.07.36,12.17.5,18.27-1.94,2.24-3.86,3.08-4.3-.85-1.15-10.52-2-20.91,6-29.8,2.79-3.08,6.05-4.55,9.63-5.89,5.21-2,10.43-3.87,16.51-6.12Z"/><path class="c" d="M411.3,63c9.05-1,18.1-2.06,27.17-2.89a11.34,11.34,0,0,1,5.17,1.14A3.27,3.27,0,0,1,445.89,65c-.37,1.54-1.88,1.78-3.23,2-10.59,1.37-20.92-.46-31.28-1.87Z"/><path class="c" d="M528,67.1c1.49-7-.61-14.16,1.33-21.1,3.82.19,7.09,1.49,9.38,4.72l-.25,5.42c-4.57.85-3.58,4.53-3.57,7.45C535,69.63,533,71.12,528,67.1Z"/><path class="c" d="M551,87.32a7.69,7.69,0,0,1,2.44,1c5.21,4.2,4.22,14.64-1.56,17.58-1,.51-1.89,1.22-3,.3-1.5-1.2-3.66-15.3-2.57-17C547.19,87.71,548.61,87.23,551,87.32Z"/><path class="c" d="M308.82,93c5.06-5.63,12.17-8.67,17.61-13.82,2.05.82,4.67-2.75,6,.08,1.19,2.55-2.15,3.72-3.7,4.81-5.09,3.57-10.17,7-14.58,11.5C310.89,98.89,309.15,96.89,308.82,93Z"/><path class="c" d="M359.14,62.84l.28-.32.39.13c1.47.47,3.14.63,4.38,1.45,6.08,4,5.9,6.57-.52,10-4.69,2.55-9.36,5.13-14,7.7l.05,0c.33-1.94,1.64-3.12,3.12-4.26C357.66,73.9,360,69.06,359.14,62.84Z"/><path class="c" d="M481.63,50.62q0-6.13-.05-12.28c6.5.69,6.27,6.71,8.14,10.81C490.69,51.28,486.53,52.26,481.63,50.62Z"/><path class="c" d="M559.26,85.77c3.82.73,2.33-2.67,3.25-4.2,2.79-1.53.94-5.15,3-7.14,4,4.48,4.4,11.67.69,14.32C562.65,91.27,560.42,89.43,559.26,85.77Z"/><path class="c" d="M277.22,152.88c1.35-4.74,2.51-7.15,6.56-8.27A16.57,16.57,0,0,1,277.22,152.88Z"/><path class="c" d="M261.69,178.15c-.2-3.55,1.19-5.46,3.67-6.87C265.43,173.88,264.43,176,261.69,178.15Z"/><path class="c" d="M267.84,169.26c-1-3.2-.4-4.91,1.2-4.95,1.85-.05.65,1.49.33,2.35A23.17,23.17,0,0,1,267.84,169.26Z"/><path class="c" d="M286.24,142.76c-.67-.64-1.45-1.17-1.37-1.35a6.4,6.4,0,0,1,1.36-2c.08-.07,1.27.66,1.23.8A16,16,0,0,1,286.24,142.76Z"/><path class="c" d="M292.73,134.51l-1.72,1c-.29-.49-.92-1.26-.79-1.41a4,4,0,0,1,1.91-1.47C292.78,132.5,293.18,133.22,292.73,134.51Z"/><path class="c" d="M273.63,159.54c-.33.86-.62,1.76-1.76,1.79a.66.66,0,0,1-.47-.43c-.15-1.12.56-1.62,1.5-1.92Z"/><path class="c" d="M274.37,156.31c.33-.94.82-2.37,1.89-1.57s-.3,1.68-1,2.36Z"/><polygon class="c" points="637.6 304.89 637.35 305.3 637.19 304.84 637.6 304.89"/><path class="c" d="M275.29,157.1c-.55.82-1.11,1.63-1.66,2.44l-.73-.56,1.47-2.66Z"/><path class="c" d="M349.63,81.84l.05,0Z"/><polygon class="c" points="367.27 30.17 366.94 30.47 367.33 30.22 367.27 30.17"/><path class="c" d="M334.63,92.74l.05.06Z"/><path class="c" d="M334.68,92.8l-.05-.06Z"/><path class="b" d="M363.43,418c-10.56-.35-16.4-8.71-23.67-14.36-12.95-10.08-21.71-23.39-27.26-38.83a39.17,39.17,0,0,0-2.78-5.43,21.6,21.6,0,0,0-2-2.34c2.39,18.49.84,36.08,2,53.59,1.54,24.19.54,48.41.95,72.61,0,1.95.26,4.49-2.59,4.73s-6.63-.86-6.72-3.41c-.28-8.06-6.88-8.38-11.75-10.94L289,390.81c4.22,1.1,5.29,6,9.56,7.83.21-4.42-1.16-7.73-3.62-11.19a139.21,139.21,0,0,1-24.16-60.06c-1.26-8.26-5.39-12.79-12.35-15.87L252.84,309a22,22,0,0,1-.46-9.42,48.09,48.09,0,0,1,6.26,2.51c25.29,14.32,52.82,22.11,80.87,28.88,13.29,3.2,26.87,3.37,40.1,6.26,1.54.33,3.14.46,4.66.87,4.24,1.12,4.15,4.51,3.42,7.65-.84,3.61-3.55,2.16-6,1.77-22.06-3.45-44.25-6.08-65.84-12.26-.23.69-.47,1.37-.7,2.06,7.61,3.25,15,7.09,22.87,9.59,9.05,2.88,17,8.33,26.24,10.62,1.8.45,2.83,2.2,2.94,4.21-2-.35-4-.72-6-1-8.18-1.25-8.05-1.26-7.06,7.13C356.1,384.8,357.85,401.75,363.43,418Z"/><path class="a" d="M289,390.81q.32,41.4.61,82.81a7,7,0,0,1-1.94-.56c-9.1-5.74-17.82-3.4-26.51,1.07-2,1-5.23,3.15-4.77-1.79,1.9-20.28-.76-40.52-.47-60.8.27-19.15-.69-38.33-1-57.49-.07-4-.66-8.13.61-12.11l1.57,1.29L257,343c0,1-.07,2.11,1.53,1.59l-.22-.29c-1.3,2.09.34,3.1,1.57,4.27l-.11-.13a8.88,8.88,0,0,0,2.84,4.88c2.44,7.82,7.72,14,12.41,20.38C279.32,379.67,284.27,385.14,289,390.81Z"/><path class="b" d="M265.27,492.52a3.06,3.06,0,0,0-3.34-1.28L257.46,489,254,487.49c-.08-2.8-.16-5.59-.25-8.39,2.86-.73,5.35.56,7.84,1.53q31.2,12.24,62.35,24.56a19.46,19.46,0,0,1,4.28,2c2.88,2.09,2.71,5.48,1.66,8-1.34,3.23-3.86.43-5.69-.16-5.11-1.66-9.79-4.7-15.42-4.64-.33-.25-.45-1.22-1.1-.31l1.12.28c3.53,17.85,4.52,35.91,4.13,54-.36,17.16,4.9,34.69-4.22,51.34-1.79,1.5-4.26-.27-6.83-.65-1.07-.16-2.56-1.06-1.75-2.24,3.52-5.09-1.31-10.78,1.35-15.85-.3-20.08-.74-40.16-.79-60.23,0-4.07-1.31-5.95-5-7.26-7.44-2.6-14.63-5.94-22.09-8.45-5.17-1.75-7.36-4.35-7.22-10.16C266.53,504.83,268.13,498.48,265.27,492.52Z"/><path class="a" d="M363.43,418c-5.58-16.25-7.33-33.2-9.32-50.12-1-8.39-1.12-8.38,7.06-7.13,2,.31,4,.68,6,1l4.06.49,2.31-.1c6,3.35,13.29.69,19.2,4.32,1.06,16,3,31.86,7.12,47.39C402.2,426,402.2,426,389.13,426.06c-4.05,0-8.17-.42-12.12.2C369.89,427.39,365,425.68,363.43,418Z"/><path class="a" d="M265.27,492.52c2.86,6,1.26,12.31,1.1,18.39-.14,5.81,2.05,8.41,7.22,10.16,7.46,2.51,14.65,5.85,22.09,8.45,3.73,1.31,5,3.19,5,7.26,0,20.07.49,40.15.79,60.23q-9.87,5.16-19.75,10.35c-3.1,1.63-4.65.92-4.45-2.76.83-15.22-1.08-30.47,1.54-45.74,1-5.85-1.57-12.29-1.31-18.63.14-3.29-3.23-2.49-5.29-2.45-3.46.05-4.54-.85-5.31-4.81C264.31,519.5,266.37,506,265.27,492.52Z"/><path class="a" d="M253.79,479.1c.09,2.8.17,5.59.25,8.39-3.47,3.69-1.73,8.66-4.1,13-.71-6.65-1.88-13.3-2-20-.32-16.07,1.25-32.31-.48-48.2-4.06-37.24-.53-74.52-2.25-111.73-1-22.21,2.19-44,7.15-65.56.46-2-.21-5.44,3.48-5.81l-.14-.12c1.16,8.48-2.24,16.46-2.77,24.79a208.19,208.19,0,0,0-.53,25.71,22,22,0,0,0,.46,9.42c-3.46,9.85-1.65,19.92-1.55,30,.41,41.81.49,83.62.76,125.43C252.08,469.38,252.07,474.36,253.79,479.1Z"/><path class="a" d="M211.47,485.05l-.06,3.78.72,6.29a49.11,49.11,0,0,0-.41,16.71c-.21,3.74-.42,7.49-.62,11.23-4.15,1.21-8.61,1.18-12.53,3.23-2.56,1.18-1.48,3.49-1.51,5.33-.1,6.06,0,12.12,0,18.18-5.74,1.2-11.48,2.37-17.21,3.61-3.37.72-5.66.57-3.64-3.81,8.86-19.25,17.67-38.53,26.62-57.73,1.51-3.23,3.26-6.5,6.66-8.32Z"/><path class="b" d="M441.15,449.59c-3.26-1.65-5.41-4-5.43-7.92-.06-15.84-1.77-31.72,1.07-47.47a104.68,104.68,0,0,1,3.44-12.4c.39-1.27,1.31-2.56,2.88-2.48s1.81,1.74,2.44,2.9c2.27,4.22,1.48,8.93,1.72,13.34.91,16.23,1.19,32.49,1.77,48.74.15,4.06-1.06,6.68-5.69,6.33Z"/><path class="b" d="M197.07,549.8c0-6.06-.11-12.12,0-18.18,0-1.84-1.05-4.15,1.51-5.33,6.05,10.73,17.09,16.52,25.17,25.27,6.65,7.19,9.2,16,5.66,26.63-2.2-6-6.71-8.71-11.94-10.52L214.94,564c-.89-2.5-14.1-13.77-16.52-14.09C198,549.85,197.52,549.84,197.07,549.8Z"/><path class="b" d="M399.86,413.88c-4.13-15.53-6.06-31.4-7.12-47.39,3,3.42,7,5.28,11,7.29,11,5.51,15.63,12.74,9.47,24.08C409.73,404.33,406.93,410.69,399.86,413.88Z"/><path class="a" d="M214.94,564l2.52,3.67c-.13,3.93-3.48,3.68-5.89,4.28-10.31,2.56-20.57,5.55-31,7.17-7.87,1.22-11.52,6-14.28,12.33-1.85,4.23-4.14,8.06-8,10.66-1.39.94-3.14,2.34-4.88.63-1.41-1.39-.17-2.94.15-4.43,3.7-17.46,17.32-22.5,32.26-26.58a84.8,84.8,0,0,1,23.33-2.9C212.31,568.86,215.1,568.13,214.94,564Z"/><path class="a" d="M257.46,489l4.47,2.27c-1.76,11-.35,22.06-.8,33.09-.08,1.87.79,5.06-1.71,5.12-3.08.08-2.37-3.35-2.35-5.36C257.18,512.38,256.15,500.66,257.46,489Z"/><path class="b" d="M211.1,523.06c.2-3.74.41-7.49.62-11.23,3.34,2.21,6.32,13.83,4.3,16.75-1.42,2-2.85,1.14-3.6-.36S211.51,524.79,211.1,523.06Z"/><path class="b" d="M212.13,495.12l-.72-6.29c1.32.3,2.66.53,4,.89,2.28.64,4.34,1.55,4.25,4.46a4.45,4.45,0,0,1-2.33,3.9C214,499.92,214.14,495.62,212.13,495.12Z"/><path class="c" d="M390.78,336.62c-1.11.55-1.48.32-.95-.89C390.15,336,390.47,336.31,390.78,336.62Z"/><path class="c" d="M373.54,362.17l-2.31.1Z"/><path class="c" d="M466.49,626.11l-.49-.37.68.18Z"/><path class="b" d="M410.81,98c-1.15,2.13,2.37,7.6-2.76,7.34-4.46-.23-3.62-5.54-3-8.88s-1.4-9.15,2.63-9.08c5,.08,2.26,6.07,3.14,9.42A6.61,6.61,0,0,1,410.81,98Z"/><path class="c" d="M308.83,510.36l-1.12-.28c.65-.91.77.06,1.1.31Z"/></svg>