<svg xmlns="http://www.w3.org/2000/svg" viewBox="0 0 1920 1080"><defs><style>.a{fill:#eb743d;}.b{fill:#f5ac85;}</style></defs><title>RustLighthouse03</title><path class="a" d="M0,832.76s947.17-21.56,1143.45-27.32c197.36-5.78,776.63,38,776.63,38V1080H0Z"/><path class="b" d="M1231.67,910.33c-.06,2.26-119.05,1.89-119.34-4.66-.15-3.41,31.85-5.78,32-11.34.21-7.44-57.57-12.13-57.33-15.33.26-3.48,68.56-.77,68.67-2.67S1080.94,870,1081,865.67s74-5.46,74-8.67c0-4.17-124.68-6.65-124.67-10S1147,842.48,1147,839.67c0-3-131.27-3.87-131.33-8,0-2.51,121.68-1.68,122-8.67.21-4.71-58.62-14.23-55.43-15.88,4.88-2.53,158.4-2.9,162.11-1.49,1.44.55-91.22,6.33-91.35,10.7-.09,3,44.15,6.2,44,8.67s-50,1.38-50,2.67c-.06,1.69,86.66,4.73,86.67,8.66,0,3.75-78.61,5.22-78.67,10-.07,5,85.09,8.94,85,12.93s-82.27,4.37-82.31,7.74c0,2.54,46.59,4,46.66,8,.08,4.38-54.79,7.78-54.66,11.33s53.24,3.49,53.33,6.67c.09,3-46,5.06-46,8.67C1157,906.27,1231.71,908.54,1231.67,910.33Z"/><path class="b" d="M1031.25,839.25c-10.43-.78-20.9,2.58-20.75,3.75.3,2.26,40.52-1.1,40.5-2,0-.3-4.42-.23-17.25-1.5C1031.58,839.28,1031.76,839.29,1031.25,839.25Z"/><path class="b" d="M1088.25,855.75c0-1.21-44.92-2.3-45-.75-.06,1.13,23.57,2.93,23.5,4-.09,1.27-33.84-.81-34,1-.09,1,9.15,2.85,18,3.5,14.8,1.09,28.27-1.31,28.25-2.75,0-1-6.51-1.27-6.5-2.25C1072.52,857,1088.26,856.47,1088.25,855.75Z"/><path class="b" d="M1019,853.25c-6.93,1.46-9.81,2.32-9.75,2.75.15,1,18-.08,18-1.25C1027.26,854.26,1024.16,853.76,1019,853.25Z"/><path class="b" d="M1215.75,844.75c-.34-2.69-32.59-2-32.75.5-.1,1.54,11.83,3.76,20.75,4.5,18,1.5,32.3-2.37,32.25-2.75s-23.62,2.6-24,.5C1211.84,846.63,1215.87,845.71,1215.75,844.75Z"/><path class="b" d="M1208.75,826.25c-5.94.43-8,.86-8,1.25,0,.91,10.91,2.29,11.25,1C1212.13,828,1210.72,827.17,1208.75,826.25Z"/><path class="b" d="M1165.75,815.75c0-1.94,28.66-4.43,29-2.5.19,1-7.85,3.88-15.75,4.25C1173.05,817.78,1165.74,816.73,1165.75,815.75Z"/></svg>