<svg xmlns="http://www.w3.org/2000/svg" viewBox="0 0 1920 1080"><defs><style>.a{fill:#5c3741;}.b{fill:#974f59;}.c{fill:#eb743d;}.d{fill:#f5ac85;}.e{fill:#ffe49f;}</style></defs><title>RustLighthouse04</title><rect class="a" x="-0.07" width="1920.15" height="485.67"/><path class="b" d="M-.07,485.67s652.72-17.15,848.64-58.81,333.3-66.76,449.65-78.76,623.32-186,623.32-186V815.93L-.07,738.22Z"/><path class="c" d="M1838.33,490.25c-3.48-5.25-18.4-4.79-23-2.51a4.31,4.31,0,0,1,2.62-2.61c-15.17.76-14.48,10.8-24.65,16.51-9.61,5.4-19.62,4.72-30.92,9.11-7.6,3-8.1,8.6-16.68,10.6-7.38,1.72-24.77-1.12-32.19-2.09-9.73-1.27-15.75,1.86-23.49-6.82-14.52-16.29-1.35.73,4.66-18.57,4.43-14.18-.71-25.73-20.86-24.63-21.08,1.14-40.94,21.86-64,19.49-13.89-1.43-30.08-4.93-45.35-8.57-18-4.3-24.94-5.8-12.52-23.64,3.62-5.19,14.26-3,13.12-11.81-1.43-11-18.8-3.5-19.7-8.82-.74-4.42,22.16-1.69,25.71-2.91,6.73-2.31,16.5-14.91,22.76-19.26,3.24-2.25,4.16-8.89,8.15-10.54,4.46-1.86,11.26,3.7,15.35,2.22,16.64-6,5.89-2.85,8.76-14.25.84-3.33,6.25-6,6.62-9.33.55-4.92-3.78-6.86-2.75-11.82.44-2.09,4.87-16.65,5.85-17.24,7.76-4.6,10.69,3.59,18.32,2.41,11.7-1.79,25.38-16.79,35.74-22.5,25.24-13.91,53.62-21.78,78.28-36.81,17.13-10.44,26.67-26.09,39-39.19,16.77-17.83,44.69-27.75,65.25-40.62C1890,205,1899.22,196.48,1920,202q0-63.21,0-126.43c0-17.59,5.62-46.3.06-63.22C1914.56-4.39,1910.68.94,1889.32,1c-16.94,0-36.38-2.71-53.06,0-12.18,2-23.42,6.94-35.58,14.14-12,7.09-21.32,12.94-34.12,18.84-9.29,4.3-31.16,9.37-37.94,17.14-5.91,6.77-.68,20.21-6,27.16-2.36,3.09-22.14,11.08-27.87,11.8-12.54,1.58-18.68-3.83-29.34-6.22-11.25-2.52-7,10.39-19.36-5.47-1.29-1.64-3.35-11.63-5-15.28-4-8.54-3.12-4.43-7.7-10.59s-3.89-11.72-12-16.34c-16.12-9.23-9.59,3.26-22.33,8-.61.23-22-14.44-21.48-14.27-7.62-2.52-12.73-1.13-19.67-2.95s-14.8-8.22-21.14-9.24c-22-3.54-53.19,24.21-71.86,34.88-8,4.6-34.21,17.22-36.48,25.26-4.43,15.69,21.07,20.83-8.34,25.1-11.58,1.68-15.72-4.09-29.67-1.67-5.39.93-36.82,20.3-43.84,15.56-.48-.32,4.33-20.61,3.37-23.46-3.17-9.33-1.53-7.71-14.28-9.49-18.36-2.58-10.09,5.6-27.76,11.57-6,2-10.7-2.66-15.4-1.62-4.32.95-8.46,2.91-12.72,3.86-16.12,3.63-36.72,16.91-42.86,34-6.65,18.42.3,30.37-17.65,45.52-6,5-12.34,6.84-18.55,11.11-9.85,6.79-17.83,16.4-20.75,26.9-1.36,4.88,1.84,12,.6,15.56-1.62,4.62-7,8.23-8.48,13.25-2,6.47-2.26,13-4,19-.43,1.5-5.53,24.88-7.46,25.77-4.24,2-6.41-6-11-4.42-29.61,10.29,12-10.8-19.86,7.69-14.55,8.45-28,20.51-28.77,37.46-.45,9.46,10.54,16.31.77,23.91-11.13,8.66-12.29-7.88-21.78-7.1-4.36.36-24,15.16-27.25,19.08-4.41,5.24-4.61,13.93-8.21,19.72-2.57,4.13-5.1,4.78-8.13,9-14.64,20.25-19.11,46.18-5.74,70.2,4.41,7.93,3.64,7.91,10.53,14.32,3.44,3.2,15.33,6.77,17.13,11.06,7.35,17.52-24,21.22-36.54,27.22-40.1,19.28-82.46,38.31-120.82,60.55-14.95,8.67-30.2,20.21-46.87,25.47-3.52,1.11-9.71,6.31-13,6.61-8,.73-15.06-15.39-25.54-9.68s1.19,28.87-3.57,33.14c-12.74,11.44-17.54,15.84,6.16,25.83l42.7,18.86c11.5,3.07,40.75,10.75,32.59-6.78L888,660c18.11,8,44.12-18,57.64-27.33,10.64-7.3,31.31-15.11,39.31-24.88,6.64-8.12,3.48-17,9.17-25.62.39,18.07,13.33,8.91,14.22,19.09,1.16,13.27-10.25,14.85-.32,23.71,11.33,10.11,13.41,1,25.76-.56,9.61-1.24,23.32,2.14,31.58-3.24,2.6-1.7,6.54-20,9.57-24.32,6.16-8.78,12.7-13.74,23.3-17.79,5.5-2.1,11.57.38,17-3.14l18.93-7.34c9.74,2.11,19.68,11,28.21,12.39,11.59,1.88,4.39,1,18.7-3.25,5.45-1.62,20-1.51,22.9-5,7.18-8.49-11.53-12.72-4.46-19.56,4.33-4.2,19.67,11.26,25.06,13.56,13.78,5.88,24.56,3.44,38.75,3.5,6.34,0,9,4.88,15.25,4.25,7.4-.75,14.34-7.84,22.5-8.75,3.66-.41,30.31-.56,31.33,1.83,2.62,6.18-14.55,6.56-16.7,8.62,13,1.86,26.37-4,38.88-2.2,7.41,1.09,2,7.22,7.09,8.2,5.32,1,15.37,2.39,21-.41,15.87-5.54,51.94,12.49,84.1,25.84,31.51,11.74,63.33,22.71,95.51,32.46,35.31,10.7,65.26,23.8,101.68,20.41,25.79-2.4,44.83-6,71.68-3.6,4.75-25.59,30.42-19.32,48.9-24.23,0,0,111.32-15.59,135.58,6.54,1.46.12,0-149.26,0-149.26S1850,507.84,1838.33,490.25Z"/><path class="b" d="M116.1,19.73c.33,3.75,2.27,7.36.82,11.28-.74,2-1.38,3.67-4.06,3.46a6.33,6.33,0,0,0-6,3.06c-3,5.44-8.11,5.54-12.9,5.26-5.66-.33-10.71,2-16.13,2.37-.17,0-.43,0-.47.13-4.51,9.43-12.79,5-19.72,5.28-3.21.11-6-1.6-8.73-3.2-1.89-1.12-3.48-1.79-3.61,1.41-.06,1.63-1,2-2.34,1.53-4-1.43-8.12-2.51-10.46-6.89-2.67-5-4.85-5.17-9.24-1.26-3.38,3-7.52,3.28-11.63,3.63-2.15.19-3-1.41-3.69-3.33-1.28-3.39-1.38-7.12-3.31-10.32C3.55,30.29,2.29,29,0,29,0,20.67.11,12.33-.07,4-.12,1.49.5.91,3,.93,19,1.06,35,1,51,1c2,4.79,4.88,7.66,10.7,6.33,2.8-.64,7.08-1.43,8.19,1.58,1.38,3.73,4.19,6.29,5.72,9.75,4,9,10.35,14.12,20.73,15.15,5.81.57,10.7-3.79,16.47-1.55,1.36.53,1.9-1.48,2.07-2.84Q115.5,24.58,116.1,19.73Z"/><path class="c" d="M116.1,19.73q-.6,4.85-1.22,9.69c-.17,1.36-.71,3.37-2.07,2.84C107,30,102.15,34.38,96.34,33.81c-10.38-1-16.76-6.14-20.73-15.15-1.53-3.46-4.34-6-5.72-9.75-1.11-3-5.39-2.22-8.19-1.58C55.88,8.66,53,5.79,51,1h59c-1.36,3.85,2,5.48,3.72,7.86l.12.16.82.9A22.25,22.25,0,0,0,116.43,18Z"/><path class="d" d="M848.65,672.2c8.21,2.72,26.72,10.64,35.05,9,20.83-4.11,3.41-9.44,4.34-21.22,17.39,7.1,40.93-15.39,54.3-24.58,10-6.89,20.52-13.34,30.52-20.28,20.11-14,9.47-15.05,21.24-32.91.33,15.35,13.13,9.52,15,17.89,1.83,7.95-8.29,13.39-2,21.66,8,10.53,13.05,3.07,22.47,2.7,7.77-.31,28,1.77,35-2.59,2.77-1.73,5.84-16.28,8.25-20.31,6-10.09,9.91-16.43,21.51-20.94,7.5-2.91,20.35-9.54,25.71-11.38,15.23-5.21-5.92-4.91,13.93-.62,9.64,2.08,15.68,6,25,9.37,18.35,6.56-1.34,4.23,17.15-.24,3.79-.92,11.92-4.35,15-5.49,3.45-1.27,6,4.58,10.11,1.58,12.67-9.34-8-10.76-3-19.2s14,4.63,21.58,8.76c15.2,8.33,22.36,2.81,37.67,3.88,6,.42,12.7,5.8,18.59,5.53,7.26-.33,12.5-7.37,19.68-8.52,4.52-.73,34.9-.34,36.45,3.3,2.62,6.18-14.55,6.56-16.7,8.62,13,1.86,26.37-4,38.88-2.2,6.06.89,3,7.41,7.09,8.2,4.21.82,19.88,2,24-1.48,8.35-7-6.55-6.69-5.06-10.69-.69,1.85,48.16,22.45,52.09,24,24.5,9.74,49,19.31,73.9,28.05A951.28,951.28,0,0,0,1646,659.3c-1.59,3.52-8.18,2.86-8.75,6.45-1.38,8.56-7.82,21.75-10,30.46,0,0,71.82,38.58,58.18,106.36l236-64.35L1920.08,1080H0L-.07,723.08c265.7-86.78,774.53,24.16,774.53,24.16-49.14-43.35,23.9-48.47,23.9-48.47,3.77-13.34,3.55-27.08,3.22-42.11q-3.27,8.51-6.8,16.91c-4.64-5.13,1.61-32.22,5.32-37.27,9.07,1.43.79,10,3.65,12.38,5.11,4.28,5.67,6.58,14.3,10.21-.57-.71-1-9.25-1.81-8.75-1.46.91,17,11.19,17.18,13.38"/><circle class="e" cx="1166.24" cy="774.18" r="105.74"/></svg>