<svg xmlns="http://www.w3.org/2000/svg" viewBox="0 0 1920 1080"><defs><style>.a{fill:#28140f;}</style></defs><title>RustLighthouse01</title><path class="a" d="M1042.36,1026.57l1.5.59,3.43-2.77Z"/><path class="a" d="M819.17,1010.84c-2.14.14-3.06.52-3,1.08C818.37,1011.82,819.62,1011.52,819.17,1010.84Z"/><path class="a" d="M22.43,945.07c1.43-.9,3.76-2.11,6-3.29A36.19,36.19,0,0,0,22.43,945.07Z"/><path class="a" d="M-.08,1080H1920V956.25l-1.07-1.11c-8.33.89-27.33-.06-30.9,1.51-9-3.12-40.49,1.64-55.16,2l-.52,1.77c-10.1.62-19.76,1.8-32.27,3.38l.8,1.48c-10.78,2-27.78,1-44.86,2.5,1.15-.68,5.48-.86,8.56-.74-20.49-1.94-43,6-61.54,5a44.29,44.29,0,0,1-11.18.94,8,8,0,0,0,1.14-.18l-1.9.14-6.42-.26c1.94.2,3.8.35,5.41.36-3.56.33-8.94,1-14.22,1.82l-2.29-1.45-1.22.15c-5.2-.16-4.15,1.14-1.35,2.14-2.66.5-5.09,1-7,1.59-4.28-2.3-13.84,2.1-19.66-.24-3.53,1.69-26.54,3.35-29.28,6.51-.19-.37-1.76-.41,1.1-.69-5.9.19-11.8.36-17.06,1.63l-2.55-1.88-12.79,3.92c-7.85-.6-11.11-1.07-3.39-3.35-18.67,4.1-15.18,2.23-31.05,6l.74-1.42c-5.69.53-14.75,3.1-18.21,2.27-12.8-1.49-63.05,4.67-95.81,4.5,6.42,3.58-15.23-.76-16.47,2.38-1.93-.82-6.49-1.07-1.21-2.22-16.68,1.94-25.1.12-36.58,3.35-1.93-.85,3.55-1.57,1.84-2-1.34.28-5.29,1.1-7,.62s2.43-.91,5.07-1.46c-17,1-18.73,4-19.93,6.84-8.66-.85-13-.44-19.19,1.68-3-.78-8-1.47,2.54-2.29-6,.19-36.43.14-37,2.38-1.87-.49-8.33.16-9.9.48-13.38.24-14.56,0-27.7.57l3.65.27c-5.17,2.77-10.92.86-21.51,1.44l.3-.28c-24.3-1.68-10.49,1-34.45-1l1.3,1.64c-1.11,1.78-6.42,1.3-13.19.55s-15-2-21.95-1.42l5,1c-7.6,1.12-21.21-5-28.83-5.58-1.66-.34,2.63-.43,5-.65-19.94-2.54-2.6,2.12-17.47,2.19-2.74-1.25,3.55-2.84-6.45-3.38-5-1.1-29.07,2.95-42.7-.15,3,1,6,2.1-.94,2.42-5.3-.13-12.44-1.29-19.46-2.26s-13.91-1.69-18.71-.6c-1.35-.33-1.85-.6-1.9-.83-8.11.27-26.32-.74-31.23.37-7.34-6.11-50.36-1.76-50-7L952,989.28l.66-.47c-15.89-2-21.54-1.43-27.17-.8-3.67-.78-1-1-.65-1.2-23.2-3.68-25.51-3.77-45.07-3.52l-2-1.94c-5.31.38-33.48-6.83-56.32-7.8.23-.17.71-.44,2.53-.44-25.69-1.32-61.16-12.76-70.78-7.82l-17-.72c21.86,3.37-3.35,2.25,5.61,4.47-8.62-.78-22.17-4.81-11.59-3.73l1.64.53c4-2.72-27.14-4.71-26.47-6.82-43.06-5.45-85-12.48-125.35-17.08l4.57,3-14.07-1.66c-3.68-1-4.91-2.48,5.14-1.31-5.24-2-16.89-.6-17.19-.09-19.64-3.11,7.77-2.1,1.74-2.8l-8.2-.69,1.84.49c-6.67.3-7.29,1.35-19.37.07-7.63-1.24-3.88-1.92-6.89-2.3,0-.18-1-.36-4.61-.52l-17.75-1.83,7.05,2.57c-7.89.32-16.69-1.5-8.55,1.43-11.94-4.62-66.21-6.46-73.59-7.64-11.05.9-21.93.09-35.42-.47,3.34.54,5.33,2.83-6.3,2.14,4.3-4.41-21.28-2.87-30.68-6.16,8.4,2.33-33.09,0-19.91,3.32-9.71-.45-.58-1.75-8-2.83-23.12,1.8-51-.85-79.55,1.29-.43.63,4.36,1.3-1.75,2.52l-15.14-2.22c-5.64.57-5.13,3.76-15.48,2.48,1.47.39,3.66,1-.12,1.48-56,1.3-114.13,14.44-170.92,22,7.72-.67,2.63.66-3.21,2.11,3.81-.63,0,1.5.81,2.13l-23.78,3.44C16.67,965,.69,969.29.69,969.29Zm1812-113.53-76,5.57,3.45.84,13.65-2.39M1582.42,987m-154.15,20.48c-.5,1.78,5,1,11.1,1.26-4.68-3.1,17.36-3.52,26.84-5.25.61,1.1-1.64,2.45-13.24,3,12.84,1.66,16.45-5.17,29-3.94-2.83.25-4.36.2-5.46.86,6.59-1.53,22.76-2,19-.69l-2.82.25m-57.13-1.08c-6.24,2.24-1.3,3-1.6,5.17-6.93-1.78-19.55,2.19-32.66,2.56m-51.91-2.65c-3.39-.63-6.28-1.16-8.22-1.41l17-2c2.06.25.35,1.1-2.42,2.16l3.11-.69c6.09.49,3,1.92-1.38,3.37l-6.15-1m-422.83-3.11c12.94.93-12.58-4.47,9-2.93,15.27.85,5.63,2.66,11,3.89M667.88,969.5c-4.17-.3-15.59-3-9.06-2.89,5.84,1.08,13.55,2.69,17.11,4,20.38,2.25-3.07-2.07,5.64-2,6.86,2.85,10,.47,19,1v1.65c23.17,4.1,6.28-2.64,27.13,1.38l-8.92,1.13,10.92.84-2.32,1.58c11.9.18,15.58,1,27.18,3.09-2.66-1.52,1.62-2.79,11.91-1.49,7,1.91-4,1,10.6,2.74a21.37,21.37,0,0,1-13.27-.94c-.67.45-3.28.61-4,1.05,7.51,2.13,19,2.77,24.24,3.45a49.71,49.71,0,0,1-5.69-1.14l21.22.5c3.3,1,.64,1.2-2,1.35m575.35,24c-2.29.66-5.85.58-9.87.16A59.81,59.81,0,0,1,1373,1008.9ZM526.07,937.11l2.77.7C522.54,937.68,524.31,937.42,526.07,937.11Z"/></svg>